<svg xmlns="http://www.w3.org/2000/svg" xmlns:xlink="http://www.w3.org/1999/xlink" xmlns:lucid="lucid" width="3645.33" height="942"><g transform="translate(342.66370477165356 -1295.3333333333333)" lucid:page-tab-id="0_0"><path d="M-500 1000h4000v1500H-500z" fill="#fff"/><path d="M-321.66 1322.33a6 6 0 0 1 6-6h3591.32a6 6 0 0 1 6 6v888a6 6 0 0 1-6 6H-315.66a6 6 0 0 1-6-6z" fill="#fff"/><path d="M-295.7 1316.33h19.94m9.98 0h19.95m9.97 0h19.96m9.97 0h19.95m9.98 0h19.95m9.98 0h19.95m9.97 0h19.96m9.98 0h19.95m9.98 0h19.96m9.98 0H-6.4m9.96 0h19.96m9.97 0h19.95m9.97 0h19.95m9.98 0h19.95m9.98 0h19.95m9.97 0h19.96m9.97 0h19.95m9.98 0H233m10 0h19.94m9.98 0h19.95m9.97 0h19.96m9.97 0h19.95m9.98 0h19.95m9.98 0h19.95m9.97 0h19.95m9.98 0h19.95m9.98 0h19.96m9.98 0h19.95m9.97 0h19.95m9.97 0h19.94m9.98 0h19.95m9.98 0H652m9.98 0h19.95m9.97 0h19.96m9.97 0h19.95m9.98 0h19.95m10 0h19.94m9.97 0h19.97m9.97 0h19.95m9.97 0h19.95m9.98 0h19.95m9.98 0h19.95m9.97 0h19.96m9.98 0h19.95m9.98 0h19.96m9.98 0H1071m9.96 0h19.95m10 0h19.94m9.98 0h19.95m9.98 0h19.95m9.97 0h19.96m9.97 0h19.95m9.98 0h19.95m9.98 0h19.95m9.98 0h19.96m9.97 0h19.97m9.97 0h19.95m9.97 0h19.95m9.98 0h19.95m9.97 0h19.96m9.97 0h19.95m9.98 0h19.95m9.98 0h19.96m9.97 0h19.96m9.96 0h19.95m10 0h19.94m9.98 0h19.95m9.98 0h19.95m9.97 0h19.96m9.97 0h19.95m9.98 0h19.95m9.98 0h19.95m10 0h19.94m9.97 0h19.96m9.98 0h19.95m9.97 0h19.95m9.98 0h19.95m9.97 0h19.95m9.98 0h19.95m9.98 0h19.95m9.98 0h19.96m9.97 0h19.96m9.96 0h19.95m10 0h19.94m9.98 0h19.95m9.97 0h19.96m9.97 0h19.95m9.98 0h19.95m9.98 0h19.95m9.98 0h19.95m9.98 0h19.95m9.98 0h19.96m9.98 0h19.95m9.97 0h19.95m9.97 0h19.95m9.97 0h19.95m9.98 0h19.95m9.98 0h19.95m9.97 0h19.96m9.97 0h19.95m9.98 0H2717m10 0h19.94m9.98 0h19.95m9.97 0h19.96m9.97 0h19.95m9.98 0h19.95m9.98 0h19.95m9.97 0h19.96m9.98 0h19.95m9.98 0h19.96m9.98 0h19.95m9.97 0h19.95m9.97 0h19.95m9.97 0h19.95m9.98 0H3136m9.98 0h19.95m9.98 0h19.96m9.97 0h19.95m9.98 0h19.95m10 0h9.96l.94.08.92.23.87.36.8.48.7.6.62.73.5.8.35.88.22.9.06.95v9.87m0 9.87v19.73m0 9.87v19.73m0 9.87V1421m0 9.87v19.73m0 9.87v19.73m0 9.87v19.73m0 9.87v19.73m0 9.87V1569m0 9.87v19.73m0 9.87v19.73m0 9.87v19.73m0 9.87v19.73m0 9.87V1717m0 9.87v19.73m0 9.87v19.73m0 9.87v19.73m0 9.87v19.73m0 9.87V1865m0 9.87v19.73m0 9.87v19.73m0 9.87v19.73m0 9.87v19.73m0 9.87V2013m0 9.87v19.73m0 9.87v19.73m0 9.87v19.73m0 9.87v19.73m0 9.87V2161m0 9.87v19.73m0 9.87v9.86l-.07.94-.23.92-.36.86-.48.8-.6.72-.73.6-.8.5-.88.36-.92.22-.94.07h-9.97m-10 0h-19.94m-9.98 0h-19.95m-9.97 0h-19.95m-9.97 0h-19.95m-9.98 0h-19.95m-9.98 0h-19.95m-9.97 0h-19.96m-9.98 0h-19.95m-9.98 0h-19.96m-9.98 0h-19.95m-9.97 0h-19.95m-9.97 0h-19.95m-9.97 0h-19.95m-9.98 0h-19.95m-9.98 0h-19.95m-9.97 0h-19.96m-9.97 0h-19.95m-9.98 0H2727m-10 0h-19.94m-9.97 0h-19.97m-9.97 0h-19.95m-9.97 0h-19.95m-9.98 0h-19.95m-9.98 0h-19.95m-9.97 0h-19.95m-9.98 0h-19.95m-9.98 0h-19.96m-9.98 0h-19.95m-9.96 0h-19.96m-9.97 0h-19.94m-9.98 0h-19.95m-9.98 0H2308m-9.97 0h-19.96m-9.97 0h-19.95m-9.98 0h-19.95m-9.98 0h-19.95m-10 0h-19.94m-9.97 0h-19.97m-9.97 0h-19.95m-9.97 0h-19.95m-9.98 0h-19.95m-9.98 0h-19.95m-9.97 0h-19.95m-9.98 0h-19.95m-9.98 0h-19.96m-9.98 0H1889m-9.96 0h-19.95m-10 0h-19.94m-9.98 0h-19.95m-9.98 0h-19.95m-9.97 0h-19.96m-9.97 0h-19.95m-9.98 0h-19.95m-9.98 0h-19.95m-9.98 0h-19.96m-9.97 0h-19.97m-9.97 0h-19.95m-9.97 0h-19.95m-9.98 0h-19.95m-9.97 0h-19.96m-9.97 0h-19.95m-9.98 0h-19.95m-9.98 0h-19.96m-9.97 0h-19.96m-9.96 0h-19.95m-10 0h-19.94m-9.98 0h-19.95m-9.98 0h-19.95m-9.97 0h-19.96m-9.97 0h-19.95m-9.98 0h-19.95m-9.98 0h-19.95m-10 0h-19.94m-9.97 0h-19.96m-9.98 0h-19.95m-9.97 0h-19.95m-9.97 0h-19.95m-9.97 0h-19.95m-9.98 0H901.4m-9.98 0h-19.95m-9.98 0h-19.96m-9.97 0H811.6m-9.96 0H781.7m-10 0h-19.94m-9.98 0h-19.95m-9.98 0H691.9m-9.97 0h-19.95m-9.98 0h-19.95m-9.98 0h-19.95m-9.98 0H572.2m-9.98 0h-19.96m-9.97 0h-19.96m-9.98 0H482.4m-9.97 0h-19.95m-9.98 0h-19.95m-9.97 0h-19.95m-9.98 0H362.7m-9.98 0h-19.95m-9.97 0h-19.96m-9.97 0h-19.95m-9.98 0H243m-10 0h-19.94m-9.98 0h-19.95m-9.97 0H153.2m-9.97 0h-19.95m-9.98 0H93.35m-9.98 0H63.42m-9.98 0H33.5m-9.98 0H3.57m-9.98 0h-19.96m-9.98 0H-56.3m-9.97 0h-19.95m-9.97 0h-19.95m-9.97 0h-19.95m-9.98 0H-176m-9.98 0h-19.95m-9.97 0h-19.96m-9.97 0h-19.95m-9.98 0h-19.95m-10 0h-9.96l-.94-.07-.92-.22-.87-.36-.8-.5-.7-.6-.62-.72-.5-.8-.35-.87-.22-.93-.06-.94v-9.86m0-9.87v-19.73m0-9.87v-19.73m0-9.87v-19.73m0-9.87v-19.73m0-9.87v-19.73m0-9.87v-19.73m0-9.87v-19.73m0-9.87v-19.73m0-9.87v-19.73m0-9.87v-19.73m0-9.87v-19.73m0-9.87v-19.73m0-9.87v-19.73m0-9.87v-19.73m0-9.87v-19.73m0-9.87v-19.73m0-9.87v-19.73m0-9.87v-19.73m0-9.87v-19.73m0-9.87v-19.73m0-9.87v-19.73m0-9.87v-19.73m0-9.87v-19.73m0-9.87v-19.73m0-9.87v-19.73m0-9.87v-19.73m0-9.87v-19.73m0-9.87v-19.73m0-9.87v-19.73m0-9.87v-9.87l.07-.93.23-.92.36-.87.48-.8.6-.7.73-.62.8-.5.88-.35.92-.22.94-.07h9.97" stroke="#3a414a" stroke-width="2" fill="none"/><path d="M1175 1486a6 6 0 0 1 6-6h992a6 6 0 0 1 6 6v526.47a6 6 0 0 1-6 6h-992a6 6 0 0 1-6-6zM320 1855.8a6 6 0 0 1 6-6h288a6 6 0 0 1 6 6v156.47a6 6 0 0 1-6 6H326a6 6 0 0 1-6-6zM450 2058.27c22.1 0 40 17.9 40 40s-17.9 40-40 40h-80c-22.1 0-40-17.9-40-40s17.9-40 40-40z" stroke="#3a414a" stroke-width="2" fill="#fff"/><use xlink:href="#a" transform="matrix(1,0,0,1,335,2063.2668408204217) translate(18.271604938271608 39.65277777777778)"/><use xlink:href="#b" transform="matrix(1,0,0,1,335,2063.2668408204217) translate(71.23456790123457 39.65277777777778)"/><path d="M410 2056.77v-41.12" stroke="#3a414a" fill="none"/><path d="M410.48 2057.27h-.96v-.52h.96z" stroke="#3a414a" stroke-width=".05" fill="#3a414a"/><path d="M410 2000.88l4.63 14.27h-9.26z" stroke="#3a414a" fill="#3a414a"/><path d="M222 1918.27c22.1 0 40 17.9 40 40s-17.9 40-40 40h-80c-22.1 0-40-17.9-40-40s17.9-40 40-40z" stroke="#3a414a" stroke-width="2" fill="#fff"/><use xlink:href="#c" transform="matrix(1,0,0,1,107.00039999998307,1923.2668408204217) translate(42.345679012345684 39.65277777777778)"/><use xlink:href="#d" transform="matrix(1,0,0,1,107.00039999998307,1923.2668408204217) translate(85.49382716049382 39.65277777777778)"/><path d="M338.5 1958.27h-59.12" stroke="#3a414a" fill="none"/><path d="M339 1958.74h-.5v-.95h.5z" stroke="#3a414a" stroke-width=".05" fill="#3a414a"/><path d="M264.62 1958.27l14.26-4.64v9.27z" stroke="#3a414a" fill="#3a414a"/><path d="M585 1957.87l1 .24.94.4.87.53.78.66.66.76.53.87.4.94.23.98.08 1v18l.06.88.2.84.34.8.45.74.56.67.65.56.74.46.8.32.84.2.88.07h6.6v.94h-6.64l-1-.08-.98-.23-.94-.4-.87-.52-.78-.65-.66-.78-.53-.86-.4-.93-.23-1-.08-.98v-18l-.06-.9-.2-.84-.34-.8-.45-.74-.56-.66-.65-.56-.74-.45-.8-.34-.84-.2-.88-.06h-11.65v-.95h11.7zm-87.62.87v-.95h16.77v.94z" stroke="#3a414a" stroke-width=".05" fill="#3a414a"/><path d="M617.38 1988.27l-14.26 4.63v-9.27z" fill="#3a414a"/><path d="M618.92 1988.27l-16.28 5.3v-10.6zm-15.33 3.98l12.25-3.98-12.26-3.98z" stroke="#3a414a" stroke-width=".05" fill="#3a414a"/><path d="M496.88 1962.9l-14.26-4.63 14.26-4.64z" fill="#3a414a"/><path d="M497.36 1963.56l-16.28-5.3 16.28-5.28zm-13.2-5.3l12.25 4v-7.97z" stroke="#3a414a" stroke-width=".05" fill="#3a414a"/><use xlink:href="#e" transform="matrix(1,0,0,1,514.153947011795,1936.9335074870885) translate(0.49882716049382836 14.222222222222223)"/><use xlink:href="#f" transform="matrix(1,0,0,1,514.153947011795,1936.9335074870885) translate(0.004999999999999005 35.55555555555556)"/><path d="M1245 1566a6 6 0 0 1 6-6h882a6 6 0 0 1 6 6v426a6 6 0 0 1-6 6h-882a6 6 0 0 1-6-6zM340 1924.27a6 6 0 0 1 6-6h128a6 6 0 0 1 6 6v68a6 6 0 0 1-6 6H346a6 6 0 0 1-6-6z" stroke="#3a414a" stroke-width="2" fill="#fff"/><path d="M350 1934.27a6 6 0 0 1 6-6h108a6 6 0 0 1 6 6v48a6 6 0 0 1-6 6H356a6 6 0 0 1-6-6z" fill="none"/><use xlink:href="#g" transform="matrix(1,0,0,1,350,1928.2668408204217) translate(41.51234567901235 23.777777777777775)"/><use xlink:href="#h" transform="matrix(1,0,0,1,350,1928.2668408204217) translate(17.604938271604937 46.888888888888886)"/><use xlink:href="#i" transform="matrix(1,0,0,1,350,1928.2668408204217) translate(61.01234567901235 46.888888888888886)"/><path d="M321 1855.8a6 6 0 0 1 6-6h148a6 6 0 0 1 6 6v48a6 6 0 0 1-6 6H327a6 6 0 0 1-6-6z" fill="none"/><use xlink:href="#j" transform="matrix(1,0,0,1,320.9997762802946,1849.8000870768774) translate(30.444444444444443 35.333333333333336)"/><use xlink:href="#k" transform="matrix(1,0,0,1,320.9997762802946,1849.8000870768774) translate(92.5925925925926 35.333333333333336)"/><path d="M2550.66 1745.8a6 6 0 0 1 6-6h328a6 6 0 0 1 6 6v268a6 6 0 0 1-6 6h-328a6 6 0 0 1-6-6z" stroke="#3a414a" stroke-width="2" fill="#fff"/><path d="M2550.66 1745.8a6 6 0 0 1 6-6h208a6 6 0 0 1 6 6v48a6 6 0 0 1-6 6h-208a6 6 0 0 1-6-6z" fill="none"/><use xlink:href="#l" transform="matrix(1,0,0,1,2550.664670990965,1739.8000870768774) translate(28.666666666666657 35.333333333333336)"/><use xlink:href="#m" transform="matrix(1,0,0,1,2550.664670990965,1739.8000870768774) translate(110 35.333333333333336)"/><path d="M2179 1965.8a6 6 0 0 1 6-6h109a6 6 0 0 1 6 6v48a6 6 0 0 1-6 6h-109a6 6 0 0 1-6-6z" stroke="#3a414a" stroke-width="2" fill="#fff"/><use xlink:href="#n" transform="matrix(1,0,0,1,2191.0002237197054,1971.8000870768774) translate(25.69135802469136 22.27777777777778)"/><path d="M2429.66 1965.8a6 6 0 0 1 6-6h109a6 6 0 0 1 6 6v48a6 6 0 0 1-6 6h-109a6 6 0 0 1-6-6z" stroke="#3a414a" stroke-width="2" fill="#fff"/><use xlink:href="#o" transform="matrix(1,0,0,1,2441.664894710671,1971.8000870768774) translate(20.722222222222225 22.27777777777778)"/><path d="M2344.14 1990.28h-26.76v-.95h26.76zm68.14 0h-26.76v-.95h26.76z" stroke="#3a414a" stroke-width=".05" fill="#3a414a"/><path d="M2316.88 1994.43l-14.26-4.63 14.26-4.63z" fill="#3a414a"/><path d="M2317.36 1995.1l-16.28-5.3 16.28-5.3zm-13.2-5.3l12.25 3.98v-7.96z" stroke="#3a414a" stroke-width=".05" fill="#3a414a"/><path d="M2427.05 1989.8l-14.27 4.63v-9.27z" fill="#3a414a"/><path d="M2428.58 1989.8l-16.27 5.3v-10.6zm-15.32 3.98l12.25-3.98-12.24-3.98z" stroke="#3a414a" stroke-width=".05" fill="#3a414a"/><use xlink:href="#p" transform="matrix(1,0,0,1,2344.1410891904966,1979.1334204102106) translate(0 14.222222222222223)"/><path d="M2570.66 1825.8a6 6 0 0 1 6-6h288a6 6 0 0 1 6 6v176.8a6 6 0 0 1-6 6h-288a6 6 0 0 1-6-6z" stroke="#3a414a" stroke-width="2" fill="#fff"/><use xlink:href="#q" transform="matrix(1,0,0,1,2582.664670990965,1831.8000870768774) translate(0 22.22291666666667)"/><use xlink:href="#r" transform="matrix(1,0,0,1,2582.664670990965,1831.8000870768774) translate(105.42222222222223 22.22291666666667)"/><use xlink:href="#s" transform="matrix(1,0,0,1,2582.664670990965,1831.8000870768774) translate(36.01 47.82291666666667)"/><use xlink:href="#t" transform="matrix(1,0,0,1,2582.664670990965,1831.8000870768774) translate(48.98777777777778 47.82291666666667)"/><use xlink:href="#u" transform="matrix(1,0,0,1,2582.664670990965,1831.8000870768774) translate(125.9062962962963 47.82291666666667)"/><use xlink:href="#s" transform="matrix(1,0,0,1,2582.664670990965,1831.8000870768774) translate(36.01 73.42291666666668)"/><use xlink:href="#v" transform="matrix(1,0,0,1,2582.664670990965,1831.8000870768774) translate(48.98777777777778 73.42291666666668)"/><use xlink:href="#w" transform="matrix(1,0,0,1,2582.664670990965,1831.8000870768774) translate(117.66925925925928 73.42291666666668)"/><use xlink:href="#s" transform="matrix(1,0,0,1,2582.664670990965,1831.8000870768774) translate(36.01 99.02291666666667)"/><use xlink:href="#x" transform="matrix(1,0,0,1,2582.664670990965,1831.8000870768774) translate(48.98777777777778 99.02291666666667)"/><use xlink:href="#y" transform="matrix(1,0,0,1,2582.664670990965,1831.8000870768774) translate(135.44703703703703 99.02291666666667)"/><use xlink:href="#z" transform="matrix(1,0,0,1,2582.664670990965,1831.8000870768774) translate(213.61 99.02291666666667)"/><use xlink:href="#A" transform="matrix(1,0,0,1,2582.664670990965,1831.8000870768774) translate(0 124.6229166666667)"/><use xlink:href="#B" transform="matrix(1,0,0,1,2582.664670990965,1831.8000870768774) translate(0 150.2229166666667)"/><use xlink:href="#C" transform="matrix(1,0,0,1,2582.664670990965,1831.8000870768774) translate(66.37037037037038 150.2229166666667)"/><use xlink:href="#D" transform="matrix(1,0,0,1,2582.664670990965,1831.8000870768774) translate(117.33333333333334 150.2229166666667)"/><path d="M1175 1486a6 6 0 0 1 6-6h268a6 6 0 0 1 6 6v48a6 6 0 0 1-6 6h-268a6 6 0 0 1-6-6z" fill="none"/><use xlink:href="#E" transform="matrix(1,0,0,1,1175.000423719697,1480) translate(17.259259259259252 35.333333333333336)"/><use xlink:href="#F" transform="matrix(1,0,0,1,1175.000423719697,1480) translate(147.4074074074074 35.333333333333336)"/><use xlink:href="#G" transform="matrix(1,0,0,1,1175.000423719697,1480) translate(178.44444444444446 35.333333333333336)"/><use xlink:href="#H" transform="matrix(1,0,0,1,1175.000423719697,1480) translate(237.62962962962962 35.333333333333336)"/><path d="M1245 1566a6 6 0 0 1 6-6h108a6 6 0 0 1 6 6v48a6 6 0 0 1-6 6h-108a6 6 0 0 1-6-6z" fill="none"/><use xlink:href="#I" transform="matrix(1,0,0,1,1245.0004237196972,1560) translate(8.209876543209873 23.777777777777775)"/><use xlink:href="#J" transform="matrix(1,0,0,1,1245.0004237196972,1560) translate(13.654320987654316 46.888888888888886)"/><use xlink:href="#K" transform="matrix(1,0,0,1,1245.0004237196972,1560) translate(57.06172839506173 46.888888888888886)"/><path d="M1914 1898.07l1 .24.94.4.87.53.78.66.66.76.53.87.4.93.23 1 .07 1v79.32l.08.88.2.85.33.8.45.75.56.66.65.57.74.45.8.33.84.2.88.08h17.33v.95h-17.37l-1-.08-.98-.24-.94-.4-.87-.52-.78-.66-.66-.77-.53-.86-.4-.94-.23-1-.07-.98v-79.34l-.07-.88-.2-.84-.34-.8-.45-.74-.56-.66-.65-.56-.74-.45-.8-.34-.84-.2-.88-.06h-16.6v-.95h16.64zm263.5 91.26v.95h-51.15v-.95z" stroke="#3a414a" stroke-width=".05" fill="#3a414a"/><path d="M2178 1990.28h-.5v-.95h.5z" fill="#3a414a"/><path stroke="#3a414a" stroke-width=".05" fill="#3a414a"/><path d="M1895.88 1903.1l-14.26-4.63 14.26-4.64z" fill="#3a414a"/><path d="M1896.36 1903.76l-16.28-5.3 16.28-5.28zm-13.2-5.3l12.25 4v-7.98zM1914 1709.4l1 .24.94.4.87.52.78.66.66.77.53.86.4.94.23 1 .07.98v268l.08.88.2.85.33.8.45.75.56.66.65.57.74.45.8.33.84.2.88.08h17.33v.95h-17.37l-1-.08-.98-.24-.94-.4-.87-.52-.78-.66-.66-.77-.53-.86-.4-.94-.23-1-.07-.98v-268l-.07-.88-.2-.85-.34-.8-.45-.75-.56-.66-.65-.57-.74-.45-.8-.33-.84-.2-.88-.07h-32.48v-.95h32.52zm247.62 279.92v.96h-35.27v-.95z" stroke="#3a414a" stroke-width=".05" fill="#3a414a"/><path d="M1880.5 1710.28h-.5v-.95h.5z" fill="#3a414a"/><path stroke="#3a414a" stroke-width=".05" fill="#3a414a"/><path d="M2176.38 1989.8l-14.26 4.63v-9.27z" fill="#3a414a"/><path d="M2177.92 1989.8l-16.28 5.3v-10.6zm-15.33 3.98l12.24-3.98-12.25-3.98z" stroke="#3a414a" stroke-width=".05" fill="#3a414a"/><use xlink:href="#L" transform="matrix(1,0,0,1,1942.3489399241705,1979.1334204102106) translate(0 14.222222222222223)"/><use xlink:href="#M" transform="matrix(1,0,0,1,1942.3489399241705,1979.1334204102106) translate(103.16049382716048 14.222222222222223)"/><use xlink:href="#N" transform="matrix(1,0,0,1,1942.3489399241705,1979.1334204102106) translate(142.61728395061726 14.222222222222223)"/><path d="M1055 1964.47a6 6 0 0 1 6-6h108a6 6 0 0 1 6 6v48a6 6 0 0 1-6 6h-108a6 6 0 0 1-6-6z" stroke="#3a414a" stroke-width="2" fill="#fff"/><use xlink:href="#O" transform="matrix(1,0,0,1,1067.0004237196968,1970.4667537435444) translate(-6.459259259259262 22.266666666666666)"/><path d="M1899 1566a6 6 0 0 1 6-6h228a6 6 0 0 1 6 6v48a6 6 0 0 1-6 6h-228a6 6 0 0 1-6-6z" fill="none"/><use xlink:href="#P" transform="matrix(1,0,0,1,1899.000223719706,1560) translate(23.209876543209887 34.44444444444444)"/><use xlink:href="#Q" transform="matrix(1,0,0,1,1899.000223719706,1560) translate(69.93827160493828 34.44444444444444)"/><use xlink:href="#R" transform="matrix(1,0,0,1,1899.000223719706,1560) translate(163.76543209876542 34.44444444444444)"/><path d="M620 1964.27a6 6 0 0 1 6-6h108a6 6 0 0 1 6 6v48a6 6 0 0 1-6 6H626a6 6 0 0 1-6-6z" stroke="#3a414a" stroke-width="2" fill="#fff"/><use xlink:href="#S" transform="matrix(1,0,0,1,632,1970.2668408204222) translate(30.31111111111111 21.56666666666667)"/><path d="M757.38 1988.27h4.36m4.35 0h8.7m4.35 0h8.7m4.36 0h8.7m4.36 0h4.35" stroke="#3a414a" fill="none"/><path d="M742.62 1988.27l14.26-4.64v9.27zM824.38 1988.27l-14.27 4.63v-9.27z" stroke="#3a414a" fill="#3a414a"/><path d="M851 2012.27c-13.25 0-24-10.75-24-24 0-10.6 6.5-19.55 16.58-22.83-.58-31.17 39.42-37.17 55.42-25.17 8-18 48-12 48 6 24-6 48 18 32 48 16 24 0 54-32 42-8 15.6-40 15.6-48 0-16 12-48 6-48-24z" fill="#fff"/><path d="M830.22 2000.26l-2-4.42-1.07-4.85-.15-2.73.6-5.44 1.47-4.34m5.87-8.07l.5-.53 4.4-2.9 3.74-1.56.08-3.1.33-2.8.53-2.57.72-2.37.5-1.2m7.14-9.93l.76-.7 2.24-1.67 2.57-1.57 2.9-1.45 3.3-1.28 3.63-1.05 3.93-.76 3.25-.34m12.27.77l.1.02 3.12.83 2.67.98 2.26 1.06 1.9 1.1 1.2.85.7-1.38.84-1.3 1-1.24 1.18-1.2 1.4-1.14 1.54-1m9.4-3.16l1.44-.24 3.85-.22 4.13.2 4.12.6 3.8 1 2.3.85m8.4 5.3l.36.35 1.03 1.24.8 1.2.6 1.2.48 1.15.33 1.17.22 1.2.08 1.22v.17l3.18-.63 3.18-.28 3.15.05 2.8.35m11.48 4.42l.33.2 2.48 1.84 2.25 2.1 2 2.26 1.76 2.47 1.47 2.62 1.2 2.78.94 2.94.62 3m-.52 12.32l-.45 2.04-1.4 4.24-2.1 4.63-.35.67 2.4 4.13 1.8 4.1.9 3m.92 12.27l-.6 3.15-.93 3-1.23 2.7-1.46 2.43-1.67 2.15-1.87 1.9-2.06 1.63-2.27 1.4-1.77.8m-12.1 1.96l-1.6-.08-4.43-.73-5.2-1.52-.83-.3-.86 1.46-1.04 1.44-1.27 1.4-1.53 1.37-1.55 1.12m-8.5 3.73l-3.26.7-3.88.4-4 .02-3.88-.4-3.48-.7m-8.5-3.75l-1.46-1.04-1.54-1.37-1.28-1.4-1.06-1.43-.87-1.47-.05-.1-2.24 1.5-2.57 1.37-2.9 1.16-2.32.65m-11.04 1h-.35l-3.45-.5-3.25-.8-3-1.07-2.74-1.32-2.45-1.52-2.2-1.7-1.96-1.88-.3-.37m-5.55-9.57l-.75-2.53-.63-3.4-.3-3.93-.02-1.1-5-.52-4.7-1.53-2.24-1.28" stroke="#3a414a" stroke-width="2" fill="none"/><use xlink:href="#T" transform="matrix(1,0,0,1,832.0008237196802,1933.2668408204217) translate(0.025000000000005684 59.0875)"/><use xlink:href="#U" transform="matrix(1,0,0,1,832.0008237196802,1933.2668408204217) translate(60.025000000000006 59.0875)"/><path d="M999.05 1988.47h6.43m6.42 0h12.86m6.43 0h6.42" stroke="#3a414a" fill="none"/><path d="M984.28 1988.47l14.27-4.64v9.27zM1052.38 1988.47l-14.26 4.63v-9.27z" stroke="#3a414a" fill="#3a414a"/><path d="M-321.66 1322.33a6 6 0 0 1 6-6H154a6 6 0 0 1 6 6v48a6 6 0 0 1-6 6h-469.66a6 6 0 0 1-6-6z" fill="none"/><g><use xlink:href="#V" transform="matrix(1,0,0,1,-321.66370477165356,1316.3333333333333) translate(37.94444444444446 38)"/><use xlink:href="#W" transform="matrix(1,0,0,1,-321.66370477165356,1316.3333333333333) translate(126.72222222222223 38)"/><use xlink:href="#X" transform="matrix(1,0,0,1,-321.66370477165356,1316.3333333333333) translate(175.5 38)"/><use xlink:href="#Y" transform="matrix(1,0,0,1,-321.66370477165356,1316.3333333333333) translate(228.83333333333331 38)"/><use xlink:href="#Z" transform="matrix(1,0,0,1,-321.66370477165356,1316.3333333333333) translate(326.5 38)"/></g><path d="M1279 1825.8a6 6 0 0 1 6-6h128a6 6 0 0 1 6 6v145.33a6 6 0 0 1-6 6h-128a6 6 0 0 1-6-6z" stroke="#3a414a" stroke-width="2" fill="#fff"/><g><use xlink:href="#aa" transform="matrix(1,0,0,1,1291.0002237197054,1831.8000870768774) translate(-7.401234567901241 44.77777777777778)"/><use xlink:href="#ab" transform="matrix(1,0,0,1,1291.0002237197054,1831.8000870768774) translate(22.47530864197531 71.44444444444446)"/><use xlink:href="#ac" transform="matrix(1,0,0,1,1291.0002237197054,1831.8000870768774) translate(19.728395061728392 98.11111111111111)"/></g><path d="M1192.38 1988.47H1221a6 6 0 0 0 6-6v-78a6 6 0 0 1 6-6h28.62" stroke="#3a414a" fill="none"/><path d="M1177.62 1988.47l14.26-4.64v9.27zM1276.38 1898.47l-14.26 4.63v-9.27z" stroke="#3a414a" fill="#3a414a"/><path d="M1349 1818.3v-102.5a6 6 0 0 1 6-6h112.62" stroke="#3a414a" fill="none"/><path d="M1349.47 1818.8h-.94v-.5h.94z" stroke="#3a414a" stroke-width=".05" fill="#3a414a"/><path d="M1482.38 1709.8l-14.26 4.63v-9.27z" stroke="#3a414a" fill="#3a414a"/><path d="M1485 1640.13a6 6 0 0 1 6-6h148a6 6 0 0 1 6 6v139.34a6 6 0 0 1-6 6h-148a6 6 0 0 1-6-6z" stroke="#3a414a" stroke-width="2" fill="#fff"/><g><use xlink:href="#ad" transform="matrix(1,0,0,1,1497.000423719697,1646.1334204102106) translate(22.19753086419753 17.77777777777778)"/><use xlink:href="#ae" transform="matrix(1,0,0,1,1497.000423719697,1646.1334204102106) translate(18.27777777777778 44.44444444444444)"/><use xlink:href="#af" transform="matrix(1,0,0,1,1497.000423719697,1646.1334204102106) translate(72.53703703703704 44.44444444444444)"/><use xlink:href="#ag" transform="matrix(1,0,0,1,1497.000423719697,1646.1334204102106) translate(1.3950617283950635 71.11111111111111)"/><use xlink:href="#ah" transform="matrix(1,0,0,1,1497.000423719697,1646.1334204102106) translate(116.08641975308643 71.11111111111111)"/><use xlink:href="#ai" transform="matrix(1,0,0,1,1497.000423719697,1646.1334204102106) translate(6.611111111111114 97.77777777777777)"/><use xlink:href="#aj" transform="matrix(1,0,0,1,1497.000423719697,1646.1334204102106) translate(13.740740740740733 124.44444444444446)"/></g><path d="M1485 1825.8a6 6 0 0 1 6-6h148a6 6 0 0 1 6 6v145.33a6 6 0 0 1-6 6h-148a6 6 0 0 1-6-6z" stroke="#3a414a" stroke-width="2" fill="#fff"/><g><use xlink:href="#ad" transform="matrix(1,0,0,1,1497.000423719697,1831.8000870768774) translate(22.19753086419753 21.96527777777778)"/><use xlink:href="#ai" transform="matrix(1,0,0,1,1497.000423719697,1831.8000870768774) translate(6.611111111111114 48.63194444444444)"/><use xlink:href="#ak" transform="matrix(1,0,0,1,1497.000423719697,1831.8000870768774) translate(10.00617283950617 75.29861111111111)"/><use xlink:href="#ah" transform="matrix(1,0,0,1,1497.000423719697,1831.8000870768774) translate(107.47530864197532 75.29861111111111)"/><use xlink:href="#ae" transform="matrix(1,0,0,1,1497.000423719697,1831.8000870768774) translate(18.27777777777778 101.96527777777777)"/><use xlink:href="#af" transform="matrix(1,0,0,1,1497.000423719697,1831.8000870768774) translate(72.53703703703704 101.96527777777777)"/><use xlink:href="#al" transform="matrix(1,0,0,1,1497.000423719697,1831.8000870768774) translate(22.351851851851848 128.63194444444446)"/></g><path d="M1436.38 1898.47h47.12" stroke="#3a414a" fill="none"/><path d="M1421.62 1898.47l14.26-4.64v9.27z" stroke="#3a414a" fill="#3a414a"/><path d="M1484 1898.94h-.5v-.95h.5z" stroke="#3a414a" stroke-width=".05" fill="#3a414a"/><path d="M1719 1640.13a6 6 0 0 1 6-6h148a6 6 0 0 1 6 6v139.34a6 6 0 0 1-6 6h-148a6 6 0 0 1-6-6z" stroke="#3a414a" stroke-width="2" fill="#fff"/><g><use xlink:href="#am" transform="matrix(1,0,0,1,1731.0002237197052,1646.1334204102106) translate(27.907407407407412 41.77777777777778)"/><use xlink:href="#an" transform="matrix(1,0,0,1,1731.0002237197052,1646.1334204102106) translate(4.111111111111114 68.44444444444446)"/><use xlink:href="#ao" transform="matrix(1,0,0,1,1731.0002237197052,1646.1334204102106) translate(16.85802469135802 95.11111111111111)"/></g><path d="M1646.5 1709.55h55.12" stroke="#3a414a" fill="none"/><path d="M1646.5 1710.02h-.5v-.95h.5z" stroke="#3a414a" stroke-width=".05" fill="#3a414a"/><path d="M1716.38 1709.55l-14.26 4.63v-9.27z" stroke="#3a414a" fill="#3a414a"/><path d="M1719 1825.8a6 6 0 0 1 6-6h148a6 6 0 0 1 6 6v145.33a6 6 0 0 1-6 6h-148a6 6 0 0 1-6-6z" stroke="#3a414a" stroke-width="2" fill="#fff"/><g><use xlink:href="#am" transform="matrix(1,0,0,1,1731.0002237197052,1831.8000870768774) translate(27.907407407407412 42.90277777777778)"/><use xlink:href="#an" transform="matrix(1,0,0,1,1731.0002237197052,1831.8000870768774) translate(4.111111111111114 69.56944444444446)"/><use xlink:href="#ap" transform="matrix(1,0,0,1,1731.0002237197052,1831.8000870768774) translate(18.03086419753086 96.23611111111111)"/></g><path d="M1717.5 1898.47H1662.38" stroke="#3a414a" fill="none"/><path d="M1718 1898.94h-.5v-.95h.5z" stroke="#3a414a" stroke-width=".05" fill="#3a414a"/><path d="M1647.62 1898.47l14.27-4.64-.02 9.27z" stroke="#3a414a" fill="#3a414a"/><defs><path d="M232-93c-1 65-40 97-104 97C67 4 28-28 28-90v-158h33c8 89-33 224 67 224 102 0 64-133 71-224h33v155" id="aq"/><path d="M135-143c-3-34-86-38-87 0 15 53 115 12 119 90S17 21 10-45l28-5c4 36 97 45 98 0-10-56-113-15-118-90-4-57 82-63 122-42 12 7 21 19 24 35" id="ar"/><path d="M100-194c63 0 86 42 84 106H49c0 40 14 67 53 68 26 1 43-12 49-29l28 8c-11 28-37 45-77 45C44 4 14-33 15-96c1-61 26-98 85-98zm52 81c6-60-76-77-97-28-3 7-6 17-6 28h103" id="as"/><path d="M114-163C36-179 61-72 57 0H25l-1-190h30c1 12-1 29 2 39 6-27 23-49 58-41v29" id="at"/><g id="a"><use transform="matrix(0.06172839506172839,0,0,0.06172839506172839,0,0)" xlink:href="#aq"/><use transform="matrix(0.06172839506172839,0,0,0.06172839506172839,15.987654320987653,0)" xlink:href="#ar"/><use transform="matrix(0.06172839506172839,0,0,0.06172839506172839,27.098765432098766,0)" xlink:href="#as"/><use transform="matrix(0.06172839506172839,0,0,0.06172839506172839,39.44444444444444,0)" xlink:href="#at"/></g><path d="M33 0v-248h34V0H33" id="au"/><path d="M117-194c89-4 53 116 60 194h-32v-121c0-31-8-49-39-48C34-167 62-67 57 0H25l-1-190h30c1 10-1 24 2 32 11-22 29-35 61-36" id="av"/><path d="M115-194c55 1 70 41 70 98S169 2 115 4C84 4 66-9 55-30l1 105H24l-1-265h31l2 30c10-21 28-34 59-34zm-8 174c40 0 45-34 45-75s-6-73-45-74c-42 0-51 32-51 76 0 43 10 73 51 73" id="aw"/><path d="M84 4C-5 8 30-112 23-190h32v120c0 31 7 50 39 49 72-2 45-101 50-169h31l1 190h-30c-1-10 1-25-2-33-11 22-28 36-60 37" id="ax"/><path d="M59-47c-2 24 18 29 38 22v24C64 9 27 4 27-40v-127H5v-23h24l9-43h21v43h35v23H59v120" id="ay"/><g id="b"><use transform="matrix(0.06172839506172839,0,0,0.06172839506172839,0,0)" xlink:href="#au"/><use transform="matrix(0.06172839506172839,0,0,0.06172839506172839,6.172839506172839,0)" xlink:href="#av"/><use transform="matrix(0.06172839506172839,0,0,0.06172839506172839,18.51851851851852,0)" xlink:href="#aw"/><use transform="matrix(0.06172839506172839,0,0,0.06172839506172839,30.864197530864196,0)" xlink:href="#ax"/><use transform="matrix(0.06172839506172839,0,0,0.06172839506172839,43.20987654320987,0)" xlink:href="#ay"/><use transform="matrix(0.06172839506172839,0,0,0.06172839506172839,49.382716049382715,0)" xlink:href="#ar"/></g><path d="M30-248c118-7 216 8 213 122C240-48 200 0 122 0H30v-248zM63-27c89 8 146-16 146-99s-60-101-146-95v194" id="az"/><path d="M30 0v-248h187v28H63v79h144v27H63v87h162V0H30" id="aA"/><g id="c"><use transform="matrix(0.06172839506172839,0,0,0.06172839506172839,0,0)" xlink:href="#au"/><use transform="matrix(0.06172839506172839,0,0,0.06172839506172839,6.172839506172839,0)" xlink:href="#az"/><use transform="matrix(0.06172839506172839,0,0,0.06172839506172839,22.160493827160494,0)" xlink:href="#aA"/></g><g id="d"><use transform="matrix(0.06172839506172839,0,0,0.06172839506172839,0,0)" xlink:href="#aq"/><use transform="matrix(0.06172839506172839,0,0,0.06172839506172839,15.987654320987653,0)" xlink:href="#au"/></g><path fill="#333" d="M136-208V0H84v-208H4v-40h212v40h-80" id="aB"/><path fill="#333" d="M67-125c0 53 21 87 73 88 37 1 54-22 65-47l45 17C233-25 199 4 140 4 58 4 20-42 15-125 8-235 124-281 211-232c18 10 29 29 36 50l-46 12c-8-25-30-41-62-41-52 0-71 34-72 86" id="aC"/><path fill="#333" d="M24-248c93 1 206-16 204 79-1 75-69 88-152 82V0H24v-248zm52 121c47 0 100 7 100-41 0-47-54-39-100-39v80" id="aD"/><path fill="#333" d="M4 7l51-268h42L46 7H4" id="aE"/><path fill="#333" d="M24 0v-248h52V0H24" id="aF"/><g id="e"><use transform="matrix(0.04938271604938272,0,0,0.04938271604938272,0,0)" xlink:href="#aB"/><use transform="matrix(0.04938271604938272,0,0,0.04938271604938272,10.814814814814815,0)" xlink:href="#aC"/><use transform="matrix(0.04938271604938272,0,0,0.04938271604938272,23.60493827160494,0)" xlink:href="#aD"/><use transform="matrix(0.04938271604938272,0,0,0.04938271604938272,35.45679012345679,0)" xlink:href="#aE"/><use transform="matrix(0.04938271604938272,0,0,0.04938271604938272,40.39506172839506,0)" xlink:href="#aF"/><use transform="matrix(0.04938271604938272,0,0,0.04938271604938272,45.333333333333336,0)" xlink:href="#aD"/></g><path fill="#333" d="M169-182c-1-43-94-46-97-3 18 66 151 10 154 114 3 95-165 93-204 36-6-8-10-19-12-30l50-8c3 46 112 56 116 5-17-69-150-10-154-114-4-87 153-88 188-35 5 8 8 18 10 28" id="aG"/><path fill="#333" d="M110-194c64 0 96 36 96 99 0 64-35 99-97 99-61 0-95-36-95-99 0-62 34-99 96-99zm-1 164c35 0 45-28 45-65 0-40-10-65-43-65-34 0-45 26-45 65 0 36 10 65 43 65" id="aH"/><path fill="#333" d="M190-63c-7 42-38 67-86 67-59 0-84-38-90-98-12-110 154-137 174-36l-49 2c-2-19-15-32-35-32-30 0-35 28-38 64-6 74 65 87 74 30" id="aI"/><path fill="#333" d="M147 0L96-86 75-71V0H25v-261h50v150l67-79h53l-66 74L201 0h-54" id="aJ"/><path fill="#333" d="M185-48c-13 30-37 53-82 52C43 2 14-33 14-96s30-98 90-98c62 0 83 45 84 108H66c0 31 8 55 39 56 18 0 30-7 34-22zm-45-69c5-46-57-63-70-21-2 6-4 13-4 21h74" id="aK"/><path fill="#333" d="M115-3C79 11 28 4 28-45v-112H4v-33h27l15-45h31v45h36v33H77v99c-1 23 16 31 38 25v30" id="aL"/><g id="f"><use transform="matrix(0.04938271604938272,0,0,0.04938271604938272,0,0)" xlink:href="#aG"/><use transform="matrix(0.04938271604938272,0,0,0.04938271604938272,11.851851851851853,0)" xlink:href="#aH"/><use transform="matrix(0.04938271604938272,0,0,0.04938271604938272,22.666666666666668,0)" xlink:href="#aI"/><use transform="matrix(0.04938271604938272,0,0,0.04938271604938272,32.543209876543216,0)" xlink:href="#aJ"/><use transform="matrix(0.04938271604938272,0,0,0.04938271604938272,42.41975308641976,0)" xlink:href="#aK"/><use transform="matrix(0.04938271604938272,0,0,0.04938271604938272,52.2962962962963,0)" xlink:href="#aL"/></g><g id="g"><use transform="matrix(0.06172839506172839,0,0,0.06172839506172839,0,0)" xlink:href="#au"/><use transform="matrix(0.06172839506172839,0,0,0.06172839506172839,6.172839506172839,0)" xlink:href="#az"/><use transform="matrix(0.06172839506172839,0,0,0.06172839506172839,22.160493827160494,0)" xlink:href="#aA"/></g><path d="M143 4C61 4 22-44 18-125c-5-107 100-154 193-111 17 8 29 25 37 43l-32 9c-13-25-37-40-76-40-61 0-88 39-88 99 0 61 29 100 91 101 35 0 62-11 79-27v-45h-74v-28h105v86C228-13 192 4 143 4" id="aM"/><path d="M160-131c35 5 61 23 61 61C221 17 115-2 30 0v-248c76 3 177-17 177 60 0 33-19 50-47 57zm-97-11c50-1 110 9 110-42 0-47-63-36-110-37v79zm0 115c55-2 124 14 124-45 0-56-70-42-124-44v89" id="aN"/><g id="h"><use transform="matrix(0.04938271604938272,0,0,0.04938271604938272,0,0)" xlink:href="#aM"/><use transform="matrix(0.04938271604938272,0,0,0.04938271604938272,13.827160493827162,0)" xlink:href="#az"/><use transform="matrix(0.04938271604938272,0,0,0.04938271604938272,26.617283950617285,0)" xlink:href="#aN"/></g><path d="M96-169c-40 0-48 33-48 73s9 75 48 75c24 0 41-14 43-38l32 2c-6 37-31 61-74 61-59 0-76-41-82-99-10-93 101-131 147-64 4 7 5 14 7 22l-32 3c-4-21-16-35-41-35" id="aO"/><path d="M24 0v-261h32V0H24" id="aP"/><path d="M24-231v-30h32v30H24zM24 0v-190h32V0H24" id="aQ"/><g id="i"><use transform="matrix(0.04938271604938272,0,0,0.04938271604938272,0,0)" xlink:href="#aO"/><use transform="matrix(0.04938271604938272,0,0,0.04938271604938272,8.88888888888889,0)" xlink:href="#aP"/><use transform="matrix(0.04938271604938272,0,0,0.04938271604938272,12.790123456790125,0)" xlink:href="#aQ"/><use transform="matrix(0.04938271604938272,0,0,0.04938271604938272,16.691358024691358,0)" xlink:href="#as"/><use transform="matrix(0.04938271604938272,0,0,0.04938271604938272,26.567901234567902,0)" xlink:href="#av"/><use transform="matrix(0.04938271604938272,0,0,0.04938271604938272,36.44444444444444,0)" xlink:href="#ay"/></g><path d="M197 0v-115H63V0H30v-248h33v105h134v-105h34V0h-34" id="aR"/><path d="M100-194c62-1 85 37 85 99 1 63-27 99-86 99S16-35 15-95c0-66 28-99 85-99zM99-20c44 1 53-31 53-75 0-43-8-75-51-75s-53 32-53 75 10 74 51 75" id="aS"/><g id="j"><use transform="matrix(0.07407407407407408,0,0,0.07407407407407408,0,0)" xlink:href="#aR"/><use transform="matrix(0.07407407407407408,0,0,0.07407407407407408,19.185185185185187,0)" xlink:href="#aS"/><use transform="matrix(0.07407407407407408,0,0,0.07407407407407408,34,0)" xlink:href="#ar"/><use transform="matrix(0.07407407407407408,0,0,0.07407407407407408,47.33333333333334,0)" xlink:href="#ay"/></g><path d="M30-248c87 1 191-15 191 75 0 78-77 80-158 76V0H30v-248zm33 125c57 0 124 11 124-50 0-59-68-47-124-48v98" id="aT"/><path d="M212-179c-10-28-35-45-73-45-59 0-87 40-87 99 0 60 29 101 89 101 43 0 62-24 78-52l27 14C228-24 195 4 139 4 59 4 22-46 18-125c-6-104 99-153 187-111 19 9 31 26 39 46" id="aU"/><g id="k"><use transform="matrix(0.07407407407407408,0,0,0.07407407407407408,0,0)" xlink:href="#aT"/><use transform="matrix(0.07407407407407408,0,0,0.07407407407407408,17.77777777777778,0)" xlink:href="#aU"/></g><path d="M127-220V0H93v-220H8v-28h204v28h-85" id="aV"/><path d="M141-36C126-15 110 5 73 4 37 3 15-17 15-53c-1-64 63-63 125-63 3-35-9-54-41-54-24 1-41 7-42 31l-33-3c5-37 33-52 76-52 45 0 72 20 72 64v82c-1 20 7 32 28 27v20c-31 9-61-2-59-35zM48-53c0 20 12 33 32 33 41-3 63-29 60-74-43 2-92-5-92 41" id="aW"/><path d="M177-190C167-65 218 103 67 71c-23-6-38-20-44-43l32-5c15 47 100 32 89-28v-30C133-14 115 1 83 1 29 1 15-40 15-95c0-56 16-97 71-98 29-1 48 16 59 35 1-10 0-23 2-32h30zM94-22c36 0 50-32 50-73 0-42-14-75-50-75-39 0-46 34-46 75s6 73 46 73" id="aX"/><g id="l"><use transform="matrix(0.07407407407407408,0,0,0.07407407407407408,0,0)" xlink:href="#aV"/><use transform="matrix(0.07407407407407408,0,0,0.07407407407407408,13.259259259259261,0)" xlink:href="#aW"/><use transform="matrix(0.07407407407407408,0,0,0.07407407407407408,28.074074074074076,0)" xlink:href="#at"/><use transform="matrix(0.07407407407407408,0,0,0.07407407407407408,36.88888888888889,0)" xlink:href="#aX"/><use transform="matrix(0.07407407407407408,0,0,0.07407407407407408,51.70370370370371,0)" xlink:href="#as"/><use transform="matrix(0.07407407407407408,0,0,0.07407407407407408,66.51851851851853,0)" xlink:href="#ay"/></g><path d="M108 0H70L1-190h34L89-25l56-165h34" id="aY"/><g id="m"><use transform="matrix(0.07407407407407408,0,0,0.07407407407407408,0,0)" xlink:href="#az"/><use transform="matrix(0.07407407407407408,0,0,0.07407407407407408,19.185185185185187,0)" xlink:href="#as"/><use transform="matrix(0.07407407407407408,0,0,0.07407407407407408,34,0)" xlink:href="#aY"/><use transform="matrix(0.07407407407407408,0,0,0.07407407407407408,47.33333333333334,0)" xlink:href="#aQ"/><use transform="matrix(0.07407407407407408,0,0,0.07407407407407408,53.18518518518519,0)" xlink:href="#aO"/><use transform="matrix(0.07407407407407408,0,0,0.07407407407407408,66.51851851851853,0)" xlink:href="#as"/></g><path d="M205 0l-28-72H64L36 0H1l101-248h38L239 0h-34zm-38-99l-47-123c-12 45-31 82-46 123h93" id="aZ"/><g id="n"><use transform="matrix(0.06172839506172839,0,0,0.06172839506172839,0,0)" xlink:href="#az"/><use transform="matrix(0.06172839506172839,0,0,0.06172839506172839,15.987654320987653,0)" xlink:href="#aZ"/><use transform="matrix(0.06172839506172839,0,0,0.06172839506172839,30.80246913580247,0)" xlink:href="#aT"/></g><path d="M140-251c81 0 123 46 123 126C263-46 219 4 140 4 59 4 17-45 17-125s42-126 123-126zm0 227c63 0 89-41 89-101s-29-99-89-99c-61 0-89 39-89 99S79-25 140-24" id="ba"/><g id="o"><use transform="matrix(0.06172839506172839,0,0,0.06172839506172839,0,0)" xlink:href="#aM"/><use transform="matrix(0.06172839506172839,0,0,0.06172839506172839,17.28395061728395,0)" xlink:href="#aT"/><use transform="matrix(0.06172839506172839,0,0,0.06172839506172839,32.09876543209876,0)" xlink:href="#au"/><use transform="matrix(0.06172839506172839,0,0,0.06172839506172839,38.2716049382716,0)" xlink:href="#ba"/></g><path fill="#333" d="M275 0h-61l-44-196L126 0H64L0-248h53L97-49l45-199h58l43 199 44-199h52" id="bb"/><path fill="#333" d="M24-248c120-7 223 5 221 122C244-46 201 0 124 0H24v-248zM76-40c74 7 117-18 117-86 0-67-45-88-117-82v168" id="bc"/><g id="p"><use transform="matrix(0.04938271604938272,0,0,0.04938271604938272,0,0)" xlink:href="#aG"/><use transform="matrix(0.04938271604938272,0,0,0.04938271604938272,11.851851851851853,0)" xlink:href="#bb"/><use transform="matrix(0.04938271604938272,0,0,0.04938271604938272,28.592592592592595,0)" xlink:href="#bc"/></g><g id="q"><use transform="matrix(0.05925925925925927,0,0,0.05925925925925927,0,0)" xlink:href="#aT"/><use transform="matrix(0.05925925925925927,0,0,0.05925925925925927,14.222222222222225,0)" xlink:href="#at"/><use transform="matrix(0.05925925925925927,0,0,0.05925925925925927,21.27407407407408,0)" xlink:href="#aS"/><use transform="matrix(0.05925925925925927,0,0,0.05925925925925927,33.125925925925934,0)" xlink:href="#aO"/><use transform="matrix(0.05925925925925927,0,0,0.05925925925925927,43.7925925925926,0)" xlink:href="#as"/><use transform="matrix(0.05925925925925927,0,0,0.05925925925925927,55.64444444444445,0)" xlink:href="#ar"/><use transform="matrix(0.05925925925925927,0,0,0.05925925925925927,66.31111111111112,0)" xlink:href="#ar"/><use transform="matrix(0.05925925925925927,0,0,0.05925925925925927,76.97777777777779,0)" xlink:href="#as"/><use transform="matrix(0.05925925925925927,0,0,0.05925925925925927,88.82962962962964,0)" xlink:href="#ar"/></g><path d="M210-169c-67 3-38 105-44 169h-31v-121c0-29-5-50-35-48C34-165 62-65 56 0H25l-1-190h30c1 10-1 24 2 32 10-44 99-50 107 0 11-21 27-35 58-36 85-2 47 119 55 194h-31v-121c0-29-5-49-35-48" id="bd"/><path d="M85-194c31 0 48 13 60 33l-1-100h32l1 261h-30c-2-10 0-23-3-31C134-8 116 4 85 4 32 4 16-35 15-94c0-66 23-100 70-100zm9 24c-40 0-46 34-46 75 0 40 6 74 45 74 42 0 51-32 51-76 0-42-9-74-50-73" id="be"/><g id="r"><use transform="matrix(0.05925925925925927,0,0,0.05925925925925927,0,0)" xlink:href="#aO"/><use transform="matrix(0.05925925925925927,0,0,0.05925925925925927,10.666666666666668,0)" xlink:href="#aS"/><use transform="matrix(0.05925925925925927,0,0,0.05925925925925927,22.51851851851852,0)" xlink:href="#bd"/><use transform="matrix(0.05925925925925927,0,0,0.05925925925925927,40.23703703703704,0)" xlink:href="#bd"/><use transform="matrix(0.05925925925925927,0,0,0.05925925925925927,57.95555555555556,0)" xlink:href="#aW"/><use transform="matrix(0.05925925925925927,0,0,0.05925925925925927,69.80740740740741,0)" xlink:href="#av"/><use transform="matrix(0.05925925925925927,0,0,0.05925925925925927,81.65925925925926,0)" xlink:href="#be"/><use transform="matrix(0.05925925925925927,0,0,0.05925925925925927,93.5111111111111,0)" xlink:href="#ar"/></g><path d="M16-82v-28h88v28H16" id="bf"/><use transform="matrix(0.05925925925925927,0,0,0.05925925925925927,0,0)" xlink:href="#bf" id="s"/><g id="t"><use transform="matrix(0.05925925925925927,0,0,0.05925925925925927,0,0)" xlink:href="#at"/><use transform="matrix(0.05925925925925927,0,0,0.05925925925925927,7.051851851851853,0)" xlink:href="#as"/><use transform="matrix(0.05925925925925927,0,0,0.05925925925925927,18.903703703703705,0)" xlink:href="#aW"/><use transform="matrix(0.05925925925925927,0,0,0.05925925925925927,30.75555555555556,0)" xlink:href="#be"/><use transform="matrix(0.05925925925925927,0,0,0.05925925925925927,42.607407407407415,0)" xlink:href="#aQ"/><use transform="matrix(0.05925925925925927,0,0,0.05925925925925927,47.2888888888889,0)" xlink:href="#av"/><use transform="matrix(0.05925925925925927,0,0,0.05925925925925927,59.14074074074075,0)" xlink:href="#aX"/></g><path d="M179-190L93 31C79 59 56 82 12 73V49c39 6 53-20 64-50L1-190h34L92-34l54-156h33" id="bg"/><g id="u"><use transform="matrix(0.05925925925925927,0,0,0.05925925925925927,0,0)" xlink:href="#bd"/><use transform="matrix(0.05925925925925927,0,0,0.05925925925925927,17.718518518518522,0)" xlink:href="#as"/><use transform="matrix(0.05925925925925927,0,0,0.05925925925925927,29.570370370370377,0)" xlink:href="#bd"/><use transform="matrix(0.05925925925925927,0,0,0.05925925925925927,47.2888888888889,0)" xlink:href="#aS"/><use transform="matrix(0.05925925925925927,0,0,0.05925925925925927,59.14074074074075,0)" xlink:href="#at"/><use transform="matrix(0.05925925925925927,0,0,0.05925925925925927,66.1925925925926,0)" xlink:href="#bg"/></g><g id="v"><use transform="matrix(0.05925925925925927,0,0,0.05925925925925927,0,0)" xlink:href="#ar"/><use transform="matrix(0.05925925925925927,0,0,0.05925925925925927,10.666666666666668,0)" xlink:href="#as"/><use transform="matrix(0.05925925925925927,0,0,0.05925925925925927,22.51851851851852,0)" xlink:href="#ay"/><use transform="matrix(0.05925925925925927,0,0,0.05925925925925927,28.444444444444446,0)" xlink:href="#ay"/><use transform="matrix(0.05925925925925927,0,0,0.05925925925925927,34.370370370370374,0)" xlink:href="#aQ"/><use transform="matrix(0.05925925925925927,0,0,0.05925925925925927,39.05185185185186,0)" xlink:href="#av"/><use transform="matrix(0.05925925925925927,0,0,0.05925925925925927,50.90370370370371,0)" xlink:href="#aX"/></g><path d="M115-194c53 0 69 39 70 98 0 66-23 100-70 100C84 3 66-7 56-30L54 0H23l1-261h32v101c10-23 28-34 59-34zm-8 174c40 0 45-34 45-75 0-40-5-75-45-74-42 0-51 32-51 76 0 43 10 73 51 73" id="bh"/><path d="M143 0L79-87 56-68V0H24v-261h32v163l83-92h37l-77 82L181 0h-38" id="bi"/><g id="w"><use transform="matrix(0.05925925925925927,0,0,0.05925925925925927,0,0)" xlink:href="#bh"/><use transform="matrix(0.05925925925925927,0,0,0.05925925925925927,11.851851851851853,0)" xlink:href="#at"/><use transform="matrix(0.05925925925925927,0,0,0.05925925925925927,18.903703703703705,0)" xlink:href="#as"/><use transform="matrix(0.05925925925925927,0,0,0.05925925925925927,30.75555555555556,0)" xlink:href="#aW"/><use transform="matrix(0.05925925925925927,0,0,0.05925925925925927,42.607407407407415,0)" xlink:href="#bi"/><use transform="matrix(0.05925925925925927,0,0,0.05925925925925927,53.27407407407408,0)" xlink:href="#aw"/><use transform="matrix(0.05925925925925927,0,0,0.05925925925925927,65.12592592592593,0)" xlink:href="#aS"/><use transform="matrix(0.05925925925925927,0,0,0.05925925925925927,76.97777777777777,0)" xlink:href="#aQ"/><use transform="matrix(0.05925925925925927,0,0,0.05925925925925927,81.65925925925926,0)" xlink:href="#av"/><use transform="matrix(0.05925925925925927,0,0,0.05925925925925927,93.5111111111111,0)" xlink:href="#ay"/><use transform="matrix(0.05925925925925927,0,0,0.05925925925925927,99.43703703703703,0)" xlink:href="#ar"/></g><g id="x"><use transform="matrix(0.05925925925925927,0,0,0.05925925925925927,0,0)" xlink:href="#ar"/><use transform="matrix(0.05925925925925927,0,0,0.05925925925925927,10.666666666666668,0)" xlink:href="#ay"/><use transform="matrix(0.05925925925925927,0,0,0.05925925925925927,16.592592592592595,0)" xlink:href="#as"/><use transform="matrix(0.05925925925925927,0,0,0.05925925925925927,28.44444444444445,0)" xlink:href="#aw"/><use transform="matrix(0.05925925925925927,0,0,0.05925925925925927,40.296296296296305,0)" xlink:href="#aw"/><use transform="matrix(0.05925925925925927,0,0,0.05925925925925927,52.14814814814816,0)" xlink:href="#aQ"/><use transform="matrix(0.05925925925925927,0,0,0.05925925925925927,56.82962962962964,0)" xlink:href="#av"/><use transform="matrix(0.05925925925925927,0,0,0.05925925925925927,68.6814814814815,0)" xlink:href="#aX"/></g><path d="M106-169C34-169 62-67 57 0H25v-261h32l-1 103c12-21 28-36 61-36 89 0 53 116 60 194h-32v-121c2-32-8-49-39-48" id="bj"/><g id="y"><use transform="matrix(0.05925925925925927,0,0,0.05925925925925927,0,0)" xlink:href="#ay"/><use transform="matrix(0.05925925925925927,0,0,0.05925925925925927,5.9259259259259265,0)" xlink:href="#bj"/><use transform="matrix(0.05925925925925927,0,0,0.05925925925925927,17.77777777777778,0)" xlink:href="#at"/><use transform="matrix(0.05925925925925927,0,0,0.05925925925925927,24.829629629629633,0)" xlink:href="#aS"/><use transform="matrix(0.05925925925925927,0,0,0.05925925925925927,36.681481481481484,0)" xlink:href="#ax"/><use transform="matrix(0.05925925925925927,0,0,0.05925925925925927,48.53333333333334,0)" xlink:href="#aX"/><use transform="matrix(0.05925925925925927,0,0,0.05925925925925927,60.38518518518519,0)" xlink:href="#bj"/></g><g id="z"><use transform="matrix(0.05925925925925927,0,0,0.05925925925925927,0,0)" xlink:href="#aO"/><use transform="matrix(0.05925925925925927,0,0,0.05925925925925927,10.666666666666668,0)" xlink:href="#aS"/><use transform="matrix(0.05925925925925927,0,0,0.05925925925925927,22.51851851851852,0)" xlink:href="#be"/><use transform="matrix(0.05925925925925927,0,0,0.05925925925925927,34.370370370370374,0)" xlink:href="#as"/></g><path d="M185-189c-5-48-123-54-124 2 14 75 158 14 163 119 3 78-121 87-175 55-17-10-28-26-33-46l33-7c5 56 141 63 141-1 0-78-155-14-162-118-5-82 145-84 179-34 5 7 8 16 11 25" id="bk"/><g id="B"><use transform="matrix(0.05925925925925927,0,0,0.05925925925925927,0,0)" xlink:href="#bk"/><use transform="matrix(0.05925925925925927,0,0,0.05925925925925927,14.222222222222225,0)" xlink:href="#as"/><use transform="matrix(0.05925925925925927,0,0,0.05925925925925927,26.074074074074076,0)" xlink:href="#av"/><use transform="matrix(0.05925925925925927,0,0,0.05925925925925927,37.92592592592593,0)" xlink:href="#be"/><use transform="matrix(0.05925925925925927,0,0,0.05925925925925927,49.777777777777786,0)" xlink:href="#ar"/></g><g id="C"><use transform="matrix(0.05925925925925927,0,0,0.05925925925925927,0,0)" xlink:href="#bh"/><use transform="matrix(0.05925925925925927,0,0,0.05925925925925927,11.851851851851853,0)" xlink:href="#aW"/><use transform="matrix(0.05925925925925927,0,0,0.05925925925925927,23.703703703703706,0)" xlink:href="#aO"/><use transform="matrix(0.05925925925925927,0,0,0.05925925925925927,34.370370370370374,0)" xlink:href="#bi"/></g><g id="D"><use transform="matrix(0.05925925925925927,0,0,0.05925925925925927,0,0)" xlink:href="#at"/><use transform="matrix(0.05925925925925927,0,0,0.05925925925925927,7.051851851851853,0)" xlink:href="#as"/><use transform="matrix(0.05925925925925927,0,0,0.05925925925925927,18.903703703703705,0)" xlink:href="#ar"/><use transform="matrix(0.05925925925925927,0,0,0.05925925925925927,29.570370370370373,0)" xlink:href="#aw"/><use transform="matrix(0.05925925925925927,0,0,0.05925925925925927,41.422222222222224,0)" xlink:href="#aS"/><use transform="matrix(0.05925925925925927,0,0,0.05925925925925927,53.27407407407408,0)" xlink:href="#av"/><use transform="matrix(0.05925925925925927,0,0,0.05925925925925927,65.12592592592593,0)" xlink:href="#ar"/><use transform="matrix(0.05925925925925927,0,0,0.05925925925925927,75.7925925925926,0)" xlink:href="#as"/><use transform="matrix(0.05925925925925927,0,0,0.05925925925925927,87.64444444444445,0)" xlink:href="#ar"/></g><path d="M233-177c-1 41-23 64-60 70L243 0h-38l-65-103H63V0H30v-248c88 3 205-21 203 71zM63-129c60-2 137 13 137-47 0-61-80-42-137-45v92" id="bl"/><g id="E"><use transform="matrix(0.07407407407407408,0,0,0.07407407407407408,0,0)" xlink:href="#bl"/><use transform="matrix(0.07407407407407408,0,0,0.07407407407407408,19.185185185185187,0)" xlink:href="#aW"/><use transform="matrix(0.07407407407407408,0,0,0.07407407407407408,34,0)" xlink:href="#ar"/><use transform="matrix(0.07407407407407408,0,0,0.07407407407407408,47.33333333333334,0)" xlink:href="#aw"/><use transform="matrix(0.07407407407407408,0,0,0.07407407407407408,62.14814814814816,0)" xlink:href="#bh"/><use transform="matrix(0.07407407407407408,0,0,0.07407407407407408,76.96296296296296,0)" xlink:href="#as"/><use transform="matrix(0.07407407407407408,0,0,0.07407407407407408,91.77777777777777,0)" xlink:href="#at"/><use transform="matrix(0.07407407407407408,0,0,0.07407407407407408,100.5925925925926,0)" xlink:href="#at"/><use transform="matrix(0.07407407407407408,0,0,0.07407407407407408,109.40740740740739,0)" xlink:href="#bg"/></g><g id="F"><use transform="matrix(0.07407407407407408,0,0,0.07407407407407408,0,0)" xlink:href="#aT"/><use transform="matrix(0.07407407407407408,0,0,0.07407407407407408,17.77777777777778,0)" xlink:href="#aQ"/></g><g id="G"><use transform="matrix(0.07407407407407408,0,0,0.07407407407407408,0,0)" xlink:href="#aT"/><use transform="matrix(0.07407407407407408,0,0,0.07407407407407408,17.77777777777778,0)" xlink:href="#aQ"/><use transform="matrix(0.07407407407407408,0,0,0.07407407407407408,23.629629629629633,0)" xlink:href="#aO"/><use transform="matrix(0.07407407407407408,0,0,0.07407407407407408,36.96296296296297,0)" xlink:href="#aS"/></g><path d="M266 0h-40l-56-210L115 0H75L2-248h35L96-30l15-64 43-154h32l59 218 59-218h35" id="bm"/><use transform="matrix(0.07407407407407408,0,0,0.07407407407407408,0,0)" xlink:href="#bm" id="H"/><g id="I"><use transform="matrix(0.06172839506172839,0,0,0.06172839506172839,0,0)" xlink:href="#ba"/><use transform="matrix(0.06172839506172839,0,0,0.06172839506172839,17.28395061728395,0)" xlink:href="#aw"/><use transform="matrix(0.06172839506172839,0,0,0.06172839506172839,29.629629629629626,0)" xlink:href="#as"/><use transform="matrix(0.06172839506172839,0,0,0.06172839506172839,41.9753086419753,0)" xlink:href="#av"/><use transform="matrix(0.06172839506172839,0,0,0.06172839506172839,54.32098765432098,0)" xlink:href="#ba"/><use transform="matrix(0.06172839506172839,0,0,0.06172839506172839,71.60493827160494,0)" xlink:href="#aU"/><use transform="matrix(0.06172839506172839,0,0,0.06172839506172839,87.5925925925926,0)" xlink:href="#az"/></g><g id="J"><use transform="matrix(0.04938271604938272,0,0,0.04938271604938272,0,0)" xlink:href="#aM"/><use transform="matrix(0.04938271604938272,0,0,0.04938271604938272,13.827160493827162,0)" xlink:href="#az"/><use transform="matrix(0.04938271604938272,0,0,0.04938271604938272,26.617283950617285,0)" xlink:href="#aN"/></g><g id="K"><use transform="matrix(0.04938271604938272,0,0,0.04938271604938272,0,0)" xlink:href="#ar"/><use transform="matrix(0.04938271604938272,0,0,0.04938271604938272,8.88888888888889,0)" xlink:href="#as"/><use transform="matrix(0.04938271604938272,0,0,0.04938271604938272,18.765432098765434,0)" xlink:href="#at"/><use transform="matrix(0.04938271604938272,0,0,0.04938271604938272,24.641975308641978,0)" xlink:href="#aY"/><use transform="matrix(0.04938271604938272,0,0,0.04938271604938272,33.53086419753087,0)" xlink:href="#as"/><use transform="matrix(0.04938271604938272,0,0,0.04938271604938272,43.40740740740741,0)" xlink:href="#at"/></g><path fill="#333" d="M212-179c-10-28-35-45-73-45-59 0-87 40-87 99 0 60 29 101 89 101 43 0 62-24 78-52l27 14C228-24 195 4 139 4 59 4 22-46 18-125c-6-104 99-153 187-111 19 9 31 26 39 46" id="bn"/><path fill="#333" d="M240 0l2-218c-23 76-54 145-80 218h-23L58-218 59 0H30v-248h44l77 211c21-75 51-140 76-211h43V0h-30" id="bo"/><path fill="#333" d="M185-189c-5-48-123-54-124 2 14 75 158 14 163 119 3 78-121 87-175 55-17-10-28-26-33-46l33-7c5 56 141 63 141-1 0-78-155-14-162-118-5-82 145-84 179-34 5 7 8 16 11 25" id="bp"/><path fill="#333" d="M33 0v-248h34V0H33" id="bq"/><path fill="#333" d="M16-82v-28h88v28H16" id="br"/><path fill="#333" d="M30-248c118-7 216 8 213 122C240-48 200 0 122 0H30v-248zM63-27c89 8 146-16 146-99s-60-101-146-95v194" id="bs"/><path fill="#333" d="M205 0l-28-72H64L36 0H1l101-248h38L239 0h-34zm-38-99l-47-123c-12 45-31 82-46 123h93" id="bt"/><path fill="#333" d="M30-248c87 1 191-15 191 75 0 78-77 80-158 76V0H30v-248zm33 125c57 0 124 11 124-50 0-59-68-47-124-48v98" id="bu"/><g id="L"><use transform="matrix(0.04938271604938272,0,0,0.04938271604938272,0,0)" xlink:href="#bn"/><use transform="matrix(0.04938271604938272,0,0,0.04938271604938272,12.790123456790125,0)" xlink:href="#bo"/><use transform="matrix(0.04938271604938272,0,0,0.04938271604938272,27.555555555555557,0)" xlink:href="#bp"/><use transform="matrix(0.04938271604938272,0,0,0.04938271604938272,39.40740740740741,0)" xlink:href="#bq"/><use transform="matrix(0.04938271604938272,0,0,0.04938271604938272,44.345679012345684,0)" xlink:href="#bp"/><use transform="matrix(0.04938271604938272,0,0,0.04938271604938272,56.19753086419754,0)" xlink:href="#br"/><use transform="matrix(0.04938271604938272,0,0,0.04938271604938272,62.074074074074076,0)" xlink:href="#bs"/><use transform="matrix(0.04938271604938272,0,0,0.04938271604938272,74.8641975308642,0)" xlink:href="#bt"/><use transform="matrix(0.04938271604938272,0,0,0.04938271604938272,86.71604938271605,0)" xlink:href="#bu"/></g><path fill="#333" d="M100-194c62-1 85 37 85 99 1 63-27 99-86 99S16-35 15-95c0-66 28-99 85-99zM99-20c44 1 53-31 53-75 0-43-8-75-51-75s-53 32-53 75 10 74 51 75" id="bv"/><path fill="#333" d="M108 0H70L1-190h34L89-25l56-165h34" id="bw"/><path fill="#333" d="M100-194c63 0 86 42 84 106H49c0 40 14 67 53 68 26 1 43-12 49-29l28 8c-11 28-37 45-77 45C44 4 14-33 15-96c1-61 26-98 85-98zm52 81c6-60-76-77-97-28-3 7-6 17-6 28h103" id="bx"/><path fill="#333" d="M114-163C36-179 61-72 57 0H25l-1-190h30c1 12-1 29 2 39 6-27 23-49 58-41v29" id="by"/><g id="M"><use transform="matrix(0.04938271604938272,0,0,0.04938271604938272,0,0)" xlink:href="#bv"/><use transform="matrix(0.04938271604938272,0,0,0.04938271604938272,9.876543209876544,0)" xlink:href="#bw"/><use transform="matrix(0.04938271604938272,0,0,0.04938271604938272,18.765432098765434,0)" xlink:href="#bx"/><use transform="matrix(0.04938271604938272,0,0,0.04938271604938272,28.641975308641978,0)" xlink:href="#by"/></g><path fill="#333" d="M266 0h-40l-56-210L115 0H75L2-248h35L96-30l15-64 43-154h32l59 218 59-218h35" id="bz"/><g id="N"><use transform="matrix(0.04938271604938272,0,0,0.04938271604938272,0,0)" xlink:href="#bp"/><use transform="matrix(0.04938271604938272,0,0,0.04938271604938272,11.851851851851853,0)" xlink:href="#bz"/><use transform="matrix(0.04938271604938272,0,0,0.04938271604938272,28.592592592592595,0)" xlink:href="#bs"/></g><path d="M137-103V0h-34v-103L8-248h37l75 118 75-118h37" id="bA"/><path d="M155-56V0h-30v-56H8v-25l114-167h33v167h35v25h-35zm-30-156c-27 46-58 90-88 131h88v-131" id="bB"/><path d="M126-127c33 6 58 20 58 59 0 88-139 92-164 29-3-8-5-16-6-25l32-3c6 27 21 44 54 44 32 0 52-15 52-46 0-38-36-46-79-43v-28c39 1 72-4 72-42 0-27-17-43-46-43-28 0-47 15-49 41l-32-3c6-42 35-63 81-64 48-1 79 21 79 65 0 36-21 52-52 59" id="bC"/><path d="M99-251c64 0 84 50 84 122C183-37 130 33 47-8c-14-7-20-23-25-40l30-5c6 39 69 39 84 7 9-19 16-44 16-74-10 22-31 35-62 35-49 0-73-33-73-83 0-54 28-83 82-83zm-1 141c31-1 51-18 51-49 0-36-14-67-51-67-34 0-49 23-49 58 0 34 15 58 49 58" id="bD"/><g id="O"><use transform="matrix(0.05925925925925927,0,0,0.05925925925925927,0,0)" xlink:href="#aU"/><use transform="matrix(0.05925925925925927,0,0,0.05925925925925927,15.34814814814815,0)" xlink:href="#bA"/><use transform="matrix(0.05925925925925927,0,0,0.05925925925925927,29.570370370370377,0)" xlink:href="#bm"/><use transform="matrix(0.05925925925925927,0,0,0.05925925925925927,49.65925925925927,0)" xlink:href="#bB"/><use transform="matrix(0.05925925925925927,0,0,0.05925925925925927,61.51111111111112,0)" xlink:href="#bC"/><use transform="matrix(0.05925925925925927,0,0,0.05925925925925927,73.36296296296298,0)" xlink:href="#bB"/><use transform="matrix(0.05925925925925927,0,0,0.05925925925925927,85.21481481481483,0)" xlink:href="#bC"/><use transform="matrix(0.05925925925925927,0,0,0.05925925925925927,97.06666666666668,0)" xlink:href="#bD"/></g><g id="P"><use transform="matrix(0.06172839506172839,0,0,0.06172839506172839,0,0)" xlink:href="#bk"/><use transform="matrix(0.06172839506172839,0,0,0.06172839506172839,14.814814814814813,0)" xlink:href="#aQ"/><use transform="matrix(0.06172839506172839,0,0,0.06172839506172839,19.691358024691354,0)" xlink:href="#aP"/><use transform="matrix(0.06172839506172839,0,0,0.06172839506172839,24.5679012345679,0)" xlink:href="#aP"/><use transform="matrix(0.06172839506172839,0,0,0.06172839506172839,29.444444444444443,0)" xlink:href="#bg"/></g><g id="Q"><use transform="matrix(0.06172839506172839,0,0,0.06172839506172839,0,0)" xlink:href="#bk"/><use transform="matrix(0.06172839506172839,0,0,0.06172839506172839,14.814814814814813,0)" xlink:href="#aW"/><use transform="matrix(0.06172839506172839,0,0,0.06172839506172839,27.160493827160494,0)" xlink:href="#ax"/><use transform="matrix(0.06172839506172839,0,0,0.06172839506172839,39.50617283950617,0)" xlink:href="#ar"/><use transform="matrix(0.06172839506172839,0,0,0.06172839506172839,50.61728395061728,0)" xlink:href="#aW"/><use transform="matrix(0.06172839506172839,0,0,0.06172839506172839,62.962962962962955,0)" xlink:href="#aX"/><use transform="matrix(0.06172839506172839,0,0,0.06172839506172839,75.30864197530863,0)" xlink:href="#as"/></g><g id="R"><use transform="matrix(0.06172839506172839,0,0,0.06172839506172839,0,0)" xlink:href="#aU"/><use transform="matrix(0.06172839506172839,0,0,0.06172839506172839,15.987654320987653,0)" xlink:href="#aS"/><use transform="matrix(0.06172839506172839,0,0,0.06172839506172839,28.333333333333332,0)" xlink:href="#be"/><use transform="matrix(0.06172839506172839,0,0,0.06172839506172839,40.67901234567901,0)" xlink:href="#as"/></g><path d="M101-234c-31-9-42 10-38 44h38v23H63V0H32v-167H5v-23h27c-7-52 17-82 69-68v24" id="bE"/><g id="S"><use transform="matrix(0.05925925925925927,0,0,0.05925925925925927,0,0)" xlink:href="#bm"/><use transform="matrix(0.05925925925925927,0,0,0.05925925925925927,20.088888888888892,0)" xlink:href="#aQ"/><use transform="matrix(0.05925925925925927,0,0,0.05925925925925927,24.770370370370372,0)" xlink:href="#bE"/><use transform="matrix(0.05925925925925927,0,0,0.05925925925925927,30.6962962962963,0)" xlink:href="#aQ"/></g><g id="T"><use transform="matrix(0.05,0,0,0.05,0,0)" xlink:href="#bk"/><use transform="matrix(0.05,0,0,0.05,12,0)" xlink:href="#aS"/><use transform="matrix(0.05,0,0,0.05,22,0)" xlink:href="#aO"/><use transform="matrix(0.05,0,0,0.05,31,0)" xlink:href="#bi"/><use transform="matrix(0.05,0,0,0.05,40,0)" xlink:href="#as"/><use transform="matrix(0.05,0,0,0.05,50,0)" xlink:href="#ay"/></g><g id="U"><use transform="matrix(0.05,0,0,0.05,0,0)" xlink:href="#aO"/><use transform="matrix(0.05,0,0,0.05,9,0)" xlink:href="#aS"/><use transform="matrix(0.05,0,0,0.05,19,0)" xlink:href="#av"/><use transform="matrix(0.05,0,0,0.05,29,0)" xlink:href="#av"/><use transform="matrix(0.05,0,0,0.05,39,0)" xlink:href="#as"/><use transform="matrix(0.05,0,0,0.05,49,0)" xlink:href="#aO"/><use transform="matrix(0.05,0,0,0.05,58,0)" xlink:href="#ay"/><use transform="matrix(0.05,0,0,0.05,63,0)" xlink:href="#aQ"/><use transform="matrix(0.05,0,0,0.05,66.95,0)" xlink:href="#aS"/><use transform="matrix(0.05,0,0,0.05,76.95,0)" xlink:href="#av"/></g><g id="V"><use transform="matrix(0.1111111111111111,0,0,0.1111111111111111,0,0)" xlink:href="#aT"/><use transform="matrix(0.1111111111111111,0,0,0.1111111111111111,26.666666666666664,0)" xlink:href="#aQ"/><use transform="matrix(0.1111111111111111,0,0,0.1111111111111111,35.44444444444444,0)" xlink:href="#aO"/><use transform="matrix(0.1111111111111111,0,0,0.1111111111111111,55.44444444444444,0)" xlink:href="#aS"/></g><use transform="matrix(0.1111111111111111,0,0,0.1111111111111111,0,0)" xlink:href="#bm" id="W"/><g id="X"><use transform="matrix(0.1111111111111111,0,0,0.1111111111111111,0,0)" xlink:href="#aW"/><use transform="matrix(0.1111111111111111,0,0,0.1111111111111111,22.22222222222222,0)" xlink:href="#ar"/></g><g id="Y"><use transform="matrix(0.1111111111111111,0,0,0.1111111111111111,0,0)" xlink:href="#aM"/><use transform="matrix(0.1111111111111111,0,0,0.1111111111111111,31.11111111111111,0)" xlink:href="#az"/><use transform="matrix(0.1111111111111111,0,0,0.1111111111111111,59.888888888888886,0)" xlink:href="#aN"/></g><g id="Z"><use transform="matrix(0.1111111111111111,0,0,0.1111111111111111,0,0)" xlink:href="#bk"/><use transform="matrix(0.1111111111111111,0,0,0.1111111111111111,26.666666666666664,0)" xlink:href="#as"/><use transform="matrix(0.1111111111111111,0,0,0.1111111111111111,48.888888888888886,0)" xlink:href="#at"/><use transform="matrix(0.1111111111111111,0,0,0.1111111111111111,62.11111111111111,0)" xlink:href="#aY"/><use transform="matrix(0.1111111111111111,0,0,0.1111111111111111,82.11111111111111,0)" xlink:href="#as"/><use transform="matrix(0.1111111111111111,0,0,0.1111111111111111,104.33333333333334,0)" xlink:href="#at"/></g><path d="M0 4l72-265h28L28 4H0" id="bF"/><g id="aa"><use transform="matrix(0.06172839506172839,0,0,0.06172839506172839,0,0)" xlink:href="#aT"/><use transform="matrix(0.06172839506172839,0,0,0.06172839506172839,14.814814814814813,0)" xlink:href="#aW"/><use transform="matrix(0.06172839506172839,0,0,0.06172839506172839,27.160493827160494,0)" xlink:href="#aO"/><use transform="matrix(0.06172839506172839,0,0,0.06172839506172839,38.27160493827161,0)" xlink:href="#bi"/><use transform="matrix(0.06172839506172839,0,0,0.06172839506172839,49.38271604938272,0)" xlink:href="#bF"/><use transform="matrix(0.06172839506172839,0,0,0.06172839506172839,55.555555555555564,0)" xlink:href="#aq"/><use transform="matrix(0.06172839506172839,0,0,0.06172839506172839,71.54320987654322,0)" xlink:href="#av"/><use transform="matrix(0.06172839506172839,0,0,0.06172839506172839,83.8888888888889,0)" xlink:href="#aw"/><use transform="matrix(0.06172839506172839,0,0,0.06172839506172839,96.23456790123458,0)" xlink:href="#aW"/><use transform="matrix(0.06172839506172839,0,0,0.06172839506172839,108.58024691358027,0)" xlink:href="#aO"/><use transform="matrix(0.06172839506172839,0,0,0.06172839506172839,119.69135802469138,0)" xlink:href="#bi"/></g><g id="ab"><use transform="matrix(0.06172839506172839,0,0,0.06172839506172839,0,0)" xlink:href="#aV"/><use transform="matrix(0.06172839506172839,0,0,0.06172839506172839,13.518518518518517,0)" xlink:href="#aU"/><use transform="matrix(0.06172839506172839,0,0,0.06172839506172839,29.50617283950617,0)" xlink:href="#aT"/><use transform="matrix(0.06172839506172839,0,0,0.06172839506172839,44.32098765432099,0)" xlink:href="#bF"/><use transform="matrix(0.06172839506172839,0,0,0.06172839506172839,50.49382716049383,0)" xlink:href="#au"/><use transform="matrix(0.06172839506172839,0,0,0.06172839506172839,56.66666666666667,0)" xlink:href="#aT"/></g><g id="ac"><use transform="matrix(0.06172839506172839,0,0,0.06172839506172839,0,0)" xlink:href="#aw"/><use transform="matrix(0.06172839506172839,0,0,0.06172839506172839,12.345679012345679,0)" xlink:href="#aW"/><use transform="matrix(0.06172839506172839,0,0,0.06172839506172839,24.691358024691358,0)" xlink:href="#aO"/><use transform="matrix(0.06172839506172839,0,0,0.06172839506172839,35.80246913580247,0)" xlink:href="#bi"/><use transform="matrix(0.06172839506172839,0,0,0.06172839506172839,46.91358024691358,0)" xlink:href="#as"/><use transform="matrix(0.06172839506172839,0,0,0.06172839506172839,59.25925925925926,0)" xlink:href="#ay"/><use transform="matrix(0.06172839506172839,0,0,0.06172839506172839,65.4320987654321,0)" xlink:href="#ar"/></g><g id="ad"><use transform="matrix(0.06172839506172839,0,0,0.06172839506172839,0,0)" xlink:href="#aV"/><use transform="matrix(0.06172839506172839,0,0,0.06172839506172839,12.716049382716047,0)" xlink:href="#at"/><use transform="matrix(0.06172839506172839,0,0,0.06172839506172839,20.061728395061728,0)" xlink:href="#aW"/><use transform="matrix(0.06172839506172839,0,0,0.06172839506172839,32.407407407407405,0)" xlink:href="#av"/><use transform="matrix(0.06172839506172839,0,0,0.06172839506172839,44.75308641975308,0)" xlink:href="#ar"/><use transform="matrix(0.06172839506172839,0,0,0.06172839506172839,55.86419753086419,0)" xlink:href="#aP"/><use transform="matrix(0.06172839506172839,0,0,0.06172839506172839,60.74074074074073,0)" xlink:href="#aW"/><use transform="matrix(0.06172839506172839,0,0,0.06172839506172839,73.08641975308642,0)" xlink:href="#ay"/><use transform="matrix(0.06172839506172839,0,0,0.06172839506172839,79.25925925925925,0)" xlink:href="#as"/></g><g id="ae"><use transform="matrix(0.06172839506172839,0,0,0.06172839506172839,0,0)" xlink:href="#aM"/><use transform="matrix(0.06172839506172839,0,0,0.06172839506172839,17.28395061728395,0)" xlink:href="#az"/><use transform="matrix(0.06172839506172839,0,0,0.06172839506172839,33.2716049382716,0)" xlink:href="#aN"/></g><g id="af"><use transform="matrix(0.06172839506172839,0,0,0.06172839506172839,0,0)" xlink:href="#bl"/><use transform="matrix(0.06172839506172839,0,0,0.06172839506172839,15.987654320987653,0)" xlink:href="#bk"/><use transform="matrix(0.06172839506172839,0,0,0.06172839506172839,30.80246913580247,0)" xlink:href="#aT"/></g><g id="ag"><use transform="matrix(0.06172839506172839,0,0,0.06172839506172839,0,0)" xlink:href="#aO"/><use transform="matrix(0.06172839506172839,0,0,0.06172839506172839,11.11111111111111,0)" xlink:href="#aS"/><use transform="matrix(0.06172839506172839,0,0,0.06172839506172839,23.45679012345679,0)" xlink:href="#bd"/><use transform="matrix(0.06172839506172839,0,0,0.06172839506172839,41.91358024691358,0)" xlink:href="#bd"/><use transform="matrix(0.06172839506172839,0,0,0.06172839506172839,60.37037037037037,0)" xlink:href="#aW"/><use transform="matrix(0.06172839506172839,0,0,0.06172839506172839,72.71604938271605,0)" xlink:href="#av"/><use transform="matrix(0.06172839506172839,0,0,0.06172839506172839,85.06172839506173,0)" xlink:href="#be"/><use transform="matrix(0.06172839506172839,0,0,0.06172839506172839,97.40740740740742,0)" xlink:href="#ar"/></g><g id="ah"><use transform="matrix(0.06172839506172839,0,0,0.06172839506172839,0,0)" xlink:href="#ay"/><use transform="matrix(0.06172839506172839,0,0,0.06172839506172839,6.172839506172839,0)" xlink:href="#aS"/></g><path d="M240 0l2-218c-23 76-54 145-80 218h-23L58-218 59 0H30v-248h44l77 211c21-75 51-140 76-211h43V0h-30" id="bG"/><g id="ai"><use transform="matrix(0.06172839506172839,0,0,0.06172839506172839,0,0)" xlink:href="#aU"/><use transform="matrix(0.06172839506172839,0,0,0.06172839506172839,15.987654320987653,0)" xlink:href="#bG"/><use transform="matrix(0.06172839506172839,0,0,0.06172839506172839,34.44444444444444,0)" xlink:href="#bk"/><use transform="matrix(0.06172839506172839,0,0,0.06172839506172839,49.25925925925925,0)" xlink:href="#au"/><use transform="matrix(0.06172839506172839,0,0,0.06172839506172839,55.432098765432094,0)" xlink:href="#bk"/><use transform="matrix(0.06172839506172839,0,0,0.06172839506172839,70.24691358024691,0)" xlink:href="#bf"/><use transform="matrix(0.06172839506172839,0,0,0.06172839506172839,77.5925925925926,0)" xlink:href="#az"/><use transform="matrix(0.06172839506172839,0,0,0.06172839506172839,93.58024691358025,0)" xlink:href="#aZ"/><use transform="matrix(0.06172839506172839,0,0,0.06172839506172839,108.39506172839506,0)" xlink:href="#aT"/></g><g id="aj"><use transform="matrix(0.06172839506172839,0,0,0.06172839506172839,0,0)" xlink:href="#aO"/><use transform="matrix(0.06172839506172839,0,0,0.06172839506172839,11.11111111111111,0)" xlink:href="#aS"/><use transform="matrix(0.06172839506172839,0,0,0.06172839506172839,23.45679012345679,0)" xlink:href="#bd"/><use transform="matrix(0.06172839506172839,0,0,0.06172839506172839,41.91358024691358,0)" xlink:href="#bd"/><use transform="matrix(0.06172839506172839,0,0,0.06172839506172839,60.37037037037037,0)" xlink:href="#aW"/><use transform="matrix(0.06172839506172839,0,0,0.06172839506172839,72.71604938271605,0)" xlink:href="#av"/><use transform="matrix(0.06172839506172839,0,0,0.06172839506172839,85.06172839506173,0)" xlink:href="#be"/><use transform="matrix(0.06172839506172839,0,0,0.06172839506172839,97.40740740740742,0)" xlink:href="#ar"/></g><g id="ak"><use transform="matrix(0.06172839506172839,0,0,0.06172839506172839,0,0)" xlink:href="#at"/><use transform="matrix(0.06172839506172839,0,0,0.06172839506172839,7.345679012345679,0)" xlink:href="#as"/><use transform="matrix(0.06172839506172839,0,0,0.06172839506172839,19.691358024691358,0)" xlink:href="#ar"/><use transform="matrix(0.06172839506172839,0,0,0.06172839506172839,30.80246913580247,0)" xlink:href="#aw"/><use transform="matrix(0.06172839506172839,0,0,0.06172839506172839,43.148148148148145,0)" xlink:href="#aS"/><use transform="matrix(0.06172839506172839,0,0,0.06172839506172839,55.49382716049382,0)" xlink:href="#av"/><use transform="matrix(0.06172839506172839,0,0,0.06172839506172839,67.8395061728395,0)" xlink:href="#ar"/><use transform="matrix(0.06172839506172839,0,0,0.06172839506172839,78.95061728395062,0)" xlink:href="#as"/></g><g id="al"><use transform="matrix(0.06172839506172839,0,0,0.06172839506172839,0,0)" xlink:href="#at"/><use transform="matrix(0.06172839506172839,0,0,0.06172839506172839,7.345679012345679,0)" xlink:href="#as"/><use transform="matrix(0.06172839506172839,0,0,0.06172839506172839,19.691358024691358,0)" xlink:href="#ar"/><use transform="matrix(0.06172839506172839,0,0,0.06172839506172839,30.80246913580247,0)" xlink:href="#aw"/><use transform="matrix(0.06172839506172839,0,0,0.06172839506172839,43.148148148148145,0)" xlink:href="#aS"/><use transform="matrix(0.06172839506172839,0,0,0.06172839506172839,55.49382716049382,0)" xlink:href="#av"/><use transform="matrix(0.06172839506172839,0,0,0.06172839506172839,67.8395061728395,0)" xlink:href="#ar"/><use transform="matrix(0.06172839506172839,0,0,0.06172839506172839,78.95061728395062,0)" xlink:href="#as"/></g><g id="am"><use transform="matrix(0.06172839506172839,0,0,0.06172839506172839,0,0)" xlink:href="#aT"/><use transform="matrix(0.06172839506172839,0,0,0.06172839506172839,14.814814814814813,0)" xlink:href="#at"/><use transform="matrix(0.06172839506172839,0,0,0.06172839506172839,22.160493827160494,0)" xlink:href="#aS"/><use transform="matrix(0.06172839506172839,0,0,0.06172839506172839,34.50617283950617,0)" xlink:href="#aO"/><use transform="matrix(0.06172839506172839,0,0,0.06172839506172839,45.61728395061728,0)" xlink:href="#as"/><use transform="matrix(0.06172839506172839,0,0,0.06172839506172839,57.962962962962955,0)" xlink:href="#ar"/><use transform="matrix(0.06172839506172839,0,0,0.06172839506172839,69.07407407407406,0)" xlink:href="#ar"/></g><path d="M-5 72V49h209v23H-5" id="bH"/><g id="an"><use transform="matrix(0.06172839506172839,0,0,0.06172839506172839,0,0)" xlink:href="#aU"/><use transform="matrix(0.06172839506172839,0,0,0.06172839506172839,15.987654320987653,0)" xlink:href="#bG"/><use transform="matrix(0.06172839506172839,0,0,0.06172839506172839,34.44444444444444,0)" xlink:href="#bk"/><use transform="matrix(0.06172839506172839,0,0,0.06172839506172839,49.25925925925925,0)" xlink:href="#au"/><use transform="matrix(0.06172839506172839,0,0,0.06172839506172839,55.432098765432094,0)" xlink:href="#bk"/><use transform="matrix(0.06172839506172839,0,0,0.06172839506172839,70.24691358024691,0)" xlink:href="#bH"/><use transform="matrix(0.06172839506172839,0,0,0.06172839506172839,82.5925925925926,0)" xlink:href="#az"/><use transform="matrix(0.06172839506172839,0,0,0.06172839506172839,98.58024691358025,0)" xlink:href="#aZ"/><use transform="matrix(0.06172839506172839,0,0,0.06172839506172839,113.39506172839506,0)" xlink:href="#aT"/></g><g id="ao"><use transform="matrix(0.06172839506172839,0,0,0.06172839506172839,0,0)" xlink:href="#aU"/><use transform="matrix(0.06172839506172839,0,0,0.06172839506172839,15.987654320987653,0)" xlink:href="#aS"/><use transform="matrix(0.06172839506172839,0,0,0.06172839506172839,28.333333333333332,0)" xlink:href="#bd"/><use transform="matrix(0.06172839506172839,0,0,0.06172839506172839,46.79012345679012,0)" xlink:href="#bd"/><use transform="matrix(0.06172839506172839,0,0,0.06172839506172839,65.24691358024691,0)" xlink:href="#aW"/><use transform="matrix(0.06172839506172839,0,0,0.06172839506172839,77.5925925925926,0)" xlink:href="#av"/><use transform="matrix(0.06172839506172839,0,0,0.06172839506172839,89.93827160493828,0)" xlink:href="#be"/></g><g id="ap"><use transform="matrix(0.06172839506172839,0,0,0.06172839506172839,0,0)" xlink:href="#bl"/><use transform="matrix(0.06172839506172839,0,0,0.06172839506172839,15.987654320987653,0)" xlink:href="#as"/><use transform="matrix(0.06172839506172839,0,0,0.06172839506172839,28.333333333333332,0)" xlink:href="#ar"/><use transform="matrix(0.06172839506172839,0,0,0.06172839506172839,39.44444444444444,0)" xlink:href="#aw"/><use transform="matrix(0.06172839506172839,0,0,0.06172839506172839,51.79012345679012,0)" xlink:href="#aS"/><use transform="matrix(0.06172839506172839,0,0,0.06172839506172839,64.1358024691358,0)" xlink:href="#av"/><use transform="matrix(0.06172839506172839,0,0,0.06172839506172839,76.48148148148148,0)" xlink:href="#ar"/><use transform="matrix(0.06172839506172839,0,0,0.06172839506172839,87.5925925925926,0)" xlink:href="#as"/></g></defs></g></svg>