<svg xmlns="http://www.w3.org/2000/svg" xmlns:xlink="http://www.w3.org/1999/xlink" xmlns:lucid="lucid" width="3645.99" height="942"><g transform="translate(341.66370477165356 -331.6666666666663)" lucid:page-tab-id="0_0"><path d="M-500 0h4000v1500H-500z" fill="#fff"/><path d="M-320 358.67a6 6 0 0 1 6-6h3591.33a6 6 0 0 1 6 6v888a6 6 0 0 1-6 6H-314a6 6 0 0 1-6-6z" fill="#fff"/><path d="M-294.05 352.67h19.95m9.98 0h19.95m9.98 0h19.96m9.98 0h19.95m9.96 0h19.96m9.97 0h19.94m9.98 0h19.95m9.98 0h19.95m9.97 0h19.96m9.97 0h19.95m9.98 0h19.95m9.98 0H55.1m9.98 0h19.96m9.97 0h19.96m9.98 0h19.95m9.97 0h19.95m9.97 0h19.95m9.97 0h19.96m9.97 0h19.95m9.98 0h19.95m9.98 0h19.96m9.97 0h19.96m9.96 0h19.95m10 0h19.94m9.98 0h19.95m9.97 0h19.96m9.97 0h19.95m9.98 0h19.95m9.98 0h19.95m9.98 0h19.95m9.98 0h19.96m9.97 0h19.96m9.98 0h19.95m9.97 0h19.95m9.98 0h19.95m9.97 0h19.95m9.98 0h19.95m9.98 0h19.95m9.98 0h19.96m9.97 0h19.96m9.96 0H923m10 0h19.94m9.98 0h19.95m9.97 0h19.96m9.97 0h19.95m9.98 0h19.95m9.98 0h19.95m9.98 0h19.95m9.98 0h19.95m9.98 0h19.96m9.98 0h19.95m9.97 0h19.95m9.97 0h19.95m9.97 0h19.95m9.98 0H1342m9.98 0h19.95m9.97 0h19.96m9.97 0h19.95m9.98 0h19.95m10 0h19.94m9.98 0h19.95m9.97 0h19.95m9.97 0h19.95m9.98 0h19.95m9.98 0h19.95m9.97 0h19.96m9.98 0h19.95m9.98 0h19.96m9.98 0H1761m9.96 0h19.96m9.97 0h19.94m9.98 0h19.95m9.98 0h19.95m9.98 0h19.95m9.97 0h19.96m9.97 0h19.95m9.98 0h19.95m10 0h19.94m9.98 0h19.95m9.97 0h19.95m9.97 0h19.95m9.98 0h19.95m9.98 0h19.95m9.97 0h19.96m9.98 0h19.95m9.98 0h19.96m9.98 0h19.95m9.96 0h19.96m9.97 0h19.94m9.98 0h19.95m9.98 0h19.95m9.97 0h19.96m9.97 0h19.95m9.98 0h19.95m9.98 0h19.95m10 0h19.94m9.97 0h19.97m9.97 0h19.95m9.97 0h19.95m9.98 0h19.95m9.97 0h19.96m9.97 0h19.95m9.98 0h19.95m9.98 0h19.96m9.98 0h19.95m9.96 0h19.95m10 0h19.94m9.98 0h19.95m9.98 0h19.95m9.97 0h19.96m9.97 0h19.95m9.98 0h19.95m9.98 0h19.95m9.98 0h19.96m9.97 0h19.97m9.97 0h19.95m9.97 0h19.95m9.98 0h19.95m9.97 0h19.96m9.97 0h9.98l.94.07.9.22.88.36.8.5.72.6.6.72.5.8.36.87.22.93.08.94v9.86m0 9.87v19.73m0 9.87v19.73m0 9.87v19.73m0 9.87v19.73m0 9.87v19.73m0 9.87v19.73m0 9.87v19.73m0 9.87v19.73m0 9.87v19.73m0 9.87v19.73m0 9.87v19.73m0 9.87v19.73m0 9.87v19.73m0 9.87v19.73m0 9.87v19.73m0 9.87v19.73m0 9.87v19.73m0 9.87v19.73m0 9.87v19.73m0 9.87v19.73m0 9.87v19.73m0 9.87v19.73m0 9.87v19.73m0 9.87v19.73m0 9.87v19.73m0 9.87v19.73m0 9.87v19.73m0 9.87v19.73m0 9.87v19.73m0 9.87v9.87l-.08.93-.22.92-.36.87-.5.8-.6.7-.72.62-.8.5-.87.35-.9.22-.95.07h-9.98m-9.97 0h-19.96m-9.97 0h-19.95m-9.98 0h-19.95m-9.98 0h-19.96m-9.97 0h-19.96m-9.96 0h-19.95m-10 0h-19.94m-9.98 0h-19.95m-9.98 0H2998m-9.97 0h-19.96m-9.97 0h-19.95m-9.98 0h-19.95m-9.98 0h-19.95m-10 0h-19.94m-9.97 0h-19.96m-9.98 0h-19.95m-9.97 0h-19.95m-9.98 0h-19.95m-9.97 0h-19.95m-9.98 0h-19.95m-9.98 0h-19.95m-9.98 0h-19.96m-9.97 0H2579m-9.96 0h-19.95m-10 0h-19.94m-9.98 0h-19.95m-9.97 0h-19.96m-9.97 0h-19.95m-9.98 0h-19.95m-9.98 0h-19.95m-9.98 0h-19.95m-9.98 0h-19.96m-9.97 0h-19.96m-9.98 0h-19.95m-9.97 0h-19.95m-9.97 0h-19.95m-9.97 0h-19.95m-9.98 0h-19.95m-9.98 0h-19.95m-9.98 0h-19.96m-9.97 0h-19.95m-9.98 0h-19.95m-10 0h-19.94m-9.98 0h-19.95m-9.97 0h-19.96m-9.97 0h-19.95m-9.98 0h-19.95m-9.98 0h-19.95m-9.97 0h-19.96m-9.98 0h-19.96m-9.97 0h-19.96m-9.98 0h-19.95m-9.97 0h-19.95m-9.97 0h-19.95m-9.97 0h-19.95m-9.98 0h-19.95m-9.98 0h-19.95m-9.98 0h-19.96m-9.97 0h-19.95m-9.98 0h-19.95m-10 0h-19.94m-9.98 0h-19.95m-9.97 0h-19.95m-9.97 0h-19.95m-9.98 0h-19.95m-9.98 0h-19.95m-9.97 0h-19.96m-9.98 0h-19.95m-9.98 0h-19.96m-9.98 0h-19.95m-9.97 0h-19.95m-9.97 0h-19.94m-9.98 0h-19.95m-9.98 0h-19.95m-9.98 0h-19.95m-9.97 0h-19.96m-9.97 0h-19.95m-9.98 0H933m-10 0h-19.94m-9.97 0H873.1m-9.97 0H843.2m-9.97 0h-19.95m-9.98 0h-19.95m-9.98 0h-19.95m-9.97 0H723.5m-9.98 0h-19.95m-9.98 0h-19.96m-9.98 0H633.7m-9.97 0H603.8m-9.97 0h-19.94m-9.98 0h-19.95m-9.98 0H514m-9.98 0h-19.95m-9.97 0h-19.96m-9.97 0h-19.95m-9.98 0H394.3m-10 0h-19.94m-9.97 0h-19.97m-9.97 0H304.5m-9.97 0h-19.95m-9.98 0h-19.95m-9.97 0h-19.96m-9.97 0H184.8m-9.98 0h-19.95m-9.98 0h-19.96m-9.98 0H95m-9.96 0H65.08m-9.97 0H35.17m-9.98 0H5.23m-9.98 0H-24.7m-9.97 0h-19.96m-9.97 0h-19.95m-9.98 0h-19.95m-9.98 0h-19.95m-9.98 0h-19.96m-9.97 0h-19.96m-9.98 0h-19.95m-9.97 0h-19.95m-9.98 0h-19.95m-9.97 0H-314l-.94-.08-.9-.23-.88-.36-.8-.48-.72-.6-.6-.73-.5-.8-.37-.88-.23-.9-.07-.95v-9.87m0-9.87v-19.73m0-9.87v-19.73m0-9.87V1148m0-9.87v-19.73m0-9.87v-19.73m0-9.87v-19.73m0-9.87v-19.73m0-9.87V1000m0-9.87V970.4m0-9.87V940.8m0-9.87V911.2m0-9.87V881.6m0-9.87V852m0-9.87V822.4m0-9.87V792.8m0-9.87V763.2m0-9.87V733.6m0-9.87V704m0-9.87V674.4m0-9.87V644.8m0-9.87V615.2m0-9.87V585.6m0-9.87V556m0-9.87V526.4m0-9.87V496.8m0-9.87V467.2m0-9.87V437.6m0-9.87V408m0-9.87V378.4m0-9.87v-9.86l.07-.94.22-.92.35-.86.5-.8.6-.72.72-.6.8-.5.88-.36.9-.22.95-.07h9.98" stroke="#3a414a" stroke-width="2" fill="none"/><path d="M120 418.67a6 6 0 0 1 6-6h644a6 6 0 0 1 6 6V1094a6 6 0 0 1-6 6H126a6 6 0 0 1-6-6zM1320.34 646a6 6 0 0 1 6-6H2274a6 6 0 0 1 6 6v448.2a6 6 0 0 1-6 6h-947.66a6 6 0 0 1-6-6z" stroke="#3a414a" stroke-width="2" fill="#fff"/><path d="M540 478.67a6 6 0 0 1 6-6h208a6 6 0 0 1 6 6V914a6 6 0 0 1-6 6H546a6 6 0 0 1-6-6zM140 478.67a6 6 0 0 1 6-6h388a6 6 0 0 1 6 6V914a6 6 0 0 1-6 6H146a6 6 0 0 1-6-6zM395.5 1140c22.1 0 40 17.9 40 40s-17.9 40-40 40h-80c-22.1 0-40-17.9-40-40s17.9-40 40-40z" stroke="#3a414a" stroke-width="2" fill="#fff"/><use xlink:href="#a" transform="matrix(1,0,0,1,280.4998881401473,1145) translate(18.271604938271608 39.65277777777778)"/><use xlink:href="#b" transform="matrix(1,0,0,1,280.4998881401473,1145) translate(71.23456790123457 39.65277777777778)"/><path d="M355.5 1138.5v-41.12" stroke="#3a414a" fill="none"/><path d="M355.98 1139h-.96v-.5h.96z" stroke="#3a414a" stroke-width=".05" fill="#3a414a"/><path d="M355.5 1082.62l4.63 14.27-9.26-.02z" stroke="#3a414a" fill="#3a414a"/><path d="M21 1000c22.1 0 40 17.9 40 40s-17.9 40-40 40h-80c-22.1 0-40-17.9-40-40s17.9-40 40-40z" stroke="#3a414a" stroke-width="2" fill="#fff"/><use xlink:href="#c" transform="matrix(1,0,0,1,-94.00022371970539,1005) translate(42.345679012345684 39.65277777777778)"/><use xlink:href="#d" transform="matrix(1,0,0,1,-94.00022371970539,1005) translate(85.49382716049382 39.65277777777778)"/><path d="M169.5 1040H78.38" stroke="#3a414a" fill="none"/><path d="M170 1040.47h-.5v-.94h.5z" stroke="#3a414a" stroke-width=".05" fill="#3a414a"/><path d="M63.62 1040l14.26-4.63v9.27z" stroke="#3a414a" fill="#3a414a"/><path d="M241.47 998.5h-.94v-22.67h.94zm0-65.34h-.94v-24.44h.94z" stroke="#3a414a" stroke-width=".05" fill="#3a414a"/><path d="M245.63 908.22h-9.26l4.63-14.27z" fill="#3a414a"/><path d="M246.3 908.7h-10.6l5.3-16.3zm-9.28-.96h7.96L241 895.5z" stroke="#3a414a" stroke-width=".05" fill="#3a414a"/><path d="M241.47 999h-.94v-.5h.94z" fill="#3a414a"/><path stroke="#3a414a" stroke-width=".05" fill="#3a414a"/><use xlink:href="#e" transform="matrix(1,0,0,1,212.407183687702,933.1591219351885) translate(0.004999999999999005 14.222222222222223)"/><use xlink:href="#f" transform="matrix(1,0,0,1,212.407183687702,933.1591219351885) translate(1.437098765432097 35.55555555555556)"/><path d="M140 478.67a6 6 0 0 1 6-6h108a6 6 0 0 1 6 6v48a6 6 0 0 1-6 6H146a6 6 0 0 1-6-6z" fill="none"/><use xlink:href="#g" transform="matrix(1,0,0,1,140,472.6666666666663) translate(8.209876543209873 23.777777777777775)"/><use xlink:href="#h" transform="matrix(1,0,0,1,140,472.6666666666663) translate(13.654320987654316 46.888888888888886)"/><use xlink:href="#i" transform="matrix(1,0,0,1,140,472.6666666666663) translate(57.06172839506173 46.888888888888886)"/><path d="M171 1006a6 6 0 0 1 6-6h357a6 6 0 0 1 6 6v68a6 6 0 0 1-6 6H177a6 6 0 0 1-6-6z" stroke="#3a414a" stroke-width="2" fill="#fff"/><path d="M185.5 1016a6 6 0 0 1 6-6h328a6 6 0 0 1 6 6v48a6 6 0 0 1-6 6h-328a6 6 0 0 1-6-6z" fill="none"/><use xlink:href="#j" transform="matrix(1,0,0,1,185.49988814014705,1010) translate(151.51234567901236 23.777777777777775)"/><use xlink:href="#h" transform="matrix(1,0,0,1,185.49988814014705,1010) translate(127.60493827160494 46.888888888888886)"/><use xlink:href="#k" transform="matrix(1,0,0,1,185.49988814014705,1010) translate(171.01234567901236 46.888888888888886)"/><path d="M161 743a6 6 0 0 1 6-6h148a6 6 0 0 1 6 6v142.33a6 6 0 0 1-6 6H167a6 6 0 0 1-6-6z" stroke="#3a414a" stroke-width="2" fill="#fff"/><use xlink:href="#l" transform="matrix(1,0,0,1,172.9997762802946,749) translate(22.19753086419753 17.77777777777778)"/><use xlink:href="#m" transform="matrix(1,0,0,1,172.9997762802946,749) translate(18.27777777777778 44.44444444444444)"/><use xlink:href="#n" transform="matrix(1,0,0,1,172.9997762802946,749) translate(72.53703703703704 44.44444444444444)"/><use xlink:href="#o" transform="matrix(1,0,0,1,172.9997762802946,749) translate(1.3950617283950635 71.11111111111111)"/><use xlink:href="#p" transform="matrix(1,0,0,1,172.9997762802946,749) translate(116.08641975308643 71.11111111111111)"/><use xlink:href="#q" transform="matrix(1,0,0,1,172.9997762802946,749) translate(6.611111111111114 97.77777777777777)"/><use xlink:href="#r" transform="matrix(1,0,0,1,172.9997762802946,749) translate(13.740740740740733 124.44444444444446)"/><path d="M120 418.67a6 6 0 0 1 6-6h148a6 6 0 0 1 6 6v48a6 6 0 0 1-6 6H126a6 6 0 0 1-6-6z" fill="none"/><use xlink:href="#s" transform="matrix(1,0,0,1,120,412.6666666666663) translate(30.444444444444443 35.333333333333336)"/><use xlink:href="#t" transform="matrix(1,0,0,1,120,412.6666666666663) translate(92.5925925925926 35.333333333333336)"/><path d="M2648.34 826a6 6 0 0 1 6-6h328a6 6 0 0 1 6 6v268a6 6 0 0 1-6 6h-328a6 6 0 0 1-6-6z" stroke="#3a414a" stroke-width="2" fill="#fff"/><path d="M2648.34 826a6 6 0 0 1 6-6h208a6 6 0 0 1 6 6v48a6 6 0 0 1-6 6h-208a6 6 0 0 1-6-6z" fill="none"/><use xlink:href="#u" transform="matrix(1,0,0,1,2648.3370452283143,820.0000000000001) translate(28.666666666666657 35.333333333333336)"/><use xlink:href="#v" transform="matrix(1,0,0,1,2648.3370452283143,820.0000000000001) translate(110 35.333333333333336)"/><path d="M2280 1046.2a6 6 0 0 1 6-6h108a6 6 0 0 1 6 6v48a6 6 0 0 1-6 6h-108a6 6 0 0 1-6-6z" stroke="#3a414a" stroke-width="2" fill="#fff"/><use xlink:href="#w" transform="matrix(1,0,0,1,2292,1052.1999129231228) translate(25.19135802469136 22.27777777777778)"/><path d="M2540 1046a6 6 0 0 1 6-6h96.34a6 6 0 0 1 6 6v48a6 6 0 0 1-6 6H2546a6 6 0 0 1-6-6z" stroke="#3a414a" stroke-width="2" fill="#fff"/><use xlink:href="#x" transform="matrix(1,0,0,1,2552,1052) translate(14.722222222222225 22.27777777777778)"/><path d="M2449.3 1070.67h-31.92v-.95h31.93zm73.32-.2l-31.93.06v-.95l31.9-.05z" stroke="#3a414a" stroke-width=".05" fill="#3a414a"/><path d="M2416.88 1074.84l-14.26-4.64 14.26-4.63z" fill="#3a414a"/><path d="M2417.36 1075.5l-16.28-5.3 16.28-5.3zm-13.2-5.3l12.25 3.98v-7.96z" stroke="#3a414a" stroke-width=".05" fill="#3a414a"/><path d="M2537.38 1070l-14.26 4.63v-9.27z" fill="#3a414a"/><path d="M2538.92 1070l-16.28 5.3v-10.6zm-15.33 3.98l12.24-3.98-12.25-3.98z" stroke="#3a414a" stroke-width=".05" fill="#3a414a"/><use xlink:href="#y" transform="matrix(1,0,0,1,2449.3086419753085,1059.4332897948946) translate(0 14.222222222222223)"/><path d="M2668.34 906a6 6 0 0 1 6-6h288a6 6 0 0 1 6 6v176.8a6 6 0 0 1-6 6h-288a6 6 0 0 1-6-6z" stroke="#3a414a" stroke-width="2" fill="#fff"/><use xlink:href="#z" transform="matrix(1,0,0,1,2680.3370452283143,912) translate(0 22.22291666666667)"/><use xlink:href="#A" transform="matrix(1,0,0,1,2680.3370452283143,912) translate(105.42222222222223 22.22291666666667)"/><use xlink:href="#B" transform="matrix(1,0,0,1,2680.3370452283143,912) translate(36.01 47.82291666666667)"/><use xlink:href="#C" transform="matrix(1,0,0,1,2680.3370452283143,912) translate(48.98777777777778 47.82291666666667)"/><use xlink:href="#D" transform="matrix(1,0,0,1,2680.3370452283143,912) translate(125.9062962962963 47.82291666666667)"/><use xlink:href="#B" transform="matrix(1,0,0,1,2680.3370452283143,912) translate(36.01 73.42291666666668)"/><use xlink:href="#E" transform="matrix(1,0,0,1,2680.3370452283143,912) translate(48.98777777777778 73.42291666666668)"/><use xlink:href="#F" transform="matrix(1,0,0,1,2680.3370452283143,912) translate(117.66925925925928 73.42291666666668)"/><use xlink:href="#B" transform="matrix(1,0,0,1,2680.3370452283143,912) translate(36.01 99.02291666666667)"/><use xlink:href="#G" transform="matrix(1,0,0,1,2680.3370452283143,912) translate(48.98777777777778 99.02291666666667)"/><use xlink:href="#H" transform="matrix(1,0,0,1,2680.3370452283143,912) translate(135.44703703703703 99.02291666666667)"/><use xlink:href="#I" transform="matrix(1,0,0,1,2680.3370452283143,912) translate(213.61 99.02291666666667)"/><use xlink:href="#J" transform="matrix(1,0,0,1,2680.3370452283143,912) translate(0 124.6229166666667)"/><use xlink:href="#K" transform="matrix(1,0,0,1,2680.3370452283143,912) translate(0 150.2229166666667)"/><use xlink:href="#L" transform="matrix(1,0,0,1,2680.3370452283143,912) translate(66.37037037037038 150.2229166666667)"/><use xlink:href="#M" transform="matrix(1,0,0,1,2680.3370452283143,912) translate(117.33333333333334 150.2229166666667)"/><path d="M1600 746a6 6 0 0 1 6-6h408a6 6 0 0 1 6 6v332.6a6 6 0 0 1-6 6h-408a6 6 0 0 1-6-6z" stroke="#3a414a" stroke-width="2" fill="#fff"/><path d="M1320.67 657.33a6 6 0 0 1 6-6h268a6 6 0 0 1 6 6v48a6 6 0 0 1-6 6h-268a6 6 0 0 1-6-6z" fill="none"/><use xlink:href="#N" transform="matrix(1,0,0,1,1320.6728904566799,651.3333333333335) translate(17.259259259259252 35.333333333333336)"/><use xlink:href="#O" transform="matrix(1,0,0,1,1320.6728904566799,651.3333333333335) translate(147.4074074074074 35.333333333333336)"/><use xlink:href="#P" transform="matrix(1,0,0,1,1320.6728904566799,651.3333333333335) translate(178.44444444444446 35.333333333333336)"/><use xlink:href="#Q" transform="matrix(1,0,0,1,1320.6728904566799,651.3333333333335) translate(237.62962962962962 35.333333333333336)"/><path d="M1840 806a6 6 0 0 1 6-6h148a6 6 0 0 1 6 6v108a6 6 0 0 1-6 6h-148a6 6 0 0 1-6-6z" stroke="#3a414a" stroke-width="2" fill="#fff"/><use xlink:href="#R" transform="matrix(1,0,0,1,1852,812) translate(27.907407407407412 26.77777777777778)"/><use xlink:href="#S" transform="matrix(1,0,0,1,1852,812) translate(4.111111111111114 53.44444444444445)"/><use xlink:href="#T" transform="matrix(1,0,0,1,1852,812) translate(16.85802469135802 80.11111111111111)"/><path d="M1600 746a6 6 0 0 1 6-6h338.66a6 6 0 0 1 6 6v48a6 6 0 0 1-6 6H1606a6 6 0 0 1-6-6z" fill="none"/><use xlink:href="#U" transform="matrix(1,0,0,1,1600,740) translate(29.543209876543216 34.44444444444444)"/><use xlink:href="#V" transform="matrix(1,0,0,1,1600,740) translate(138 34.44444444444444)"/><use xlink:href="#W" transform="matrix(1,0,0,1,1600,740) translate(163.8641975308642 34.44444444444444)"/><use xlink:href="#X" transform="matrix(1,0,0,1,1600,740) translate(229.23456790123456 34.44444444444444)"/><path d="M2045.35 859.6l1 .24.93.4.86.52.78.66.66.77.53.86.4.94.23 1 .08.98v198.2l.08.88.2.85.34.8.45.75.56.66.66.57.73.45.8.33.84.2.9.07h9.05v.95h-9.1l-1-.07-1-.24-.92-.4-.87-.52-.77-.66-.66-.77-.53-.86-.4-.94-.23-1-.08-.98v-198.2l-.07-.88-.2-.85-.34-.8-.46-.75-.56-.66-.66-.57-.74-.45-.8-.33-.84-.2-.88-.07h-42.82v-.96h42.86zm217.27 210.12v.95h-13.2v-.95z" stroke="#3a414a" stroke-width=".05" fill="#3a414a"/><path d="M2001.5 860.48h-.5v-.96h.5z" fill="#3a414a"/><path stroke="#3a414a" stroke-width=".05" fill="#3a414a"/><path d="M2277.38 1070.2l-14.26 4.63v-9.26z" fill="#3a414a"/><path d="M2278.92 1070.2l-16.28 5.3v-10.6zm-15.33 3.98l12.24-3.98-12.25-3.98z" stroke="#3a414a" stroke-width=".05" fill="#3a414a"/><use xlink:href="#Y" transform="matrix(1,0,0,1,2065.422522267613,1059.533246256456) translate(0 14.222222222222223)"/><use xlink:href="#Z" transform="matrix(1,0,0,1,2065.422522267613,1059.533246256456) translate(103.16049382716048 14.222222222222223)"/><use xlink:href="#aa" transform="matrix(1,0,0,1,2065.422522267613,1059.533246256456) translate(142.61728395061726 14.222222222222223)"/><path d="M1360 746a6 6 0 0 1 6-6h228a6 6 0 0 1 6 6v332.6a6 6 0 0 1-6 6h-228a6 6 0 0 1-6-6zM1200.34 1046.2a6 6 0 0 1 6-6h108a6 6 0 0 1 6 6v48a6 6 0 0 1-6 6h-108a6 6 0 0 1-6-6z" stroke="#3a414a" stroke-width="2" fill="#fff"/><use xlink:href="#ab" transform="matrix(1,0,0,1,1212.33644522834,1052.1999129231228) translate(-6.459259259259262 22.266666666666666)"/><path d="M1360.67 746a6 6 0 0 1 6-6h228a6 6 0 0 1 6 6v48a6 6 0 0 1-6 6h-228a6 6 0 0 1-6-6z" fill="none"/><use xlink:href="#ac" transform="matrix(1,0,0,1,1360.6728904566799,740) translate(23.209876543209887 34.44444444444444)"/><use xlink:href="#ad" transform="matrix(1,0,0,1,1360.6728904566799,740) translate(69.93827160493828 34.44444444444444)"/><use xlink:href="#ae" transform="matrix(1,0,0,1,1360.6728904566799,740) translate(163.76543209876542 34.44444444444444)"/><path d="M776 1046a6 6 0 0 1 6-6h108a6 6 0 0 1 6 6v48a6 6 0 0 1-6 6H782a6 6 0 0 1-6-6z" stroke="#3a414a" stroke-width="2" fill="#fff"/><use xlink:href="#af" transform="matrix(1,0,0,1,788.0000262802835,1052) translate(30.31111111111111 21.56666666666667)"/><path d="M913.38 1070h6.2m6.2 0h6.25v.02h.02v.02l.02.02v.06h.02v.05h.02l.02.02h6.23m6.2 0h6.2" stroke="#3a414a" fill="none"/><path d="M898.62 1070l14.26-4.63v9.27zM965.55 1070.2l-14.27 4.63v-9.26z" stroke="#3a414a" fill="#3a414a"/><path d="M1400.67 946.4a6 6 0 0 1 6-6h148a6 6 0 0 1 6 6v108a6 6 0 0 1-6 6h-148a6 6 0 0 1-6-6z" stroke="#3a414a" stroke-width="2" fill="#fff"/><use xlink:href="#ag" transform="matrix(1,0,0,1,1412.6728904566799,952.3998258462457) translate(2.5987654320987588 26.77777777777778)"/><use xlink:href="#ah" transform="matrix(1,0,0,1,1412.6728904566799,952.3998258462457) translate(32.47530864197531 53.44444444444445)"/><use xlink:href="#ai" transform="matrix(1,0,0,1,1412.6728904566799,952.3998258462457) translate(29.728395061728392 80.11111111111111)"/><path d="M349.5 546a6 6 0 0 1 6-6h149a6 6 0 0 1 6 6v139.33a6 6 0 0 1-6 6h-149a6 6 0 0 1-6-6z" stroke="#3a414a" stroke-width="2" fill="#fff"/><use xlink:href="#ag" transform="matrix(1,0,0,1,361.50097706936685,552) translate(3.0987654320987588 53.77777777777778)"/><use xlink:href="#aj" transform="matrix(1,0,0,1,361.50097706936685,552) translate(4.333333333333329 80.44444444444446)"/><use xlink:href="#ai" transform="matrix(1,0,0,1,361.50097706936685,552) translate(56.12345679012345 80.44444444444446)"/><path d="M992.17 1094.2c-13.26 0-24-10.75-24-24 0-10.6 6.5-19.55 16.58-22.83-.58-31.17 39.42-37.17 55.42-25.17 8-18 48-12 48 6 24-6 48 18 32 48 16 24 0 54-32 42-8 15.6-40 15.6-48 0-16 12-48 6-48-24z" fill="#fff"/><path d="M971.4 1082.2l-2-4.43-1.08-4.85-.15-2.72.6-5.44 1.47-4.34m5.87-8.06l.52-.53 4.38-2.9 3.75-1.56.08-3.1.33-2.8.54-2.57.72-2.37.5-1.2m7.14-9.93l.76-.7 2.25-1.66 2.56-1.58 2.92-1.45 3.28-1.27 3.64-1.05 3.93-.75 3.25-.33m12.26.77h.1l3.13.84 2.68 1 2.27 1.05 1.9 1.1 1.2.85.7-1.38.84-1.3 1-1.23 1.2-1.2 1.4-1.14 1.53-1m9.4-3.17l1.43-.24 3.85-.23 4.14.2 4.12.6 3.8 1 2.32.86m8.38 5.28l.36.35 1.04 1.25.8 1.2.62 1.18.47 1.17.33 1.17.2 1.2.1 1.22v.18l3.17-.62 3.18-.28 3.15.04 2.8.34m11.47 4.42l.33.2 2.47 1.85 2.25 2.07 2 2.28 1.76 2.46 1.48 2.63 1.2 2.77.93 2.93.62 3m-.53 12.32l-.45 2.06-1.4 4.24-2.1 4.62-.35.66 2.4 4.13 1.8 4.1.9 3m.92 12.27l-.6 3.16-.94 3-1.22 2.7-1.46 2.42-1.68 2.15-1.87 1.9-2.07 1.63-2.26 1.4-1.77.8m-12.1 1.97l-1.6-.07-4.43-.74-5.2-1.5-.83-.32-.86 1.48-1.04 1.43-1.26 1.4-1.53 1.38-1.55 1.13m-8.5 3.73l-3.27.7-3.86.4-4 .02-3.9-.4-3.48-.7m-8.5-3.75l-1.45-1.04-1.55-1.37-1.28-1.4-1.06-1.44-.86-1.47-.05-.1-2.24 1.5-2.57 1.36-2.9 1.16-2.32.67m-11.03.98h-.34l-3.44-.5-3.25-.8-3-1.07-2.74-1.3-2.46-1.53-2.2-1.7-1.96-1.88-.3-.38m-5.54-9.56l-.74-2.52-.63-3.42-.32-3.9v-1.12l-5-.52-4.72-1.52-2.23-1.3" stroke="#3a414a" stroke-width="2" fill="none"/><use xlink:href="#ak" transform="matrix(1,0,0,1,973.1682357543117,1015.1999129231228) translate(0.025000000000005684 59.0875)"/><use xlink:href="#al" transform="matrix(1,0,0,1,973.1682357543117,1015.1999129231228) translate(60.025000000000006 59.0875)"/><path d="M1140.22 1070.4h7.1m7.08 0H1161.5l.02-.02h.02v-.02l.02-.03v-.05l.02-.03v-.02h.03v-.02h7.14m7.1 0h7.08" stroke="#3a414a" fill="none"/><path d="M1125.45 1070.4l14.27-4.63v9.27zM1197.72 1070.2l-14.27 4.63v-9.26z" stroke="#3a414a" fill="#3a414a"/><path d="M1337.72 1070.2h5.28a6 6 0 0 0 6-6v-57.8a6 6 0 0 1 6-6h28.3" stroke="#3a414a" fill="none"/><path d="M1322.95 1070.2l14.27-4.63v9.27zM1398.06 1000.4l-14.27 4.63v-9.26z" stroke="#3a414a" fill="#3a414a"/><path d="M1625 946.4a6 6 0 0 1 6-6h148a6 6 0 0 1 6 6v108a6 6 0 0 1-6 6h-148a6 6 0 0 1-6-6z" stroke="#3a414a" stroke-width="2" fill="#fff"/><g><use xlink:href="#ag" transform="matrix(1,0,0,1,1637.000423719697,952.3998258462457) translate(2.5987654320987588 38.77777777777778)"/><use xlink:href="#aj" transform="matrix(1,0,0,1,1637.000423719697,952.3998258462457) translate(3.8333333333333286 65.44444444444446)"/><use xlink:href="#ai" transform="matrix(1,0,0,1,1637.000423719697,952.3998258462457) translate(55.62345679012345 65.44444444444446)"/></g><path d="M1705 938.9V866a6 6 0 0 1 6-6h111.62" stroke="#3a414a" fill="none"/><path d="M1705.47 939.4h-.94v-.5h.94z" stroke="#3a414a" stroke-width=".05" fill="#3a414a"/><path d="M1837.38 860l-14.26 4.63v-9.26z" stroke="#3a414a" fill="#3a414a"/><path d="M241 735.5V621.67a6 6 0 0 1 6-6h85.12" stroke="#3a414a" fill="none"/><path d="M241.47 736h-.94v-.5h.94z" stroke="#3a414a" stroke-width=".05" fill="#3a414a"/><path d="M346.88 615.67l-14.26 4.63v-9.27z" stroke="#3a414a" fill="#3a414a"/><path d="M566 740a6 6 0 0 1 6-6h162a6 6 0 0 1 6 6v145.33a6 6 0 0 1-6 6H572a6 6 0 0 1-6-6z" stroke="#3a414a" stroke-width="2" fill="#fff"/><g><use xlink:href="#ag" transform="matrix(1,0,0,1,578.0001999999915,746.0000000000001) translate(9.598765432098759 42.90277777777778)"/><use xlink:href="#ah" transform="matrix(1,0,0,1,578.0001999999915,746.0000000000001) translate(39.47530864197531 69.56944444444446)"/><use xlink:href="#ai" transform="matrix(1,0,0,1,578.0001999999915,746.0000000000001) translate(36.72839506172839 96.23611111111111)"/></g><path d="M527.88 615.67h121.8a6 6 0 0 1 6 6v94.95" stroke="#3a414a" fill="none"/><path d="M513.12 615.67l14.26-4.64v9.27zM655.68 731.38l-4.64-14.26h9.27z" stroke="#3a414a" fill="#3a414a"/><path d="M653 908.72V1064a6 6 0 0 0 6 6h99.62" stroke="#3a414a" fill="none"/><path d="M653 893.95l4.63 14.27h-9.26zM773.38 1070l-14.26 4.63v-9.27z" stroke="#3a414a" fill="#3a414a"/><path d="M1578.06 1000.4h14.68a.1.1 0 0 1 .1.1.1.1 0 0 0 .1.1h14.68" stroke="#3a414a" fill="none"/><path d="M1563.3 1000.4l14.26-4.63v9.26zM1622.38 1000.6l-14.26 4.63v-9.27z" stroke="#3a414a" fill="#3a414a"/><path d="M-321.66 358.67a6 6 0 0 1 6-6H354a6 6 0 0 1 6 6v48a6 6 0 0 1-6 6h-669.66a6 6 0 0 1-6-6z" fill="none"/><g><use xlink:href="#am" transform="matrix(1,0,0,1,-321.66370477165356,352.6666666666663) translate(38.27777777777777 38)"/><use xlink:href="#an" transform="matrix(1,0,0,1,-321.66370477165356,352.6666666666663) translate(127.05555555555554 38)"/><use xlink:href="#ao" transform="matrix(1,0,0,1,-321.66370477165356,352.6666666666663) translate(175.83333333333331 38)"/><use xlink:href="#ap" transform="matrix(1,0,0,1,-321.66370477165356,352.6666666666663) translate(282.3888888888889 38)"/><use xlink:href="#aq" transform="matrix(1,0,0,1,-321.66370477165356,352.6666666666663) translate(477.72222222222223 38)"/></g><path d="M540 478.67a6 6 0 0 1 6-6h188a6 6 0 0 1 6 6v28a6 6 0 0 1-6 6H546a6 6 0 0 1-6-6z" fill="none"/><g><use xlink:href="#ar" transform="matrix(1,0,0,1,540.0000000000002,472.6666666666663) translate(3.2098765432098872 24.944444444444443)"/><use xlink:href="#as" transform="matrix(1,0,0,1,540.0000000000002,472.6666666666663) translate(49.938271604938286 24.944444444444443)"/><use xlink:href="#at" transform="matrix(1,0,0,1,540.0000000000002,472.6666666666663) translate(143.76543209876542 24.944444444444443)"/></g><path d="M350 740a6 6 0 0 1 6-6h148a6 6 0 0 1 6 6v145.33a6 6 0 0 1-6 6H356a6 6 0 0 1-6-6z" stroke="#3a414a" stroke-width="2" fill="#fff"/><g><use xlink:href="#l" transform="matrix(1,0,0,1,362,746.0000000000001) translate(22.19753086419753 21.96527777777778)"/><use xlink:href="#q" transform="matrix(1,0,0,1,362,746.0000000000001) translate(6.611111111111114 48.63194444444444)"/><use xlink:href="#au" transform="matrix(1,0,0,1,362,746.0000000000001) translate(10.00617283950617 75.29861111111111)"/><use xlink:href="#p" transform="matrix(1,0,0,1,362,746.0000000000001) translate(107.47530864197532 75.29861111111111)"/><use xlink:href="#m" transform="matrix(1,0,0,1,362,746.0000000000001) translate(18.27777777777778 101.96527777777777)"/><use xlink:href="#n" transform="matrix(1,0,0,1,362,746.0000000000001) translate(72.53703703703704 101.96527777777777)"/><use xlink:href="#av" transform="matrix(1,0,0,1,362,746.0000000000001) translate(22.351851851851848 128.63194444444446)"/></g><path d="M430.74 982.62h-.95v-8.57h.94zm-.26-51.24h-.96v-38.55h.96z" stroke="#3a414a" stroke-width=".05" fill="#3a414a"/><path d="M430.48 892.85h-.96v-.52h.96z" fill="#3a414a"/><path stroke="#3a414a" stroke-width=".05" fill="#3a414a"/><path d="M430.26 997.38l-4.63-14.26h9.27z" fill="#3a414a"/><path d="M430.26 998.92l-5.3-16.28h10.6zm-3.98-15.33l3.98 12.25 3.98-12.26z" stroke="#3a414a" stroke-width=".05" fill="#3a414a"/><g><use xlink:href="#aw" transform="matrix(1,0,0,1,401.6676547062631,931.3811280898619) translate(0.004999999999999005 14.222222222222223)"/><use xlink:href="#ax" transform="matrix(1,0,0,1,401.6676547062631,931.3811280898619) translate(1.437098765432097 35.55555555555556)"/></g><path d="M430 716.62v-23.79" stroke="#3a414a" fill="none"/><path d="M430 731.38l-4.63-14.26h9.26z" stroke="#3a414a" fill="#3a414a"/><path d="M430.48 692.85h-.96v-.52h.96z" stroke="#3a414a" stroke-width=".05" fill="#3a414a"/><path d="M1840 946.4a6 6 0 0 1 6-6h148a6 6 0 0 1 6 6v108a6 6 0 0 1-6 6h-148a6 6 0 0 1-6-6z" stroke="#3a414a" stroke-width="2" fill="#fff"/><g><use xlink:href="#R" transform="matrix(1,0,0,1,1852,952.3998258462457) translate(27.907407407407412 26.77777777777778)"/><use xlink:href="#S" transform="matrix(1,0,0,1,1852,952.3998258462457) translate(4.111111111111114 53.44444444444445)"/><use xlink:href="#ay" transform="matrix(1,0,0,1,1852,952.3998258462457) translate(18.03086419753086 80.11111111111111)"/></g><path d="M1838.5 1000.4h-36.12" stroke="#3a414a" fill="none"/><path d="M1839 1000.88h-.5v-.96h.5z" stroke="#3a414a" stroke-width=".05" fill="#3a414a"/><path d="M1787.62 1000.4l14.26-4.63v9.26z" stroke="#3a414a" fill="#3a414a"/><path d="M2045.35 1000l1 .24.93.4.86.52.78.66.66.77.53.86.4.94.23 1 .08.98v57.8l.08.88.2.85.34.8.45.75.56.66.66.57.73.45.8.33.84.2.9.07h9.05v.95h-9.1l-1-.07-1-.24-.92-.4-.87-.52-.77-.66-.66-.77-.53-.86-.4-.94-.23-1-.08-.98v-57.8l-.07-.88-.2-.85-.34-.8-.46-.75-.56-.66-.66-.57-.74-.45-.8-.33-.84-.2-.88-.08h-26.94v-.95h26.97zm233.15 69.72v.95h-29.08v-.95z" stroke="#3a414a" stroke-width=".05" fill="#3a414a"/><path d="M2279 1070.67h-.5v-.95h.5z" fill="#3a414a"/><path stroke="#3a414a" stroke-width=".05" fill="#3a414a"/><path d="M2016.88 1005.03l-14.26-4.63 14.26-4.63z" fill="#3a414a"/><path d="M2017.36 1005.7l-16.28-5.3 16.28-5.3zm-13.2-5.3l12.25 3.98v-7.96z" stroke="#3a414a" stroke-width=".05" fill="#3a414a"/><defs><path d="M232-93c-1 65-40 97-104 97C67 4 28-28 28-90v-158h33c8 89-33 224 67 224 102 0 64-133 71-224h33v155" id="az"/><path d="M135-143c-3-34-86-38-87 0 15 53 115 12 119 90S17 21 10-45l28-5c4 36 97 45 98 0-10-56-113-15-118-90-4-57 82-63 122-42 12 7 21 19 24 35" id="aA"/><path d="M100-194c63 0 86 42 84 106H49c0 40 14 67 53 68 26 1 43-12 49-29l28 8c-11 28-37 45-77 45C44 4 14-33 15-96c1-61 26-98 85-98zm52 81c6-60-76-77-97-28-3 7-6 17-6 28h103" id="aB"/><path d="M114-163C36-179 61-72 57 0H25l-1-190h30c1 12-1 29 2 39 6-27 23-49 58-41v29" id="aC"/><g id="a"><use transform="matrix(0.06172839506172839,0,0,0.06172839506172839,0,0)" xlink:href="#az"/><use transform="matrix(0.06172839506172839,0,0,0.06172839506172839,15.987654320987653,0)" xlink:href="#aA"/><use transform="matrix(0.06172839506172839,0,0,0.06172839506172839,27.098765432098766,0)" xlink:href="#aB"/><use transform="matrix(0.06172839506172839,0,0,0.06172839506172839,39.44444444444444,0)" xlink:href="#aC"/></g><path d="M33 0v-248h34V0H33" id="aD"/><path d="M117-194c89-4 53 116 60 194h-32v-121c0-31-8-49-39-48C34-167 62-67 57 0H25l-1-190h30c1 10-1 24 2 32 11-22 29-35 61-36" id="aE"/><path d="M115-194c55 1 70 41 70 98S169 2 115 4C84 4 66-9 55-30l1 105H24l-1-265h31l2 30c10-21 28-34 59-34zm-8 174c40 0 45-34 45-75s-6-73-45-74c-42 0-51 32-51 76 0 43 10 73 51 73" id="aF"/><path d="M84 4C-5 8 30-112 23-190h32v120c0 31 7 50 39 49 72-2 45-101 50-169h31l1 190h-30c-1-10 1-25-2-33-11 22-28 36-60 37" id="aG"/><path d="M59-47c-2 24 18 29 38 22v24C64 9 27 4 27-40v-127H5v-23h24l9-43h21v43h35v23H59v120" id="aH"/><g id="b"><use transform="matrix(0.06172839506172839,0,0,0.06172839506172839,0,0)" xlink:href="#aD"/><use transform="matrix(0.06172839506172839,0,0,0.06172839506172839,6.172839506172839,0)" xlink:href="#aE"/><use transform="matrix(0.06172839506172839,0,0,0.06172839506172839,18.51851851851852,0)" xlink:href="#aF"/><use transform="matrix(0.06172839506172839,0,0,0.06172839506172839,30.864197530864196,0)" xlink:href="#aG"/><use transform="matrix(0.06172839506172839,0,0,0.06172839506172839,43.20987654320987,0)" xlink:href="#aH"/><use transform="matrix(0.06172839506172839,0,0,0.06172839506172839,49.382716049382715,0)" xlink:href="#aA"/></g><path d="M30-248c118-7 216 8 213 122C240-48 200 0 122 0H30v-248zM63-27c89 8 146-16 146-99s-60-101-146-95v194" id="aI"/><path d="M30 0v-248h187v28H63v79h144v27H63v87h162V0H30" id="aJ"/><g id="c"><use transform="matrix(0.06172839506172839,0,0,0.06172839506172839,0,0)" xlink:href="#aD"/><use transform="matrix(0.06172839506172839,0,0,0.06172839506172839,6.172839506172839,0)" xlink:href="#aI"/><use transform="matrix(0.06172839506172839,0,0,0.06172839506172839,22.160493827160494,0)" xlink:href="#aJ"/></g><g id="d"><use transform="matrix(0.06172839506172839,0,0,0.06172839506172839,0,0)" xlink:href="#az"/><use transform="matrix(0.06172839506172839,0,0,0.06172839506172839,15.987654320987653,0)" xlink:href="#aD"/></g><path fill="#333" d="M127-220V0H93v-220H8v-28h204v28h-85" id="aK"/><path fill="#333" d="M212-179c-10-28-35-45-73-45-59 0-87 40-87 99 0 60 29 101 89 101 43 0 62-24 78-52l27 14C228-24 195 4 139 4 59 4 22-46 18-125c-6-104 99-153 187-111 19 9 31 26 39 46" id="aL"/><path fill="#333" d="M30-248c87 1 191-15 191 75 0 78-77 80-158 76V0H30v-248zm33 125c57 0 124 11 124-50 0-59-68-47-124-48v98" id="aM"/><path fill="#333" d="M0 4l72-265h28L28 4H0" id="aN"/><path fill="#333" d="M33 0v-248h34V0H33" id="aO"/><g id="e"><use transform="matrix(0.04938271604938272,0,0,0.04938271604938272,0,0)" xlink:href="#aK"/><use transform="matrix(0.04938271604938272,0,0,0.04938271604938272,10.814814814814815,0)" xlink:href="#aL"/><use transform="matrix(0.04938271604938272,0,0,0.04938271604938272,23.60493827160494,0)" xlink:href="#aM"/><use transform="matrix(0.04938271604938272,0,0,0.04938271604938272,35.45679012345679,0)" xlink:href="#aN"/><use transform="matrix(0.04938271604938272,0,0,0.04938271604938272,40.39506172839506,0)" xlink:href="#aO"/><use transform="matrix(0.04938271604938272,0,0,0.04938271604938272,45.333333333333336,0)" xlink:href="#aM"/></g><path fill="#333" d="M185-189c-5-48-123-54-124 2 14 75 158 14 163 119 3 78-121 87-175 55-17-10-28-26-33-46l33-7c5 56 141 63 141-1 0-78-155-14-162-118-5-82 145-84 179-34 5 7 8 16 11 25" id="aP"/><path fill="#333" d="M100-194c62-1 85 37 85 99 1 63-27 99-86 99S16-35 15-95c0-66 28-99 85-99zM99-20c44 1 53-31 53-75 0-43-8-75-51-75s-53 32-53 75 10 74 51 75" id="aQ"/><path fill="#333" d="M96-169c-40 0-48 33-48 73s9 75 48 75c24 0 41-14 43-38l32 2c-6 37-31 61-74 61-59 0-76-41-82-99-10-93 101-131 147-64 4 7 5 14 7 22l-32 3c-4-21-16-35-41-35" id="aR"/><path fill="#333" d="M143 0L79-87 56-68V0H24v-261h32v163l83-92h37l-77 82L181 0h-38" id="aS"/><path fill="#333" d="M100-194c63 0 86 42 84 106H49c0 40 14 67 53 68 26 1 43-12 49-29l28 8c-11 28-37 45-77 45C44 4 14-33 15-96c1-61 26-98 85-98zm52 81c6-60-76-77-97-28-3 7-6 17-6 28h103" id="aT"/><path fill="#333" d="M59-47c-2 24 18 29 38 22v24C64 9 27 4 27-40v-127H5v-23h24l9-43h21v43h35v23H59v120" id="aU"/><g id="f"><use transform="matrix(0.04938271604938272,0,0,0.04938271604938272,0,0)" xlink:href="#aP"/><use transform="matrix(0.04938271604938272,0,0,0.04938271604938272,11.851851851851853,0)" xlink:href="#aQ"/><use transform="matrix(0.04938271604938272,0,0,0.04938271604938272,21.7283950617284,0)" xlink:href="#aR"/><use transform="matrix(0.04938271604938272,0,0,0.04938271604938272,30.617283950617285,0)" xlink:href="#aS"/><use transform="matrix(0.04938271604938272,0,0,0.04938271604938272,39.50617283950618,0)" xlink:href="#aT"/><use transform="matrix(0.04938271604938272,0,0,0.04938271604938272,49.38271604938272,0)" xlink:href="#aU"/></g><path d="M140-251c81 0 123 46 123 126C263-46 219 4 140 4 59 4 17-45 17-125s42-126 123-126zm0 227c63 0 89-41 89-101s-29-99-89-99c-61 0-89 39-89 99S79-25 140-24" id="aV"/><path d="M212-179c-10-28-35-45-73-45-59 0-87 40-87 99 0 60 29 101 89 101 43 0 62-24 78-52l27 14C228-24 195 4 139 4 59 4 22-46 18-125c-6-104 99-153 187-111 19 9 31 26 39 46" id="aW"/><g id="g"><use transform="matrix(0.06172839506172839,0,0,0.06172839506172839,0,0)" xlink:href="#aV"/><use transform="matrix(0.06172839506172839,0,0,0.06172839506172839,17.28395061728395,0)" xlink:href="#aF"/><use transform="matrix(0.06172839506172839,0,0,0.06172839506172839,29.629629629629626,0)" xlink:href="#aB"/><use transform="matrix(0.06172839506172839,0,0,0.06172839506172839,41.9753086419753,0)" xlink:href="#aE"/><use transform="matrix(0.06172839506172839,0,0,0.06172839506172839,54.32098765432098,0)" xlink:href="#aV"/><use transform="matrix(0.06172839506172839,0,0,0.06172839506172839,71.60493827160494,0)" xlink:href="#aW"/><use transform="matrix(0.06172839506172839,0,0,0.06172839506172839,87.5925925925926,0)" xlink:href="#aI"/></g><path d="M143 4C61 4 22-44 18-125c-5-107 100-154 193-111 17 8 29 25 37 43l-32 9c-13-25-37-40-76-40-61 0-88 39-88 99 0 61 29 100 91 101 35 0 62-11 79-27v-45h-74v-28h105v86C228-13 192 4 143 4" id="aX"/><path d="M160-131c35 5 61 23 61 61C221 17 115-2 30 0v-248c76 3 177-17 177 60 0 33-19 50-47 57zm-97-11c50-1 110 9 110-42 0-47-63-36-110-37v79zm0 115c55-2 124 14 124-45 0-56-70-42-124-44v89" id="aY"/><g id="h"><use transform="matrix(0.04938271604938272,0,0,0.04938271604938272,0,0)" xlink:href="#aX"/><use transform="matrix(0.04938271604938272,0,0,0.04938271604938272,13.827160493827162,0)" xlink:href="#aI"/><use transform="matrix(0.04938271604938272,0,0,0.04938271604938272,26.617283950617285,0)" xlink:href="#aY"/></g><path d="M108 0H70L1-190h34L89-25l56-165h34" id="aZ"/><g id="i"><use transform="matrix(0.04938271604938272,0,0,0.04938271604938272,0,0)" xlink:href="#aA"/><use transform="matrix(0.04938271604938272,0,0,0.04938271604938272,8.88888888888889,0)" xlink:href="#aB"/><use transform="matrix(0.04938271604938272,0,0,0.04938271604938272,18.765432098765434,0)" xlink:href="#aC"/><use transform="matrix(0.04938271604938272,0,0,0.04938271604938272,24.641975308641978,0)" xlink:href="#aZ"/><use transform="matrix(0.04938271604938272,0,0,0.04938271604938272,33.53086419753087,0)" xlink:href="#aB"/><use transform="matrix(0.04938271604938272,0,0,0.04938271604938272,43.40740740740741,0)" xlink:href="#aC"/></g><g id="j"><use transform="matrix(0.06172839506172839,0,0,0.06172839506172839,0,0)" xlink:href="#aD"/><use transform="matrix(0.06172839506172839,0,0,0.06172839506172839,6.172839506172839,0)" xlink:href="#aI"/><use transform="matrix(0.06172839506172839,0,0,0.06172839506172839,22.160493827160494,0)" xlink:href="#aJ"/></g><path d="M96-169c-40 0-48 33-48 73s9 75 48 75c24 0 41-14 43-38l32 2c-6 37-31 61-74 61-59 0-76-41-82-99-10-93 101-131 147-64 4 7 5 14 7 22l-32 3c-4-21-16-35-41-35" id="ba"/><path d="M24 0v-261h32V0H24" id="bb"/><path d="M24-231v-30h32v30H24zM24 0v-190h32V0H24" id="bc"/><g id="k"><use transform="matrix(0.04938271604938272,0,0,0.04938271604938272,0,0)" xlink:href="#ba"/><use transform="matrix(0.04938271604938272,0,0,0.04938271604938272,8.88888888888889,0)" xlink:href="#bb"/><use transform="matrix(0.04938271604938272,0,0,0.04938271604938272,12.790123456790125,0)" xlink:href="#bc"/><use transform="matrix(0.04938271604938272,0,0,0.04938271604938272,16.691358024691358,0)" xlink:href="#aB"/><use transform="matrix(0.04938271604938272,0,0,0.04938271604938272,26.567901234567902,0)" xlink:href="#aE"/><use transform="matrix(0.04938271604938272,0,0,0.04938271604938272,36.44444444444444,0)" xlink:href="#aH"/></g><path d="M127-220V0H93v-220H8v-28h204v28h-85" id="bd"/><path d="M141-36C126-15 110 5 73 4 37 3 15-17 15-53c-1-64 63-63 125-63 3-35-9-54-41-54-24 1-41 7-42 31l-33-3c5-37 33-52 76-52 45 0 72 20 72 64v82c-1 20 7 32 28 27v20c-31 9-61-2-59-35zM48-53c0 20 12 33 32 33 41-3 63-29 60-74-43 2-92-5-92 41" id="be"/><g id="l"><use transform="matrix(0.06172839506172839,0,0,0.06172839506172839,0,0)" xlink:href="#bd"/><use transform="matrix(0.06172839506172839,0,0,0.06172839506172839,12.716049382716047,0)" xlink:href="#aC"/><use transform="matrix(0.06172839506172839,0,0,0.06172839506172839,20.061728395061728,0)" xlink:href="#be"/><use transform="matrix(0.06172839506172839,0,0,0.06172839506172839,32.407407407407405,0)" xlink:href="#aE"/><use transform="matrix(0.06172839506172839,0,0,0.06172839506172839,44.75308641975308,0)" xlink:href="#aA"/><use transform="matrix(0.06172839506172839,0,0,0.06172839506172839,55.86419753086419,0)" xlink:href="#bb"/><use transform="matrix(0.06172839506172839,0,0,0.06172839506172839,60.74074074074073,0)" xlink:href="#be"/><use transform="matrix(0.06172839506172839,0,0,0.06172839506172839,73.08641975308642,0)" xlink:href="#aH"/><use transform="matrix(0.06172839506172839,0,0,0.06172839506172839,79.25925925925925,0)" xlink:href="#aB"/></g><g id="m"><use transform="matrix(0.06172839506172839,0,0,0.06172839506172839,0,0)" xlink:href="#aX"/><use transform="matrix(0.06172839506172839,0,0,0.06172839506172839,17.28395061728395,0)" xlink:href="#aI"/><use transform="matrix(0.06172839506172839,0,0,0.06172839506172839,33.2716049382716,0)" xlink:href="#aY"/></g><path d="M233-177c-1 41-23 64-60 70L243 0h-38l-65-103H63V0H30v-248c88 3 205-21 203 71zM63-129c60-2 137 13 137-47 0-61-80-42-137-45v92" id="bf"/><path d="M185-189c-5-48-123-54-124 2 14 75 158 14 163 119 3 78-121 87-175 55-17-10-28-26-33-46l33-7c5 56 141 63 141-1 0-78-155-14-162-118-5-82 145-84 179-34 5 7 8 16 11 25" id="bg"/><path d="M30-248c87 1 191-15 191 75 0 78-77 80-158 76V0H30v-248zm33 125c57 0 124 11 124-50 0-59-68-47-124-48v98" id="bh"/><g id="n"><use transform="matrix(0.06172839506172839,0,0,0.06172839506172839,0,0)" xlink:href="#bf"/><use transform="matrix(0.06172839506172839,0,0,0.06172839506172839,15.987654320987653,0)" xlink:href="#bg"/><use transform="matrix(0.06172839506172839,0,0,0.06172839506172839,30.80246913580247,0)" xlink:href="#bh"/></g><path d="M100-194c62-1 85 37 85 99 1 63-27 99-86 99S16-35 15-95c0-66 28-99 85-99zM99-20c44 1 53-31 53-75 0-43-8-75-51-75s-53 32-53 75 10 74 51 75" id="bi"/><path d="M210-169c-67 3-38 105-44 169h-31v-121c0-29-5-50-35-48C34-165 62-65 56 0H25l-1-190h30c1 10-1 24 2 32 10-44 99-50 107 0 11-21 27-35 58-36 85-2 47 119 55 194h-31v-121c0-29-5-49-35-48" id="bj"/><path d="M85-194c31 0 48 13 60 33l-1-100h32l1 261h-30c-2-10 0-23-3-31C134-8 116 4 85 4 32 4 16-35 15-94c0-66 23-100 70-100zm9 24c-40 0-46 34-46 75 0 40 6 74 45 74 42 0 51-32 51-76 0-42-9-74-50-73" id="bk"/><g id="o"><use transform="matrix(0.06172839506172839,0,0,0.06172839506172839,0,0)" xlink:href="#ba"/><use transform="matrix(0.06172839506172839,0,0,0.06172839506172839,11.11111111111111,0)" xlink:href="#bi"/><use transform="matrix(0.06172839506172839,0,0,0.06172839506172839,23.45679012345679,0)" xlink:href="#bj"/><use transform="matrix(0.06172839506172839,0,0,0.06172839506172839,41.91358024691358,0)" xlink:href="#bj"/><use transform="matrix(0.06172839506172839,0,0,0.06172839506172839,60.37037037037037,0)" xlink:href="#be"/><use transform="matrix(0.06172839506172839,0,0,0.06172839506172839,72.71604938271605,0)" xlink:href="#aE"/><use transform="matrix(0.06172839506172839,0,0,0.06172839506172839,85.06172839506173,0)" xlink:href="#bk"/><use transform="matrix(0.06172839506172839,0,0,0.06172839506172839,97.40740740740742,0)" xlink:href="#aA"/></g><g id="p"><use transform="matrix(0.06172839506172839,0,0,0.06172839506172839,0,0)" xlink:href="#aH"/><use transform="matrix(0.06172839506172839,0,0,0.06172839506172839,6.172839506172839,0)" xlink:href="#bi"/></g><path d="M240 0l2-218c-23 76-54 145-80 218h-23L58-218 59 0H30v-248h44l77 211c21-75 51-140 76-211h43V0h-30" id="bl"/><path d="M16-82v-28h88v28H16" id="bm"/><path d="M205 0l-28-72H64L36 0H1l101-248h38L239 0h-34zm-38-99l-47-123c-12 45-31 82-46 123h93" id="bn"/><g id="q"><use transform="matrix(0.06172839506172839,0,0,0.06172839506172839,0,0)" xlink:href="#aW"/><use transform="matrix(0.06172839506172839,0,0,0.06172839506172839,15.987654320987653,0)" xlink:href="#bl"/><use transform="matrix(0.06172839506172839,0,0,0.06172839506172839,34.44444444444444,0)" xlink:href="#bg"/><use transform="matrix(0.06172839506172839,0,0,0.06172839506172839,49.25925925925925,0)" xlink:href="#aD"/><use transform="matrix(0.06172839506172839,0,0,0.06172839506172839,55.432098765432094,0)" xlink:href="#bg"/><use transform="matrix(0.06172839506172839,0,0,0.06172839506172839,70.24691358024691,0)" xlink:href="#bm"/><use transform="matrix(0.06172839506172839,0,0,0.06172839506172839,77.5925925925926,0)" xlink:href="#aI"/><use transform="matrix(0.06172839506172839,0,0,0.06172839506172839,93.58024691358025,0)" xlink:href="#bn"/><use transform="matrix(0.06172839506172839,0,0,0.06172839506172839,108.39506172839506,0)" xlink:href="#bh"/></g><g id="r"><use transform="matrix(0.06172839506172839,0,0,0.06172839506172839,0,0)" xlink:href="#ba"/><use transform="matrix(0.06172839506172839,0,0,0.06172839506172839,11.11111111111111,0)" xlink:href="#bi"/><use transform="matrix(0.06172839506172839,0,0,0.06172839506172839,23.45679012345679,0)" xlink:href="#bj"/><use transform="matrix(0.06172839506172839,0,0,0.06172839506172839,41.91358024691358,0)" xlink:href="#bj"/><use transform="matrix(0.06172839506172839,0,0,0.06172839506172839,60.37037037037037,0)" xlink:href="#be"/><use transform="matrix(0.06172839506172839,0,0,0.06172839506172839,72.71604938271605,0)" xlink:href="#aE"/><use transform="matrix(0.06172839506172839,0,0,0.06172839506172839,85.06172839506173,0)" xlink:href="#bk"/><use transform="matrix(0.06172839506172839,0,0,0.06172839506172839,97.40740740740742,0)" xlink:href="#aA"/></g><path d="M197 0v-115H63V0H30v-248h33v105h134v-105h34V0h-34" id="bo"/><g id="s"><use transform="matrix(0.07407407407407408,0,0,0.07407407407407408,0,0)" xlink:href="#bo"/><use transform="matrix(0.07407407407407408,0,0,0.07407407407407408,19.185185185185187,0)" xlink:href="#bi"/><use transform="matrix(0.07407407407407408,0,0,0.07407407407407408,34,0)" xlink:href="#aA"/><use transform="matrix(0.07407407407407408,0,0,0.07407407407407408,47.33333333333334,0)" xlink:href="#aH"/></g><g id="t"><use transform="matrix(0.07407407407407408,0,0,0.07407407407407408,0,0)" xlink:href="#bh"/><use transform="matrix(0.07407407407407408,0,0,0.07407407407407408,17.77777777777778,0)" xlink:href="#aW"/></g><path d="M177-190C167-65 218 103 67 71c-23-6-38-20-44-43l32-5c15 47 100 32 89-28v-30C133-14 115 1 83 1 29 1 15-40 15-95c0-56 16-97 71-98 29-1 48 16 59 35 1-10 0-23 2-32h30zM94-22c36 0 50-32 50-73 0-42-14-75-50-75-39 0-46 34-46 75s6 73 46 73" id="bp"/><g id="u"><use transform="matrix(0.07407407407407408,0,0,0.07407407407407408,0,0)" xlink:href="#bd"/><use transform="matrix(0.07407407407407408,0,0,0.07407407407407408,13.259259259259261,0)" xlink:href="#be"/><use transform="matrix(0.07407407407407408,0,0,0.07407407407407408,28.074074074074076,0)" xlink:href="#aC"/><use transform="matrix(0.07407407407407408,0,0,0.07407407407407408,36.88888888888889,0)" xlink:href="#bp"/><use transform="matrix(0.07407407407407408,0,0,0.07407407407407408,51.70370370370371,0)" xlink:href="#aB"/><use transform="matrix(0.07407407407407408,0,0,0.07407407407407408,66.51851851851853,0)" xlink:href="#aH"/></g><g id="v"><use transform="matrix(0.07407407407407408,0,0,0.07407407407407408,0,0)" xlink:href="#aI"/><use transform="matrix(0.07407407407407408,0,0,0.07407407407407408,19.185185185185187,0)" xlink:href="#aB"/><use transform="matrix(0.07407407407407408,0,0,0.07407407407407408,34,0)" xlink:href="#aZ"/><use transform="matrix(0.07407407407407408,0,0,0.07407407407407408,47.33333333333334,0)" xlink:href="#bc"/><use transform="matrix(0.07407407407407408,0,0,0.07407407407407408,53.18518518518519,0)" xlink:href="#ba"/><use transform="matrix(0.07407407407407408,0,0,0.07407407407407408,66.51851851851853,0)" xlink:href="#aB"/></g><g id="w"><use transform="matrix(0.06172839506172839,0,0,0.06172839506172839,0,0)" xlink:href="#aI"/><use transform="matrix(0.06172839506172839,0,0,0.06172839506172839,15.987654320987653,0)" xlink:href="#bn"/><use transform="matrix(0.06172839506172839,0,0,0.06172839506172839,30.80246913580247,0)" xlink:href="#bh"/></g><g id="x"><use transform="matrix(0.06172839506172839,0,0,0.06172839506172839,0,0)" xlink:href="#aX"/><use transform="matrix(0.06172839506172839,0,0,0.06172839506172839,17.28395061728395,0)" xlink:href="#bh"/><use transform="matrix(0.06172839506172839,0,0,0.06172839506172839,32.09876543209876,0)" xlink:href="#aD"/><use transform="matrix(0.06172839506172839,0,0,0.06172839506172839,38.2716049382716,0)" xlink:href="#aV"/></g><path fill="#333" d="M169-182c-1-43-94-46-97-3 18 66 151 10 154 114 3 95-165 93-204 36-6-8-10-19-12-30l50-8c3 46 112 56 116 5-17-69-150-10-154-114-4-87 153-88 188-35 5 8 8 18 10 28" id="bq"/><path fill="#333" d="M275 0h-61l-44-196L126 0H64L0-248h53L97-49l45-199h58l43 199 44-199h52" id="br"/><path fill="#333" d="M24-248c120-7 223 5 221 122C244-46 201 0 124 0H24v-248zM76-40c74 7 117-18 117-86 0-67-45-88-117-82v168" id="bs"/><g id="y"><use transform="matrix(0.04938271604938272,0,0,0.04938271604938272,0,0)" xlink:href="#bq"/><use transform="matrix(0.04938271604938272,0,0,0.04938271604938272,11.851851851851853,0)" xlink:href="#br"/><use transform="matrix(0.04938271604938272,0,0,0.04938271604938272,28.592592592592595,0)" xlink:href="#bs"/></g><g id="z"><use transform="matrix(0.05925925925925927,0,0,0.05925925925925927,0,0)" xlink:href="#bh"/><use transform="matrix(0.05925925925925927,0,0,0.05925925925925927,14.222222222222225,0)" xlink:href="#aC"/><use transform="matrix(0.05925925925925927,0,0,0.05925925925925927,21.27407407407408,0)" xlink:href="#bi"/><use transform="matrix(0.05925925925925927,0,0,0.05925925925925927,33.125925925925934,0)" xlink:href="#ba"/><use transform="matrix(0.05925925925925927,0,0,0.05925925925925927,43.7925925925926,0)" xlink:href="#aB"/><use transform="matrix(0.05925925925925927,0,0,0.05925925925925927,55.64444444444445,0)" xlink:href="#aA"/><use transform="matrix(0.05925925925925927,0,0,0.05925925925925927,66.31111111111112,0)" xlink:href="#aA"/><use transform="matrix(0.05925925925925927,0,0,0.05925925925925927,76.97777777777779,0)" xlink:href="#aB"/><use transform="matrix(0.05925925925925927,0,0,0.05925925925925927,88.82962962962964,0)" xlink:href="#aA"/></g><g id="A"><use transform="matrix(0.05925925925925927,0,0,0.05925925925925927,0,0)" xlink:href="#ba"/><use transform="matrix(0.05925925925925927,0,0,0.05925925925925927,10.666666666666668,0)" xlink:href="#bi"/><use transform="matrix(0.05925925925925927,0,0,0.05925925925925927,22.51851851851852,0)" xlink:href="#bj"/><use transform="matrix(0.05925925925925927,0,0,0.05925925925925927,40.23703703703704,0)" xlink:href="#bj"/><use transform="matrix(0.05925925925925927,0,0,0.05925925925925927,57.95555555555556,0)" xlink:href="#be"/><use transform="matrix(0.05925925925925927,0,0,0.05925925925925927,69.80740740740741,0)" xlink:href="#aE"/><use transform="matrix(0.05925925925925927,0,0,0.05925925925925927,81.65925925925926,0)" xlink:href="#bk"/><use transform="matrix(0.05925925925925927,0,0,0.05925925925925927,93.5111111111111,0)" xlink:href="#aA"/></g><use transform="matrix(0.05925925925925927,0,0,0.05925925925925927,0,0)" xlink:href="#bm" id="B"/><g id="C"><use transform="matrix(0.05925925925925927,0,0,0.05925925925925927,0,0)" xlink:href="#aC"/><use transform="matrix(0.05925925925925927,0,0,0.05925925925925927,7.051851851851853,0)" xlink:href="#aB"/><use transform="matrix(0.05925925925925927,0,0,0.05925925925925927,18.903703703703705,0)" xlink:href="#be"/><use transform="matrix(0.05925925925925927,0,0,0.05925925925925927,30.75555555555556,0)" xlink:href="#bk"/><use transform="matrix(0.05925925925925927,0,0,0.05925925925925927,42.607407407407415,0)" xlink:href="#bc"/><use transform="matrix(0.05925925925925927,0,0,0.05925925925925927,47.2888888888889,0)" xlink:href="#aE"/><use transform="matrix(0.05925925925925927,0,0,0.05925925925925927,59.14074074074075,0)" xlink:href="#bp"/></g><path d="M179-190L93 31C79 59 56 82 12 73V49c39 6 53-20 64-50L1-190h34L92-34l54-156h33" id="bt"/><g id="D"><use transform="matrix(0.05925925925925927,0,0,0.05925925925925927,0,0)" xlink:href="#bj"/><use transform="matrix(0.05925925925925927,0,0,0.05925925925925927,17.718518518518522,0)" xlink:href="#aB"/><use transform="matrix(0.05925925925925927,0,0,0.05925925925925927,29.570370370370377,0)" xlink:href="#bj"/><use transform="matrix(0.05925925925925927,0,0,0.05925925925925927,47.2888888888889,0)" xlink:href="#bi"/><use transform="matrix(0.05925925925925927,0,0,0.05925925925925927,59.14074074074075,0)" xlink:href="#aC"/><use transform="matrix(0.05925925925925927,0,0,0.05925925925925927,66.1925925925926,0)" xlink:href="#bt"/></g><g id="E"><use transform="matrix(0.05925925925925927,0,0,0.05925925925925927,0,0)" xlink:href="#aA"/><use transform="matrix(0.05925925925925927,0,0,0.05925925925925927,10.666666666666668,0)" xlink:href="#aB"/><use transform="matrix(0.05925925925925927,0,0,0.05925925925925927,22.51851851851852,0)" xlink:href="#aH"/><use transform="matrix(0.05925925925925927,0,0,0.05925925925925927,28.444444444444446,0)" xlink:href="#aH"/><use transform="matrix(0.05925925925925927,0,0,0.05925925925925927,34.370370370370374,0)" xlink:href="#bc"/><use transform="matrix(0.05925925925925927,0,0,0.05925925925925927,39.05185185185186,0)" xlink:href="#aE"/><use transform="matrix(0.05925925925925927,0,0,0.05925925925925927,50.90370370370371,0)" xlink:href="#bp"/></g><path d="M115-194c53 0 69 39 70 98 0 66-23 100-70 100C84 3 66-7 56-30L54 0H23l1-261h32v101c10-23 28-34 59-34zm-8 174c40 0 45-34 45-75 0-40-5-75-45-74-42 0-51 32-51 76 0 43 10 73 51 73" id="bu"/><path d="M143 0L79-87 56-68V0H24v-261h32v163l83-92h37l-77 82L181 0h-38" id="bv"/><g id="F"><use transform="matrix(0.05925925925925927,0,0,0.05925925925925927,0,0)" xlink:href="#bu"/><use transform="matrix(0.05925925925925927,0,0,0.05925925925925927,11.851851851851853,0)" xlink:href="#aC"/><use transform="matrix(0.05925925925925927,0,0,0.05925925925925927,18.903703703703705,0)" xlink:href="#aB"/><use transform="matrix(0.05925925925925927,0,0,0.05925925925925927,30.75555555555556,0)" xlink:href="#be"/><use transform="matrix(0.05925925925925927,0,0,0.05925925925925927,42.607407407407415,0)" xlink:href="#bv"/><use transform="matrix(0.05925925925925927,0,0,0.05925925925925927,53.27407407407408,0)" xlink:href="#aF"/><use transform="matrix(0.05925925925925927,0,0,0.05925925925925927,65.12592592592593,0)" xlink:href="#bi"/><use transform="matrix(0.05925925925925927,0,0,0.05925925925925927,76.97777777777777,0)" xlink:href="#bc"/><use transform="matrix(0.05925925925925927,0,0,0.05925925925925927,81.65925925925926,0)" xlink:href="#aE"/><use transform="matrix(0.05925925925925927,0,0,0.05925925925925927,93.5111111111111,0)" xlink:href="#aH"/><use transform="matrix(0.05925925925925927,0,0,0.05925925925925927,99.43703703703703,0)" xlink:href="#aA"/></g><g id="G"><use transform="matrix(0.05925925925925927,0,0,0.05925925925925927,0,0)" xlink:href="#aA"/><use transform="matrix(0.05925925925925927,0,0,0.05925925925925927,10.666666666666668,0)" xlink:href="#aH"/><use transform="matrix(0.05925925925925927,0,0,0.05925925925925927,16.592592592592595,0)" xlink:href="#aB"/><use transform="matrix(0.05925925925925927,0,0,0.05925925925925927,28.44444444444445,0)" xlink:href="#aF"/><use transform="matrix(0.05925925925925927,0,0,0.05925925925925927,40.296296296296305,0)" xlink:href="#aF"/><use transform="matrix(0.05925925925925927,0,0,0.05925925925925927,52.14814814814816,0)" xlink:href="#bc"/><use transform="matrix(0.05925925925925927,0,0,0.05925925925925927,56.82962962962964,0)" xlink:href="#aE"/><use transform="matrix(0.05925925925925927,0,0,0.05925925925925927,68.6814814814815,0)" xlink:href="#bp"/></g><path d="M106-169C34-169 62-67 57 0H25v-261h32l-1 103c12-21 28-36 61-36 89 0 53 116 60 194h-32v-121c2-32-8-49-39-48" id="bw"/><g id="H"><use transform="matrix(0.05925925925925927,0,0,0.05925925925925927,0,0)" xlink:href="#aH"/><use transform="matrix(0.05925925925925927,0,0,0.05925925925925927,5.9259259259259265,0)" xlink:href="#bw"/><use transform="matrix(0.05925925925925927,0,0,0.05925925925925927,17.77777777777778,0)" xlink:href="#aC"/><use transform="matrix(0.05925925925925927,0,0,0.05925925925925927,24.829629629629633,0)" xlink:href="#bi"/><use transform="matrix(0.05925925925925927,0,0,0.05925925925925927,36.681481481481484,0)" xlink:href="#aG"/><use transform="matrix(0.05925925925925927,0,0,0.05925925925925927,48.53333333333334,0)" xlink:href="#bp"/><use transform="matrix(0.05925925925925927,0,0,0.05925925925925927,60.38518518518519,0)" xlink:href="#bw"/></g><g id="I"><use transform="matrix(0.05925925925925927,0,0,0.05925925925925927,0,0)" xlink:href="#ba"/><use transform="matrix(0.05925925925925927,0,0,0.05925925925925927,10.666666666666668,0)" xlink:href="#bi"/><use transform="matrix(0.05925925925925927,0,0,0.05925925925925927,22.51851851851852,0)" xlink:href="#bk"/><use transform="matrix(0.05925925925925927,0,0,0.05925925925925927,34.370370370370374,0)" xlink:href="#aB"/></g><g id="K"><use transform="matrix(0.05925925925925927,0,0,0.05925925925925927,0,0)" xlink:href="#bg"/><use transform="matrix(0.05925925925925927,0,0,0.05925925925925927,14.222222222222225,0)" xlink:href="#aB"/><use transform="matrix(0.05925925925925927,0,0,0.05925925925925927,26.074074074074076,0)" xlink:href="#aE"/><use transform="matrix(0.05925925925925927,0,0,0.05925925925925927,37.92592592592593,0)" xlink:href="#bk"/><use transform="matrix(0.05925925925925927,0,0,0.05925925925925927,49.777777777777786,0)" xlink:href="#aA"/></g><g id="L"><use transform="matrix(0.05925925925925927,0,0,0.05925925925925927,0,0)" xlink:href="#bu"/><use transform="matrix(0.05925925925925927,0,0,0.05925925925925927,11.851851851851853,0)" xlink:href="#be"/><use transform="matrix(0.05925925925925927,0,0,0.05925925925925927,23.703703703703706,0)" xlink:href="#ba"/><use transform="matrix(0.05925925925925927,0,0,0.05925925925925927,34.370370370370374,0)" xlink:href="#bv"/></g><g id="M"><use transform="matrix(0.05925925925925927,0,0,0.05925925925925927,0,0)" xlink:href="#aC"/><use transform="matrix(0.05925925925925927,0,0,0.05925925925925927,7.051851851851853,0)" xlink:href="#aB"/><use transform="matrix(0.05925925925925927,0,0,0.05925925925925927,18.903703703703705,0)" xlink:href="#aA"/><use transform="matrix(0.05925925925925927,0,0,0.05925925925925927,29.570370370370373,0)" xlink:href="#aF"/><use transform="matrix(0.05925925925925927,0,0,0.05925925925925927,41.422222222222224,0)" xlink:href="#bi"/><use transform="matrix(0.05925925925925927,0,0,0.05925925925925927,53.27407407407408,0)" xlink:href="#aE"/><use transform="matrix(0.05925925925925927,0,0,0.05925925925925927,65.12592592592593,0)" xlink:href="#aA"/><use transform="matrix(0.05925925925925927,0,0,0.05925925925925927,75.7925925925926,0)" xlink:href="#aB"/><use transform="matrix(0.05925925925925927,0,0,0.05925925925925927,87.64444444444445,0)" xlink:href="#aA"/></g><g id="N"><use transform="matrix(0.07407407407407408,0,0,0.07407407407407408,0,0)" xlink:href="#bf"/><use transform="matrix(0.07407407407407408,0,0,0.07407407407407408,19.185185185185187,0)" xlink:href="#be"/><use transform="matrix(0.07407407407407408,0,0,0.07407407407407408,34,0)" xlink:href="#aA"/><use transform="matrix(0.07407407407407408,0,0,0.07407407407407408,47.33333333333334,0)" xlink:href="#aF"/><use transform="matrix(0.07407407407407408,0,0,0.07407407407407408,62.14814814814816,0)" xlink:href="#bu"/><use transform="matrix(0.07407407407407408,0,0,0.07407407407407408,76.96296296296296,0)" xlink:href="#aB"/><use transform="matrix(0.07407407407407408,0,0,0.07407407407407408,91.77777777777777,0)" xlink:href="#aC"/><use transform="matrix(0.07407407407407408,0,0,0.07407407407407408,100.5925925925926,0)" xlink:href="#aC"/><use transform="matrix(0.07407407407407408,0,0,0.07407407407407408,109.40740740740739,0)" xlink:href="#bt"/></g><g id="O"><use transform="matrix(0.07407407407407408,0,0,0.07407407407407408,0,0)" xlink:href="#bh"/><use transform="matrix(0.07407407407407408,0,0,0.07407407407407408,17.77777777777778,0)" xlink:href="#bc"/></g><g id="P"><use transform="matrix(0.07407407407407408,0,0,0.07407407407407408,0,0)" xlink:href="#bh"/><use transform="matrix(0.07407407407407408,0,0,0.07407407407407408,17.77777777777778,0)" xlink:href="#bc"/><use transform="matrix(0.07407407407407408,0,0,0.07407407407407408,23.629629629629633,0)" xlink:href="#ba"/><use transform="matrix(0.07407407407407408,0,0,0.07407407407407408,36.96296296296297,0)" xlink:href="#bi"/></g><path d="M266 0h-40l-56-210L115 0H75L2-248h35L96-30l15-64 43-154h32l59 218 59-218h35" id="bx"/><use transform="matrix(0.07407407407407408,0,0,0.07407407407407408,0,0)" xlink:href="#bx" id="Q"/><g id="R"><use transform="matrix(0.06172839506172839,0,0,0.06172839506172839,0,0)" xlink:href="#bh"/><use transform="matrix(0.06172839506172839,0,0,0.06172839506172839,14.814814814814813,0)" xlink:href="#aC"/><use transform="matrix(0.06172839506172839,0,0,0.06172839506172839,22.160493827160494,0)" xlink:href="#bi"/><use transform="matrix(0.06172839506172839,0,0,0.06172839506172839,34.50617283950617,0)" xlink:href="#ba"/><use transform="matrix(0.06172839506172839,0,0,0.06172839506172839,45.61728395061728,0)" xlink:href="#aB"/><use transform="matrix(0.06172839506172839,0,0,0.06172839506172839,57.962962962962955,0)" xlink:href="#aA"/><use transform="matrix(0.06172839506172839,0,0,0.06172839506172839,69.07407407407406,0)" xlink:href="#aA"/></g><path d="M-5 72V49h209v23H-5" id="by"/><g id="S"><use transform="matrix(0.06172839506172839,0,0,0.06172839506172839,0,0)" xlink:href="#aW"/><use transform="matrix(0.06172839506172839,0,0,0.06172839506172839,15.987654320987653,0)" xlink:href="#bl"/><use transform="matrix(0.06172839506172839,0,0,0.06172839506172839,34.44444444444444,0)" xlink:href="#bg"/><use transform="matrix(0.06172839506172839,0,0,0.06172839506172839,49.25925925925925,0)" xlink:href="#aD"/><use transform="matrix(0.06172839506172839,0,0,0.06172839506172839,55.432098765432094,0)" xlink:href="#bg"/><use transform="matrix(0.06172839506172839,0,0,0.06172839506172839,70.24691358024691,0)" xlink:href="#by"/><use transform="matrix(0.06172839506172839,0,0,0.06172839506172839,82.5925925925926,0)" xlink:href="#aI"/><use transform="matrix(0.06172839506172839,0,0,0.06172839506172839,98.58024691358025,0)" xlink:href="#bn"/><use transform="matrix(0.06172839506172839,0,0,0.06172839506172839,113.39506172839506,0)" xlink:href="#bh"/></g><g id="T"><use transform="matrix(0.06172839506172839,0,0,0.06172839506172839,0,0)" xlink:href="#aW"/><use transform="matrix(0.06172839506172839,0,0,0.06172839506172839,15.987654320987653,0)" xlink:href="#bi"/><use transform="matrix(0.06172839506172839,0,0,0.06172839506172839,28.333333333333332,0)" xlink:href="#bj"/><use transform="matrix(0.06172839506172839,0,0,0.06172839506172839,46.79012345679012,0)" xlink:href="#bj"/><use transform="matrix(0.06172839506172839,0,0,0.06172839506172839,65.24691358024691,0)" xlink:href="#be"/><use transform="matrix(0.06172839506172839,0,0,0.06172839506172839,77.5925925925926,0)" xlink:href="#aE"/><use transform="matrix(0.06172839506172839,0,0,0.06172839506172839,89.93827160493828,0)" xlink:href="#bk"/></g><g id="U"><use transform="matrix(0.06172839506172839,0,0,0.06172839506172839,0,0)" xlink:href="#bf"/><use transform="matrix(0.06172839506172839,0,0,0.06172839506172839,15.987654320987653,0)" xlink:href="#be"/><use transform="matrix(0.06172839506172839,0,0,0.06172839506172839,28.333333333333332,0)" xlink:href="#aA"/><use transform="matrix(0.06172839506172839,0,0,0.06172839506172839,39.44444444444444,0)" xlink:href="#aF"/><use transform="matrix(0.06172839506172839,0,0,0.06172839506172839,51.79012345679012,0)" xlink:href="#bu"/><use transform="matrix(0.06172839506172839,0,0,0.06172839506172839,64.1358024691358,0)" xlink:href="#aB"/><use transform="matrix(0.06172839506172839,0,0,0.06172839506172839,76.48148148148148,0)" xlink:href="#aC"/><use transform="matrix(0.06172839506172839,0,0,0.06172839506172839,83.82716049382717,0)" xlink:href="#aC"/><use transform="matrix(0.06172839506172839,0,0,0.06172839506172839,91.17283950617285,0)" xlink:href="#bt"/></g><g id="V"><use transform="matrix(0.06172839506172839,0,0,0.06172839506172839,0,0)" xlink:href="#bh"/><use transform="matrix(0.06172839506172839,0,0,0.06172839506172839,14.814814814814813,0)" xlink:href="#bc"/></g><g id="W"><use transform="matrix(0.06172839506172839,0,0,0.06172839506172839,0,0)" xlink:href="#bh"/><use transform="matrix(0.06172839506172839,0,0,0.06172839506172839,14.814814814814813,0)" xlink:href="#aC"/><use transform="matrix(0.06172839506172839,0,0,0.06172839506172839,22.160493827160494,0)" xlink:href="#bi"/><use transform="matrix(0.06172839506172839,0,0,0.06172839506172839,34.50617283950617,0)" xlink:href="#bu"/><use transform="matrix(0.06172839506172839,0,0,0.06172839506172839,46.85185185185185,0)" xlink:href="#aB"/></g><path d="M63-220v92h138v28H63V0H30v-248h175v28H63" id="bz"/><path d="M206 0h-36l-40-164L89 0H53L-1-190h32L70-26l43-164h34l41 164 42-164h31" id="bA"/><g id="X"><use transform="matrix(0.06172839506172839,0,0,0.06172839506172839,0,0)" xlink:href="#bz"/><use transform="matrix(0.06172839506172839,0,0,0.06172839506172839,13.518518518518517,0)" xlink:href="#bc"/><use transform="matrix(0.06172839506172839,0,0,0.06172839506172839,18.39506172839506,0)" xlink:href="#aC"/><use transform="matrix(0.06172839506172839,0,0,0.06172839506172839,25.74074074074074,0)" xlink:href="#bj"/><use transform="matrix(0.06172839506172839,0,0,0.06172839506172839,44.19753086419753,0)" xlink:href="#bA"/><use transform="matrix(0.06172839506172839,0,0,0.06172839506172839,60.18518518518518,0)" xlink:href="#be"/><use transform="matrix(0.06172839506172839,0,0,0.06172839506172839,72.53086419753086,0)" xlink:href="#aC"/><use transform="matrix(0.06172839506172839,0,0,0.06172839506172839,79.87654320987654,0)" xlink:href="#aB"/></g><path fill="#333" d="M240 0l2-218c-23 76-54 145-80 218h-23L58-218 59 0H30v-248h44l77 211c21-75 51-140 76-211h43V0h-30" id="bB"/><path fill="#333" d="M16-82v-28h88v28H16" id="bC"/><path fill="#333" d="M30-248c118-7 216 8 213 122C240-48 200 0 122 0H30v-248zM63-27c89 8 146-16 146-99s-60-101-146-95v194" id="bD"/><path fill="#333" d="M205 0l-28-72H64L36 0H1l101-248h38L239 0h-34zm-38-99l-47-123c-12 45-31 82-46 123h93" id="bE"/><g id="Y"><use transform="matrix(0.04938271604938272,0,0,0.04938271604938272,0,0)" xlink:href="#aL"/><use transform="matrix(0.04938271604938272,0,0,0.04938271604938272,12.790123456790125,0)" xlink:href="#bB"/><use transform="matrix(0.04938271604938272,0,0,0.04938271604938272,27.555555555555557,0)" xlink:href="#aP"/><use transform="matrix(0.04938271604938272,0,0,0.04938271604938272,39.40740740740741,0)" xlink:href="#aO"/><use transform="matrix(0.04938271604938272,0,0,0.04938271604938272,44.345679012345684,0)" xlink:href="#aP"/><use transform="matrix(0.04938271604938272,0,0,0.04938271604938272,56.19753086419754,0)" xlink:href="#bC"/><use transform="matrix(0.04938271604938272,0,0,0.04938271604938272,62.074074074074076,0)" xlink:href="#bD"/><use transform="matrix(0.04938271604938272,0,0,0.04938271604938272,74.8641975308642,0)" xlink:href="#bE"/><use transform="matrix(0.04938271604938272,0,0,0.04938271604938272,86.71604938271605,0)" xlink:href="#aM"/></g><path fill="#333" d="M108 0H70L1-190h34L89-25l56-165h34" id="bF"/><path fill="#333" d="M114-163C36-179 61-72 57 0H25l-1-190h30c1 12-1 29 2 39 6-27 23-49 58-41v29" id="bG"/><g id="Z"><use transform="matrix(0.04938271604938272,0,0,0.04938271604938272,0,0)" xlink:href="#aQ"/><use transform="matrix(0.04938271604938272,0,0,0.04938271604938272,9.876543209876544,0)" xlink:href="#bF"/><use transform="matrix(0.04938271604938272,0,0,0.04938271604938272,18.765432098765434,0)" xlink:href="#aT"/><use transform="matrix(0.04938271604938272,0,0,0.04938271604938272,28.641975308641978,0)" xlink:href="#bG"/></g><path fill="#333" d="M266 0h-40l-56-210L115 0H75L2-248h35L96-30l15-64 43-154h32l59 218 59-218h35" id="bH"/><g id="aa"><use transform="matrix(0.04938271604938272,0,0,0.04938271604938272,0,0)" xlink:href="#aP"/><use transform="matrix(0.04938271604938272,0,0,0.04938271604938272,11.851851851851853,0)" xlink:href="#bH"/><use transform="matrix(0.04938271604938272,0,0,0.04938271604938272,28.592592592592595,0)" xlink:href="#bD"/></g><path d="M137-103V0h-34v-103L8-248h37l75 118 75-118h37" id="bI"/><path d="M155-56V0h-30v-56H8v-25l114-167h33v167h35v25h-35zm-30-156c-27 46-58 90-88 131h88v-131" id="bJ"/><path d="M126-127c33 6 58 20 58 59 0 88-139 92-164 29-3-8-5-16-6-25l32-3c6 27 21 44 54 44 32 0 52-15 52-46 0-38-36-46-79-43v-28c39 1 72-4 72-42 0-27-17-43-46-43-28 0-47 15-49 41l-32-3c6-42 35-63 81-64 48-1 79 21 79 65 0 36-21 52-52 59" id="bK"/><path d="M99-251c64 0 84 50 84 122C183-37 130 33 47-8c-14-7-20-23-25-40l30-5c6 39 69 39 84 7 9-19 16-44 16-74-10 22-31 35-62 35-49 0-73-33-73-83 0-54 28-83 82-83zm-1 141c31-1 51-18 51-49 0-36-14-67-51-67-34 0-49 23-49 58 0 34 15 58 49 58" id="bL"/><g id="ab"><use transform="matrix(0.05925925925925927,0,0,0.05925925925925927,0,0)" xlink:href="#aW"/><use transform="matrix(0.05925925925925927,0,0,0.05925925925925927,15.34814814814815,0)" xlink:href="#bI"/><use transform="matrix(0.05925925925925927,0,0,0.05925925925925927,29.570370370370377,0)" xlink:href="#bx"/><use transform="matrix(0.05925925925925927,0,0,0.05925925925925927,49.65925925925927,0)" xlink:href="#bJ"/><use transform="matrix(0.05925925925925927,0,0,0.05925925925925927,61.51111111111112,0)" xlink:href="#bK"/><use transform="matrix(0.05925925925925927,0,0,0.05925925925925927,73.36296296296298,0)" xlink:href="#bJ"/><use transform="matrix(0.05925925925925927,0,0,0.05925925925925927,85.21481481481483,0)" xlink:href="#bK"/><use transform="matrix(0.05925925925925927,0,0,0.05925925925925927,97.06666666666668,0)" xlink:href="#bL"/></g><g id="ac"><use transform="matrix(0.06172839506172839,0,0,0.06172839506172839,0,0)" xlink:href="#bg"/><use transform="matrix(0.06172839506172839,0,0,0.06172839506172839,14.814814814814813,0)" xlink:href="#bc"/><use transform="matrix(0.06172839506172839,0,0,0.06172839506172839,19.691358024691354,0)" xlink:href="#bb"/><use transform="matrix(0.06172839506172839,0,0,0.06172839506172839,24.5679012345679,0)" xlink:href="#bb"/><use transform="matrix(0.06172839506172839,0,0,0.06172839506172839,29.444444444444443,0)" xlink:href="#bt"/></g><g id="ad"><use transform="matrix(0.06172839506172839,0,0,0.06172839506172839,0,0)" xlink:href="#bg"/><use transform="matrix(0.06172839506172839,0,0,0.06172839506172839,14.814814814814813,0)" xlink:href="#be"/><use transform="matrix(0.06172839506172839,0,0,0.06172839506172839,27.160493827160494,0)" xlink:href="#aG"/><use transform="matrix(0.06172839506172839,0,0,0.06172839506172839,39.50617283950617,0)" xlink:href="#aA"/><use transform="matrix(0.06172839506172839,0,0,0.06172839506172839,50.61728395061728,0)" xlink:href="#be"/><use transform="matrix(0.06172839506172839,0,0,0.06172839506172839,62.962962962962955,0)" xlink:href="#bp"/><use transform="matrix(0.06172839506172839,0,0,0.06172839506172839,75.30864197530863,0)" xlink:href="#aB"/></g><g id="ae"><use transform="matrix(0.06172839506172839,0,0,0.06172839506172839,0,0)" xlink:href="#aW"/><use transform="matrix(0.06172839506172839,0,0,0.06172839506172839,15.987654320987653,0)" xlink:href="#bi"/><use transform="matrix(0.06172839506172839,0,0,0.06172839506172839,28.333333333333332,0)" xlink:href="#bk"/><use transform="matrix(0.06172839506172839,0,0,0.06172839506172839,40.67901234567901,0)" xlink:href="#aB"/></g><path d="M101-234c-31-9-42 10-38 44h38v23H63V0H32v-167H5v-23h27c-7-52 17-82 69-68v24" id="bM"/><g id="af"><use transform="matrix(0.05925925925925927,0,0,0.05925925925925927,0,0)" xlink:href="#bx"/><use transform="matrix(0.05925925925925927,0,0,0.05925925925925927,20.088888888888892,0)" xlink:href="#bc"/><use transform="matrix(0.05925925925925927,0,0,0.05925925925925927,24.770370370370372,0)" xlink:href="#bM"/><use transform="matrix(0.05925925925925927,0,0,0.05925925925925927,30.6962962962963,0)" xlink:href="#bc"/></g><path d="M0 4l72-265h28L28 4H0" id="bN"/><g id="ag"><use transform="matrix(0.06172839506172839,0,0,0.06172839506172839,0,0)" xlink:href="#bh"/><use transform="matrix(0.06172839506172839,0,0,0.06172839506172839,14.814814814814813,0)" xlink:href="#be"/><use transform="matrix(0.06172839506172839,0,0,0.06172839506172839,27.160493827160494,0)" xlink:href="#ba"/><use transform="matrix(0.06172839506172839,0,0,0.06172839506172839,38.27160493827161,0)" xlink:href="#bv"/><use transform="matrix(0.06172839506172839,0,0,0.06172839506172839,49.38271604938272,0)" xlink:href="#bN"/><use transform="matrix(0.06172839506172839,0,0,0.06172839506172839,55.555555555555564,0)" xlink:href="#az"/><use transform="matrix(0.06172839506172839,0,0,0.06172839506172839,71.54320987654322,0)" xlink:href="#aE"/><use transform="matrix(0.06172839506172839,0,0,0.06172839506172839,83.8888888888889,0)" xlink:href="#aF"/><use transform="matrix(0.06172839506172839,0,0,0.06172839506172839,96.23456790123458,0)" xlink:href="#be"/><use transform="matrix(0.06172839506172839,0,0,0.06172839506172839,108.58024691358027,0)" xlink:href="#ba"/><use transform="matrix(0.06172839506172839,0,0,0.06172839506172839,119.69135802469138,0)" xlink:href="#bv"/></g><g id="ah"><use transform="matrix(0.06172839506172839,0,0,0.06172839506172839,0,0)" xlink:href="#bd"/><use transform="matrix(0.06172839506172839,0,0,0.06172839506172839,13.518518518518517,0)" xlink:href="#aW"/><use transform="matrix(0.06172839506172839,0,0,0.06172839506172839,29.50617283950617,0)" xlink:href="#bh"/><use transform="matrix(0.06172839506172839,0,0,0.06172839506172839,44.32098765432099,0)" xlink:href="#bN"/><use transform="matrix(0.06172839506172839,0,0,0.06172839506172839,50.49382716049383,0)" xlink:href="#aD"/><use transform="matrix(0.06172839506172839,0,0,0.06172839506172839,56.66666666666667,0)" xlink:href="#bh"/></g><g id="ai"><use transform="matrix(0.06172839506172839,0,0,0.06172839506172839,0,0)" xlink:href="#aF"/><use transform="matrix(0.06172839506172839,0,0,0.06172839506172839,12.345679012345679,0)" xlink:href="#be"/><use transform="matrix(0.06172839506172839,0,0,0.06172839506172839,24.691358024691358,0)" xlink:href="#ba"/><use transform="matrix(0.06172839506172839,0,0,0.06172839506172839,35.80246913580247,0)" xlink:href="#bv"/><use transform="matrix(0.06172839506172839,0,0,0.06172839506172839,46.91358024691358,0)" xlink:href="#aB"/><use transform="matrix(0.06172839506172839,0,0,0.06172839506172839,59.25925925925926,0)" xlink:href="#aH"/><use transform="matrix(0.06172839506172839,0,0,0.06172839506172839,65.4320987654321,0)" xlink:href="#aA"/></g><g id="aj"><use transform="matrix(0.06172839506172839,0,0,0.06172839506172839,0,0)" xlink:href="#az"/><use transform="matrix(0.06172839506172839,0,0,0.06172839506172839,15.987654320987653,0)" xlink:href="#bg"/><use transform="matrix(0.06172839506172839,0,0,0.06172839506172839,30.80246913580247,0)" xlink:href="#aY"/></g><g id="ak"><use transform="matrix(0.05,0,0,0.05,0,0)" xlink:href="#bg"/><use transform="matrix(0.05,0,0,0.05,12,0)" xlink:href="#bi"/><use transform="matrix(0.05,0,0,0.05,22,0)" xlink:href="#ba"/><use transform="matrix(0.05,0,0,0.05,31,0)" xlink:href="#bv"/><use transform="matrix(0.05,0,0,0.05,40,0)" xlink:href="#aB"/><use transform="matrix(0.05,0,0,0.05,50,0)" xlink:href="#aH"/></g><g id="al"><use transform="matrix(0.05,0,0,0.05,0,0)" xlink:href="#ba"/><use transform="matrix(0.05,0,0,0.05,9,0)" xlink:href="#bi"/><use transform="matrix(0.05,0,0,0.05,19,0)" xlink:href="#aE"/><use transform="matrix(0.05,0,0,0.05,29,0)" xlink:href="#aE"/><use transform="matrix(0.05,0,0,0.05,39,0)" xlink:href="#aB"/><use transform="matrix(0.05,0,0,0.05,49,0)" xlink:href="#ba"/><use transform="matrix(0.05,0,0,0.05,58,0)" xlink:href="#aH"/><use transform="matrix(0.05,0,0,0.05,63,0)" xlink:href="#bc"/><use transform="matrix(0.05,0,0,0.05,66.95,0)" xlink:href="#bi"/><use transform="matrix(0.05,0,0,0.05,76.95,0)" xlink:href="#aE"/></g><g id="am"><use transform="matrix(0.1111111111111111,0,0,0.1111111111111111,0,0)" xlink:href="#bh"/><use transform="matrix(0.1111111111111111,0,0,0.1111111111111111,26.666666666666664,0)" xlink:href="#bc"/><use transform="matrix(0.1111111111111111,0,0,0.1111111111111111,35.44444444444444,0)" xlink:href="#ba"/><use transform="matrix(0.1111111111111111,0,0,0.1111111111111111,55.44444444444444,0)" xlink:href="#bi"/></g><use transform="matrix(0.1111111111111111,0,0,0.1111111111111111,0,0)" xlink:href="#bx" id="an"/><g id="ao"><use transform="matrix(0.1111111111111111,0,0,0.1111111111111111,0,0)" xlink:href="#aG"/><use transform="matrix(0.1111111111111111,0,0,0.1111111111111111,22.22222222222222,0)" xlink:href="#aA"/><use transform="matrix(0.1111111111111111,0,0,0.1111111111111111,42.22222222222222,0)" xlink:href="#bc"/><use transform="matrix(0.1111111111111111,0,0,0.1111111111111111,51,0)" xlink:href="#aE"/><use transform="matrix(0.1111111111111111,0,0,0.1111111111111111,73.22222222222223,0)" xlink:href="#bp"/></g><g id="ap"><use transform="matrix(0.1111111111111111,0,0,0.1111111111111111,0,0)" xlink:href="#bh"/><use transform="matrix(0.1111111111111111,0,0,0.1111111111111111,26.666666666666664,0)" xlink:href="#bc"/><use transform="matrix(0.1111111111111111,0,0,0.1111111111111111,35.44444444444444,0)" xlink:href="#ba"/><use transform="matrix(0.1111111111111111,0,0,0.1111111111111111,55.44444444444444,0)" xlink:href="#bi"/><use transform="matrix(0.1111111111111111,0,0,0.1111111111111111,77.66666666666666,0)" xlink:href="#bh"/><use transform="matrix(0.1111111111111111,0,0,0.1111111111111111,104.33333333333331,0)" xlink:href="#aC"/><use transform="matrix(0.1111111111111111,0,0,0.1111111111111111,117.55555555555554,0)" xlink:href="#bi"/><use transform="matrix(0.1111111111111111,0,0,0.1111111111111111,139.77777777777777,0)" xlink:href="#bu"/><use transform="matrix(0.1111111111111111,0,0,0.1111111111111111,162,0)" xlink:href="#aB"/></g><g id="aq"><use transform="matrix(0.1111111111111111,0,0,0.1111111111111111,0,0)" xlink:href="#bz"/><use transform="matrix(0.1111111111111111,0,0,0.1111111111111111,24.333333333333332,0)" xlink:href="#bc"/><use transform="matrix(0.1111111111111111,0,0,0.1111111111111111,33.11111111111111,0)" xlink:href="#aC"/><use transform="matrix(0.1111111111111111,0,0,0.1111111111111111,46.33333333333333,0)" xlink:href="#bj"/><use transform="matrix(0.1111111111111111,0,0,0.1111111111111111,79.55555555555554,0)" xlink:href="#bA"/><use transform="matrix(0.1111111111111111,0,0,0.1111111111111111,108.33333333333331,0)" xlink:href="#be"/><use transform="matrix(0.1111111111111111,0,0,0.1111111111111111,130.55555555555554,0)" xlink:href="#aC"/><use transform="matrix(0.1111111111111111,0,0,0.1111111111111111,143.77777777777777,0)" xlink:href="#aB"/></g><g id="ar"><use transform="matrix(0.06172839506172839,0,0,0.06172839506172839,0,0)" xlink:href="#bg"/><use transform="matrix(0.06172839506172839,0,0,0.06172839506172839,14.814814814814813,0)" xlink:href="#bc"/><use transform="matrix(0.06172839506172839,0,0,0.06172839506172839,19.691358024691354,0)" xlink:href="#bb"/><use transform="matrix(0.06172839506172839,0,0,0.06172839506172839,24.5679012345679,0)" xlink:href="#bb"/><use transform="matrix(0.06172839506172839,0,0,0.06172839506172839,29.444444444444443,0)" xlink:href="#bt"/></g><g id="as"><use transform="matrix(0.06172839506172839,0,0,0.06172839506172839,0,0)" xlink:href="#bg"/><use transform="matrix(0.06172839506172839,0,0,0.06172839506172839,14.814814814814813,0)" xlink:href="#be"/><use transform="matrix(0.06172839506172839,0,0,0.06172839506172839,27.160493827160494,0)" xlink:href="#aG"/><use transform="matrix(0.06172839506172839,0,0,0.06172839506172839,39.50617283950617,0)" xlink:href="#aA"/><use transform="matrix(0.06172839506172839,0,0,0.06172839506172839,50.61728395061728,0)" xlink:href="#be"/><use transform="matrix(0.06172839506172839,0,0,0.06172839506172839,62.962962962962955,0)" xlink:href="#bp"/><use transform="matrix(0.06172839506172839,0,0,0.06172839506172839,75.30864197530863,0)" xlink:href="#aB"/></g><g id="at"><use transform="matrix(0.06172839506172839,0,0,0.06172839506172839,0,0)" xlink:href="#aW"/><use transform="matrix(0.06172839506172839,0,0,0.06172839506172839,15.987654320987653,0)" xlink:href="#bi"/><use transform="matrix(0.06172839506172839,0,0,0.06172839506172839,28.333333333333332,0)" xlink:href="#bk"/><use transform="matrix(0.06172839506172839,0,0,0.06172839506172839,40.67901234567901,0)" xlink:href="#aB"/></g><g id="au"><use transform="matrix(0.06172839506172839,0,0,0.06172839506172839,0,0)" xlink:href="#aC"/><use transform="matrix(0.06172839506172839,0,0,0.06172839506172839,7.345679012345679,0)" xlink:href="#aB"/><use transform="matrix(0.06172839506172839,0,0,0.06172839506172839,19.691358024691358,0)" xlink:href="#aA"/><use transform="matrix(0.06172839506172839,0,0,0.06172839506172839,30.80246913580247,0)" xlink:href="#aF"/><use transform="matrix(0.06172839506172839,0,0,0.06172839506172839,43.148148148148145,0)" xlink:href="#bi"/><use transform="matrix(0.06172839506172839,0,0,0.06172839506172839,55.49382716049382,0)" xlink:href="#aE"/><use transform="matrix(0.06172839506172839,0,0,0.06172839506172839,67.8395061728395,0)" xlink:href="#aA"/><use transform="matrix(0.06172839506172839,0,0,0.06172839506172839,78.95061728395062,0)" xlink:href="#aB"/></g><g id="av"><use transform="matrix(0.06172839506172839,0,0,0.06172839506172839,0,0)" xlink:href="#aC"/><use transform="matrix(0.06172839506172839,0,0,0.06172839506172839,7.345679012345679,0)" xlink:href="#aB"/><use transform="matrix(0.06172839506172839,0,0,0.06172839506172839,19.691358024691358,0)" xlink:href="#aA"/><use transform="matrix(0.06172839506172839,0,0,0.06172839506172839,30.80246913580247,0)" xlink:href="#aF"/><use transform="matrix(0.06172839506172839,0,0,0.06172839506172839,43.148148148148145,0)" xlink:href="#bi"/><use transform="matrix(0.06172839506172839,0,0,0.06172839506172839,55.49382716049382,0)" xlink:href="#aE"/><use transform="matrix(0.06172839506172839,0,0,0.06172839506172839,67.8395061728395,0)" xlink:href="#aA"/><use transform="matrix(0.06172839506172839,0,0,0.06172839506172839,78.95061728395062,0)" xlink:href="#aB"/></g><g id="aw"><use transform="matrix(0.04938271604938272,0,0,0.04938271604938272,0,0)" xlink:href="#bd"/><use transform="matrix(0.04938271604938272,0,0,0.04938271604938272,10.814814814814815,0)" xlink:href="#aW"/><use transform="matrix(0.04938271604938272,0,0,0.04938271604938272,23.60493827160494,0)" xlink:href="#bh"/><use transform="matrix(0.04938271604938272,0,0,0.04938271604938272,35.45679012345679,0)" xlink:href="#bN"/><use transform="matrix(0.04938271604938272,0,0,0.04938271604938272,40.39506172839506,0)" xlink:href="#aD"/><use transform="matrix(0.04938271604938272,0,0,0.04938271604938272,45.333333333333336,0)" xlink:href="#bh"/></g><g id="ax"><use transform="matrix(0.04938271604938272,0,0,0.04938271604938272,0,0)" xlink:href="#bg"/><use transform="matrix(0.04938271604938272,0,0,0.04938271604938272,11.851851851851853,0)" xlink:href="#bi"/><use transform="matrix(0.04938271604938272,0,0,0.04938271604938272,21.7283950617284,0)" xlink:href="#ba"/><use transform="matrix(0.04938271604938272,0,0,0.04938271604938272,30.617283950617285,0)" xlink:href="#bv"/><use transform="matrix(0.04938271604938272,0,0,0.04938271604938272,39.50617283950618,0)" xlink:href="#aB"/><use transform="matrix(0.04938271604938272,0,0,0.04938271604938272,49.38271604938272,0)" xlink:href="#aH"/></g><g id="ay"><use transform="matrix(0.06172839506172839,0,0,0.06172839506172839,0,0)" xlink:href="#bf"/><use transform="matrix(0.06172839506172839,0,0,0.06172839506172839,15.987654320987653,0)" xlink:href="#aB"/><use transform="matrix(0.06172839506172839,0,0,0.06172839506172839,28.333333333333332,0)" xlink:href="#aA"/><use transform="matrix(0.06172839506172839,0,0,0.06172839506172839,39.44444444444444,0)" xlink:href="#aF"/><use transform="matrix(0.06172839506172839,0,0,0.06172839506172839,51.79012345679012,0)" xlink:href="#bi"/><use transform="matrix(0.06172839506172839,0,0,0.06172839506172839,64.1358024691358,0)" xlink:href="#aE"/><use transform="matrix(0.06172839506172839,0,0,0.06172839506172839,76.48148148148148,0)" xlink:href="#aA"/><use transform="matrix(0.06172839506172839,0,0,0.06172839506172839,87.5925925925926,0)" xlink:href="#aB"/></g></defs></g></svg>